<svg width="24" height="24" viewBox="0 0 24 24" fill="none" xmlns="http://www.w3.org/2000/svg">
<path d="M3 16C3 15.6833 3.1 15.4417 3.3 15.275C3.5 15.1083 3.73333 15.025 4 15.025C4.26667 15.025 4.5 15.1083 4.7 15.275C4.9 15.4417 5 15.6833 5 16V17C5 17.6167 5.175 18.1083 5.525 18.475C5.89167 18.825 6.38333 19 7 19H17C17.6167 19 18.1 18.825 18.45 18.475C18.8167 18.1083 19 17.6167 19 17V16C19 15.5833 19.1667 15.3 19.5 15.15C19.8333 14.9833 20.1667 14.9833 20.5 15.15C20.8333 15.3 21 15.5833 21 16V17C21 17.7167 20.8167 18.3833 20.45 19C20.1 19.6167 19.6167 20.1083 19 20.475C18.3833 20.825 17.7167 21 17 21H7C6.28333 21 5.61667 20.825 5 20.475C4.38333 20.1083 3.89167 19.6167 3.525 19C3.175 18.3833 3 17.7167 3 17V16ZM12 14.575L15.3 11.3C15.6 11 15.9167 10.9083 16.25 11.025C16.6 11.1417 16.8333 11.3833 16.95 11.75C17.0667 12.1 16.9833 12.4167 16.7 12.7L12.725 16.7C12.5083 16.9167 12.2667 17.025 12 17.025C11.7333 17.025 11.4917 16.9167 11.275 16.7L7.3 12.7C7 12.4 6.90833 12.0833 7.025 11.75C7.14167 11.4 7.375 11.1667 7.725 11.05C8.09167 10.9333 8.41667 11.0167 8.7 11.3L12 14.575ZM11 4C11 3.58333 11.1667 3.3 11.5 3.15C11.8333 2.98333 12.1667 2.98333 12.5 3.15C12.8333 3.3 13 3.58333 13 4V16H11V4Z" fill="#272D34"/>
</svg>
