<svg width="279" height="192" viewBox="0 0 279 192" fill="none" xmlns="http://www.w3.org/2000/svg">
<g clip-path="url(#clip0_1243_27316)">
<rect width="279" height="192" fill="url(#paint0_radial_1243_27316)" fill-opacity="0.55"/>
<ellipse cx="125.5" cy="174.5" rx="98.5" ry="12.5" fill="url(#paint1_radial_1243_27316)" fill-opacity="0.55"/>
<path d="M48.43 154.426C48.43 157.276 49.49 159.836 51.36 161.696C53.23 163.556 55.79 165.956 58.63 165.956C62.16 165.956 62.16 164.146 65.69 164.146C69.22 164.146 69.22 164.516 72.74 164.516C76.26 164.516 76.27 164.087 79.8 164.087C83.33 164.087 83.33 163.376 86.86 163.376C90.39 163.376 90.39 163.956 93.92 163.956C97.45 163.956 97.45 164.376 100.98 164.376C104.51 164.376 104.51 164.486 108.04 164.486C111.57 164.486 111.57 163.896 115.1 163.896C118.63 163.896 118.63 163.626 122.16 163.626C125.69 163.626 125.69 164.277 129.22 164.277C132.75 164.277 132.75 166.116 136.28 166.116C139.81 166.116 139.81 164.516 143.34 164.516C146.87 164.516 146.87 163.566 150.4 163.566C153.93 163.566 153.93 164.027 157.46 164.027C160.99 164.027 160.99 165.967 164.52 165.967C168.05 165.967 168.05 165.816 171.58 165.816C175.11 165.816 175.11 164.556 178.64 164.556C182.17 164.556 182.17 164.337 185.7 164.337C189.23 164.337 189.23 164.736 192.76 164.736C196.29 164.736 196.29 164.136 199.82 164.136C203.35 164.136 203.35 165.576 206.88 165.576C210.41 165.576 210.41 164.896 213.95 164.896C217.49 164.896 217.48 164.996 221.02 164.996C223.87 164.996 226.77 163.896 228.64 162.027C230.51 160.157 230.72 157.257 230.72 154.407C230.72 150.797 232.75 150.796 232.75 147.176C232.75 143.556 232.78 143.566 232.78 139.946C232.78 136.326 231.63 136.337 231.63 132.716C231.63 129.096 230.26 129.106 230.26 125.486C230.26 121.866 231.27 121.876 231.27 118.256C231.27 114.636 229.88 114.646 229.88 111.026C229.88 107.406 232.4 107.416 232.4 103.796C232.4 100.176 231.35 100.176 231.35 96.5665C231.35 92.9565 230.77 92.9465 230.77 89.3365C230.77 85.7265 230.71 85.7165 230.71 82.1065C230.71 78.4965 232.81 78.4865 232.81 74.8665C232.81 71.2465 231.92 71.2465 231.92 67.6265C231.92 64.7765 230.29 62.0865 228.42 60.2165C226.55 58.3465 223.86 56.3965 221.01 56.3965C218.05 56.3965 218.05 58.0465 215.09 58.0465C212.99 58.0465 210.9 56.8065 209.23 55.6865C207.56 54.5665 206.82 52.6065 206.03 50.6565C205.01 48.1265 204.29 48.4165 203.27 45.8965C202.25 43.3765 202.25 43.3665 201.23 40.8365C200.33 38.5965 198.26 38.0665 196.39 36.9665C194.52 35.8665 192.71 32.7465 190.46 33.0165C188.21 33.2865 187.4 36.5965 185.68 38.2965C182.79 41.1465 182.61 40.9565 179.73 43.8065C176.85 46.6565 176.7 46.5165 173.81 49.3565C170.92 52.1965 169.68 50.9465 166.79 53.7965C164.86 55.6965 162.8 58.6765 160.09 58.6765C156.47 58.6765 156.47 57.3765 152.85 57.3765C149.23 57.3765 149.23 57.0065 145.61 57.0065C141.99 57.0065 141.99 56.6065 138.37 56.6065C134.75 56.6065 134.75 58.7565 131.13 58.7565C127.51 58.7565 127.51 55.9265 123.88 55.9265C120.25 55.9265 120.26 55.8565 116.64 55.8565C113.02 55.8565 113.02 56.3165 109.4 56.3165C105.78 56.3165 105.78 57.0565 102.16 57.0565C98.54 57.0565 98.54 56.7065 94.92 56.7065C91.3 56.7065 91.3 58.4465 87.67 58.4465C84.04 58.4465 84.05 58.7965 80.42 58.7965C76.79 58.7965 76.8 56.7565 73.17 56.7565C69.54 56.7565 69.54 57.4765 65.92 57.4765C62.3 57.4765 62.29 57.6565 58.67 57.6565C55.82 57.6565 52.48 57.6865 50.61 59.5565C48.74 61.4265 48.19 64.7665 48.19 67.6165C48.19 71.2265 47.7 71.2265 47.7 74.8465C47.7 78.4665 49.84 78.4565 49.84 82.0765C49.84 85.6965 47.24 85.6865 47.24 89.3065C47.24 92.9265 47 92.9165 47 96.5365C47 100.157 47.51 100.146 47.51 103.766C47.51 107.386 48.93 107.376 48.93 110.996C48.93 114.616 48.64 114.607 48.64 118.227C48.64 121.847 48.72 121.846 48.72 125.456C48.72 129.066 48.96 129.076 48.96 132.686C48.96 136.296 48.51 136.307 48.51 139.917C48.51 143.527 48.81 143.526 48.84 147.146C48.87 150.766 48.47 150.766 48.47 154.386L48.43 154.426Z" fill="#3D5BF5"/>
<g filter="url(#filter0_f_1243_27316)">
<path d="M48.43 154.426C48.43 157.276 49.49 159.836 51.36 161.696C53.23 163.556 55.79 165.956 58.63 165.956C62.16 165.956 62.16 164.146 65.69 164.146C69.22 164.146 69.22 164.516 72.74 164.516C76.26 164.516 76.27 164.087 79.8 164.087C83.33 164.087 83.33 163.376 86.86 163.376C90.39 163.376 90.39 163.956 93.92 163.956C97.45 163.956 97.45 164.376 100.98 164.376C104.51 164.376 104.51 164.486 108.04 164.486C111.57 164.486 111.57 163.896 115.1 163.896C118.63 163.896 118.63 163.626 122.16 163.626C125.69 163.626 125.69 164.277 129.22 164.277C132.75 164.277 132.75 166.116 136.28 166.116C139.81 166.116 139.81 164.516 143.34 164.516C146.87 164.516 146.87 163.566 150.4 163.566C153.93 163.566 153.93 164.027 157.46 164.027C160.99 164.027 160.99 165.967 164.52 165.967C168.05 165.967 168.05 165.816 171.58 165.816C175.11 165.816 175.11 164.556 178.64 164.556C182.17 164.556 182.17 164.337 185.7 164.337C189.23 164.337 189.23 164.736 192.76 164.736C196.29 164.736 196.29 164.136 199.82 164.136C203.35 164.136 203.35 165.576 206.88 165.576C210.41 165.576 210.41 164.896 213.95 164.896C217.49 164.896 217.48 164.996 221.02 164.996C223.87 164.996 226.77 163.896 228.64 162.027C230.51 160.157 230.72 157.257 230.72 154.407C230.72 150.797 232.75 150.796 232.75 147.176C232.75 143.556 232.78 143.566 232.78 139.946C232.78 136.326 231.63 136.337 231.63 132.716C231.63 129.096 230.26 129.106 230.26 125.486C230.26 121.866 231.27 121.876 231.27 118.256C231.27 114.636 229.88 114.646 229.88 111.026C229.88 107.406 232.4 107.416 232.4 103.796C232.4 100.176 231.35 100.176 231.35 96.5665C231.35 92.9565 230.77 92.9465 230.77 89.3365C230.77 85.7265 230.71 85.7165 230.71 82.1065C230.71 78.4965 232.81 78.4865 232.81 74.8665C232.81 71.2465 231.92 71.2465 231.92 67.6265C231.92 64.7765 230.29 62.0865 228.42 60.2165C226.55 58.3465 223.86 56.3965 221.01 56.3965C218.05 56.3965 218.05 58.0465 215.09 58.0465C212.99 58.0465 210.9 56.8065 209.23 55.6865C207.56 54.5665 206.82 52.6065 206.03 50.6565C205.01 48.1265 204.29 48.4165 203.27 45.8965C202.25 43.3765 202.25 43.3665 201.23 40.8365C200.33 38.5965 198.26 38.0665 196.39 36.9665C194.52 35.8665 192.71 32.7465 190.46 33.0165C188.21 33.2865 187.4 36.5965 185.68 38.2965C182.79 41.1465 182.61 40.9565 179.73 43.8065C176.85 46.6565 176.7 46.5165 173.81 49.3565C170.92 52.1965 169.68 50.9465 166.79 53.7965C164.86 55.6965 162.8 58.6765 160.09 58.6765C156.47 58.6765 156.47 57.3765 152.85 57.3765C149.23 57.3765 149.23 57.0065 145.61 57.0065C141.99 57.0065 141.99 56.6065 138.37 56.6065C134.75 56.6065 134.75 58.7565 131.13 58.7565C127.51 58.7565 127.51 55.9265 123.88 55.9265C120.25 55.9265 120.26 55.8565 116.64 55.8565C113.02 55.8565 113.02 56.3165 109.4 56.3165C105.78 56.3165 105.78 57.0565 102.16 57.0565C98.54 57.0565 98.54 56.7065 94.92 56.7065C91.3 56.7065 91.3 58.4465 87.67 58.4465C84.04 58.4465 84.05 58.7965 80.42 58.7965C76.79 58.7965 76.8 56.7565 73.17 56.7565C69.54 56.7565 69.54 57.4765 65.92 57.4765C62.3 57.4765 62.29 57.6565 58.67 57.6565C55.82 57.6565 52.48 57.6865 50.61 59.5565C48.74 61.4265 48.19 64.7665 48.19 67.6165C48.19 71.2265 47.7 71.2265 47.7 74.8465C47.7 78.4665 49.84 78.4565 49.84 82.0765C49.84 85.6965 47.24 85.6865 47.24 89.3065C47.24 92.9265 47 92.9165 47 96.5365C47 100.157 47.51 100.146 47.51 103.766C47.51 107.386 48.93 107.376 48.93 110.996C48.93 114.616 48.64 114.607 48.64 118.227C48.64 121.847 48.72 121.846 48.72 125.456C48.72 129.066 48.96 129.076 48.96 132.686C48.96 136.296 48.51 136.307 48.51 139.917C48.51 143.527 48.81 143.526 48.84 147.146C48.87 150.766 48.47 150.766 48.47 154.386L48.43 154.426Z" fill="#3D5BF5"/>
</g>
<path d="M181.637 89.8357L168 93.6712" stroke="black" stroke-width="2.13084" stroke-linecap="round"/>
<path d="M179.935 86L173.969 87.7047" stroke="black" stroke-width="1.2785" stroke-linecap="round"/>
<path d="M192.363 89.8357L206 93.6712" stroke="black" stroke-width="2.13084" stroke-linecap="round"/>
<path d="M194.065 86L200.031 87.7047" stroke="black" stroke-width="1.2785" stroke-linecap="round"/>
<path d="M180.16 97.4001C182.291 101.236 192.519 101.236 193.798 97.4001" stroke="black" stroke-width="1.70467" stroke-linecap="round"/>
<g filter="url(#filter1_f_1243_27316)">
<circle cx="104.5" cy="8.5" r="6.5" fill="#3D5BF5" fill-opacity="0.4"/>
</g>
<g filter="url(#filter2_f_1243_27316)">
<circle cx="268.5" cy="136.5" r="6.5" fill="#3D5BF5" fill-opacity="0.4"/>
</g>
<g filter="url(#filter3_f_1243_27316)">
<circle cx="25.5" cy="163.5" r="9.5" fill="#3D5BF5" fill-opacity="0.4"/>
</g>
<g filter="url(#filter4_f_1243_27316)">
<circle cx="131.882" cy="29.8825" r="3.5" transform="rotate(-35.5383 131.882 29.8825)" fill="#3D5BF5"/>
</g>
<g filter="url(#filter5_f_1243_27316)">
<circle cx="246.882" cy="58.8825" r="3.5" transform="rotate(-35.5383 246.882 58.8825)" fill="#3D5BF5"/>
</g>
<path d="M34.616 48.6126V50.3166C34.616 50.7646 34.456 51.1406 34.136 51.4446C33.832 51.7646 33.456 51.9246 33.008 51.9246H24.2V50.2926L29.84 40.5966L24.2 41.1726V38.1726L34.208 36.8526V38.6526L28.136 48.8046L34.616 48.6126Z" fill="#3D5BF5"/>
<path d="M63.616 38.6126V40.3166C63.616 40.7646 63.456 41.1406 63.136 41.4446C62.832 41.7646 62.456 41.9246 62.008 41.9246H53.2V40.2926L58.84 30.5966L53.2 31.1726V28.1726L63.208 26.8526V28.6526L57.136 38.8046L63.616 38.6126Z" fill="#FF80B4"/>
<path d="M49.4768 36.915L49.946 38.5531C50.0693 38.9838 50.019 39.3893 49.795 39.7697C49.5909 40.161 49.2735 40.4184 48.8428 40.5417L40.3751 42.9665L39.9258 41.3976L42.6786 30.5236L37.4151 32.63L36.5892 29.746L45.8471 25.7217L46.3426 27.4522L43.3001 38.8835L49.4768 36.915Z" fill="#11EBC5" fill-opacity="0.55"/>
<g filter="url(#filter6_f_1243_27316)">
<circle cx="39.8824" cy="181.883" r="3.5" transform="rotate(-35.5383 39.8824 181.883)" fill="#3D5BF5" fill-opacity="0.4"/>
</g>
</g>
<defs>
<filter id="filter0_f_1243_27316" x="37" y="23" width="205.809" height="153.116" filterUnits="userSpaceOnUse" color-interpolation-filters="sRGB">
<feFlood flood-opacity="0" result="BackgroundImageFix"/>
<feBlend mode="normal" in="SourceGraphic" in2="BackgroundImageFix" result="shape"/>
<feGaussianBlur stdDeviation="5" result="effect1_foregroundBlur_1243_27316"/>
</filter>
<filter id="filter1_f_1243_27316" x="94" y="-2" width="21" height="21" filterUnits="userSpaceOnUse" color-interpolation-filters="sRGB">
<feFlood flood-opacity="0" result="BackgroundImageFix"/>
<feBlend mode="normal" in="SourceGraphic" in2="BackgroundImageFix" result="shape"/>
<feGaussianBlur stdDeviation="2" result="effect1_foregroundBlur_1243_27316"/>
</filter>
<filter id="filter2_f_1243_27316" x="258" y="126" width="21" height="21" filterUnits="userSpaceOnUse" color-interpolation-filters="sRGB">
<feFlood flood-opacity="0" result="BackgroundImageFix"/>
<feBlend mode="normal" in="SourceGraphic" in2="BackgroundImageFix" result="shape"/>
<feGaussianBlur stdDeviation="2" result="effect1_foregroundBlur_1243_27316"/>
</filter>
<filter id="filter3_f_1243_27316" x="12" y="150" width="27" height="27" filterUnits="userSpaceOnUse" color-interpolation-filters="sRGB">
<feFlood flood-opacity="0" result="BackgroundImageFix"/>
<feBlend mode="normal" in="SourceGraphic" in2="BackgroundImageFix" result="shape"/>
<feGaussianBlur stdDeviation="2" result="effect1_foregroundBlur_1243_27316"/>
</filter>
<filter id="filter4_f_1243_27316" x="124.383" y="22.3823" width="15" height="15.0005" filterUnits="userSpaceOnUse" color-interpolation-filters="sRGB">
<feFlood flood-opacity="0" result="BackgroundImageFix"/>
<feBlend mode="normal" in="SourceGraphic" in2="BackgroundImageFix" result="shape"/>
<feGaussianBlur stdDeviation="2" result="effect1_foregroundBlur_1243_27316"/>
</filter>
<filter id="filter5_f_1243_27316" x="239.383" y="51.3823" width="15" height="15.0005" filterUnits="userSpaceOnUse" color-interpolation-filters="sRGB">
<feFlood flood-opacity="0" result="BackgroundImageFix"/>
<feBlend mode="normal" in="SourceGraphic" in2="BackgroundImageFix" result="shape"/>
<feGaussianBlur stdDeviation="2" result="effect1_foregroundBlur_1243_27316"/>
</filter>
<filter id="filter6_f_1243_27316" x="32.3828" y="174.382" width="15" height="15.0005" filterUnits="userSpaceOnUse" color-interpolation-filters="sRGB">
<feFlood flood-opacity="0" result="BackgroundImageFix"/>
<feBlend mode="normal" in="SourceGraphic" in2="BackgroundImageFix" result="shape"/>
<feGaussianBlur stdDeviation="2" result="effect1_foregroundBlur_1243_27316"/>
</filter>
<radialGradient id="paint0_radial_1243_27316" cx="0" cy="0" r="1" gradientUnits="userSpaceOnUse" gradientTransform="translate(139.5 96) rotate(90) scale(96 139.5)">
<stop stop-color="white"/>
<stop offset="1" stop-color="white" stop-opacity="0"/>
</radialGradient>
<radialGradient id="paint1_radial_1243_27316" cx="0" cy="0" r="1" gradientUnits="userSpaceOnUse" gradientTransform="translate(125.5 174.5) scale(98.5 12.5)">
<stop stop-color="#061770"/>
<stop offset="1" stop-color="#061770" stop-opacity="0"/>
</radialGradient>
<clipPath id="clip0_1243_27316">
<rect width="279" height="192" fill="white"/>
</clipPath>
</defs>
</svg>
