<svg width="24" height="24" viewBox="0 0 24 24" fill="none" xmlns="http://www.w3.org/2000/svg">
<g id="Mortarboard_fill">
<path id="Vector 443" d="M18.3789 12.5C18.3789 12.7761 18.6028 13 18.8789 13C19.155 13 19.3789 12.7761 19.3789 12.5L18.3789 12.5ZM18.3789 9L18.3789 12.5L19.3789 12.5L19.3789 9L18.3789 9Z" fill="#FF006A"/>
<path id="Subtract" fill-rule="evenodd" clip-rule="evenodd" d="M7.3618 11.681C7.19558 11.5979 7 11.7188 7 11.9046V15.0001C7 15.0001 7 18.0001 12 18.0001C17 18.0001 17 15.0001 17 15.0001V11.9046C17 11.7188 16.8044 11.5979 16.6382 11.681L12.4472 13.7765C12.1657 13.9173 11.8343 13.9173 11.5528 13.7765L7.3618 11.681Z" fill="#FF006A"/>
<path id="Vector 444" d="M4.89443 8.55279L11.7764 5.1118C11.9172 5.04142 12.0828 5.04142 12.2236 5.1118L19.1056 8.55279C19.4741 8.73705 19.4741 9.26295 19.1056 9.44721L12.2236 12.8882C12.0828 12.9586 11.9172 12.9586 11.7764 12.8882L4.89443 9.44721C4.5259 9.26295 4.5259 8.73705 4.89443 8.55279Z" fill="#FF006A"/>
</g>
</svg>
