<svg width="279" height="192" viewBox="0 0 279 192" fill="none" xmlns="http://www.w3.org/2000/svg">
<g clip-path="url(#clip0_1243_27302)">
<rect width="279" height="192" fill="url(#paint0_radial_1243_27302)" fill-opacity="0.8"/>
<ellipse cx="144.5" cy="173.5" rx="98.5" ry="12.5" fill="url(#paint1_radial_1243_27302)" fill-opacity="0.55"/>
<path d="M237.74 36.19C237.74 29.56 233 24.46 226.37 24.46C219.41 24.46 219.41 23.23 212.44 23.23C205.48 23.23 205.48 23.46 198.51 23.46C191.54 23.46 191.55 25.33 184.59 25.33C177.63 25.33 177.63 23.57 170.66 23.57C163.69 23.57 163.69 24.7 156.73 24.7C149.77 24.7 149.77 23 142.8 23C135.83 23 135.83 23.23 128.86 23.23C121.89 23.23 121.89 25.55 114.92 25.55C112.92 25.55 110.24 23.39 108.48 24.34C99.66 29.13 100.14 30.02 91.32 34.81C89.56 35.77 87.82 37.18 85.82 37.18C77.71 37.18 77.71 37.86 69.6 37.86C61.49 37.86 61.49 36.94 53.38 36.94C46.75 36.94 42.86 42.06 42.86 48.68C42.86 56.23 40.33 56.23 40.33 63.77C40.33 71.31 42.66 71.32 42.66 78.87C42.66 86.42 40 86.42 40 93.97C40 101.52 41.39 101.52 41.39 109.07C41.39 116.62 42.06 116.62 42.06 124.17C42.06 130.8 46.76 135.15 53.38 135.15C60.58 135.15 60.58 137.31 67.78 137.31C74.98 137.31 74.98 136.16 82.18 136.16C89.38 136.16 89.38 136.74 96.58 136.74C103.78 136.74 103.78 135.78 110.97 135.78C118.16 135.78 118.17 137.61 125.37 137.61C132.57 137.61 132.57 137.26 139.76 137.26C146.95 137.26 146.96 137.37 154.16 137.37C161.36 137.37 161.36 135.89 168.56 135.89C172.23 135.89 174.84 138.54 177.12 141.43C182.04 147.66 182.34 147.43 187.26 153.66C192.18 159.89 191.89 160.12 196.81 166.36C200.48 171.01 207.35 167.53 206.89 161.62C206.41 155.42 207.13 155.37 206.64 149.17C206.1 142.2 212.35 136.4 219.35 136.4C222.87 136.4 222.87 135.28 226.38 135.28C233.01 135.28 238.82 130.81 238.82 124.18C238.82 116.85 237.51 116.85 237.51 109.51C237.51 102.18 239.51 102.18 239.51 94.85C239.51 87.52 238.35 87.52 238.35 80.18C238.35 72.85 239.16 72.85 239.16 65.52C239.16 58.18 239.85 58.14 239.64 50.81C239.43 43.48 237.75 43.51 237.75 36.17L237.74 36.19Z" fill="#FDD853"/>
<g filter="url(#filter0_f_1243_27302)">
<path d="M237.74 36.19C237.74 29.56 233 24.46 226.37 24.46C219.41 24.46 219.41 23.23 212.44 23.23C205.48 23.23 205.48 23.46 198.51 23.46C191.54 23.46 191.55 25.33 184.59 25.33C177.63 25.33 177.63 23.57 170.66 23.57C163.69 23.57 163.69 24.7 156.73 24.7C149.77 24.7 149.77 23 142.8 23C135.83 23 135.83 23.23 128.86 23.23C121.89 23.23 121.89 25.55 114.92 25.55C112.92 25.55 110.24 23.39 108.48 24.34C99.66 29.13 100.14 30.02 91.32 34.81C89.56 35.77 87.82 37.18 85.82 37.18C77.71 37.18 77.71 37.86 69.6 37.86C61.49 37.86 61.49 36.94 53.38 36.94C46.75 36.94 42.86 42.06 42.86 48.68C42.86 56.23 40.33 56.23 40.33 63.77C40.33 71.31 42.66 71.32 42.66 78.87C42.66 86.42 40 86.42 40 93.97C40 101.52 41.39 101.52 41.39 109.07C41.39 116.62 42.06 116.62 42.06 124.17C42.06 130.8 46.76 135.15 53.38 135.15C60.58 135.15 60.58 137.31 67.78 137.31C74.98 137.31 74.98 136.16 82.18 136.16C89.38 136.16 89.38 136.74 96.58 136.74C103.78 136.74 103.78 135.78 110.97 135.78C118.16 135.78 118.17 137.61 125.37 137.61C132.57 137.61 132.57 137.26 139.76 137.26C146.95 137.26 146.96 137.37 154.16 137.37C161.36 137.37 161.36 135.89 168.56 135.89C172.23 135.89 174.84 138.54 177.12 141.43C182.04 147.66 182.34 147.43 187.26 153.66C192.18 159.89 191.89 160.12 196.81 166.36C200.48 171.01 207.35 167.53 206.89 161.62C206.41 155.42 207.13 155.37 206.64 149.17C206.1 142.2 212.35 136.4 219.35 136.4C222.87 136.4 222.87 135.28 226.38 135.28C233.01 135.28 238.82 130.81 238.82 124.18C238.82 116.85 237.51 116.85 237.51 109.51C237.51 102.18 239.51 102.18 239.51 94.85C239.51 87.52 238.35 87.52 238.35 80.18C238.35 72.85 239.16 72.85 239.16 65.52C239.16 58.18 239.85 58.14 239.64 50.81C239.43 43.48 237.75 43.51 237.75 36.17L237.74 36.19Z" fill="#FDD853" fill-opacity="0.75"/>
</g>
<path d="M87 69C87 69 88.6487 73.5 91 73.5C93.3513 73.5 95 69 95 69" stroke="#272D34" stroke-width="2" stroke-linecap="round" stroke-linejoin="round"/>
<circle cx="72" cy="69" r="7" fill="#FF80B4" fill-opacity="0.55"/>
<circle cx="110" cy="69" r="7" fill="#FF80B4" fill-opacity="0.55"/>
<path d="M73 58L86 61L73 66.5" stroke="#272D34" stroke-width="2" stroke-linecap="round" stroke-linejoin="round"/>
<path d="M109 58L96 61L109 66.5" stroke="#272D34" stroke-width="2" stroke-linecap="round" stroke-linejoin="round"/>
<path d="M257 36C257 36 257.35 45.5 260.241 49.5033C262.813 53.0646 269 54.5 269 54.5C269 54.5 262.813 55.9354 260.241 59.4967C257.35 63.5 257 73 257 73C257 73 256.65 63.5 253.759 59.4967C251.187 55.9354 245 54.5 245 54.5C245 54.5 251.187 53.0646 253.759 49.5033C256.65 45.5 257 36 257 36Z" fill="#3D5BF5" fill-opacity="0.4"/>
<path d="M16 83C16 83 16.3504 92.5 19.2411 96.5033C21.8126 100.065 28 101.5 28 101.5C28 101.5 21.8126 102.935 19.2411 106.497C16.3504 110.5 16 120 16 120C16 120 15.6496 110.5 12.7589 106.497C10.1874 102.935 4 101.5 4 101.5C4 101.5 10.1874 100.065 12.7589 96.5033C15.6496 92.5 16 83 16 83Z" fill="url(#paint2_linear_1243_27302)" fill-opacity="0.35"/>
<path d="M272.5 67C272.5 67 272.719 73.1621 274.526 75.7589C276.133 78.0689 280 79 280 79C280 79 276.133 79.9311 274.526 82.2411C272.719 84.8379 272.5 91 272.5 91C272.5 91 272.281 84.8379 270.474 82.2411C268.867 79.9311 265 79 265 79C265 79 268.867 78.0689 270.474 75.7589C272.281 73.1621 272.5 67 272.5 67Z" fill="url(#paint3_linear_1243_27302)" fill-opacity="0.35"/>
<path d="M26.5 114C26.5 114 26.719 120.162 28.5257 122.759C30.1329 125.069 34 126 34 126C34 126 30.1329 126.931 28.5257 129.241C26.719 131.838 26.5 138 26.5 138C26.5 138 26.281 131.838 24.4743 129.241C22.8671 126.931 19 126 19 126C19 126 22.8671 125.069 24.4743 122.759C26.281 120.162 26.5 114 26.5 114Z" fill="#11EBC5" fill-opacity="0.55"/>
</g>
<defs>
<filter id="filter0_f_1243_27302" x="30" y="13" width="219.68" height="165.513" filterUnits="userSpaceOnUse" color-interpolation-filters="sRGB">
<feFlood flood-opacity="0" result="BackgroundImageFix"/>
<feBlend mode="normal" in="SourceGraphic" in2="BackgroundImageFix" result="shape"/>
<feGaussianBlur stdDeviation="5" result="effect1_foregroundBlur_1243_27302"/>
</filter>
<radialGradient id="paint0_radial_1243_27302" cx="0" cy="0" r="1" gradientUnits="userSpaceOnUse" gradientTransform="translate(139.5 96) rotate(90) scale(96 139.5)">
<stop stop-color="white"/>
<stop offset="1" stop-color="white" stop-opacity="0"/>
</radialGradient>
<radialGradient id="paint1_radial_1243_27302" cx="0" cy="0" r="1" gradientUnits="userSpaceOnUse" gradientTransform="translate(144.5 173.5) scale(98.5 12.5)">
<stop stop-color="#E3B208"/>
<stop offset="1" stop-color="#C29700" stop-opacity="0"/>
</radialGradient>
<linearGradient id="paint2_linear_1243_27302" x1="16" y1="83" x2="16" y2="120" gradientUnits="userSpaceOnUse">
<stop stop-color="#FFCCE1"/>
<stop offset="1" stop-color="#FF006A"/>
</linearGradient>
<linearGradient id="paint3_linear_1243_27302" x1="272.5" y1="67" x2="272.5" y2="91" gradientUnits="userSpaceOnUse">
<stop stop-color="#FFCCE1"/>
<stop offset="1" stop-color="#FF006A"/>
</linearGradient>
<clipPath id="clip0_1243_27302">
<rect width="279" height="192" fill="white"/>
</clipPath>
</defs>
</svg>
