<svg width="318" height="160" viewBox="0 0 318 160" fill="none" xmlns="http://www.w3.org/2000/svg">
<g clip-path="url(#clip0_1814_39156)">
<path d="M84.965 206.446C85.6668 209.208 87.3245 211.428 89.5949 212.771C91.8654 214.113 94.9375 215.809 97.6901 215.109C101.111 214.24 100.666 212.486 104.087 211.617C107.508 210.748 107.599 211.106 111.011 210.239C114.423 209.373 114.326 208.953 117.748 208.084C121.169 207.215 120.994 206.527 124.416 205.658C127.837 204.788 127.98 205.351 131.401 204.481C134.822 203.612 134.926 204.019 138.347 203.15C141.768 202.281 141.795 202.387 145.217 201.518C148.638 200.649 148.493 200.077 151.914 199.208C155.335 198.339 155.269 198.077 158.69 197.208C162.112 196.339 162.272 196.969 165.693 196.1C169.114 195.23 169.567 197.014 172.989 196.144C176.41 195.275 176.016 193.724 179.437 192.855C182.859 191.986 182.625 191.065 186.046 190.196C189.467 189.327 189.581 189.773 193.002 188.904C196.423 188.034 196.901 189.915 200.322 189.045C203.744 188.176 203.707 188.031 207.128 187.162C210.549 186.292 210.239 185.071 213.66 184.202C217.082 183.333 217.027 183.12 220.449 182.25C223.87 181.381 223.969 181.769 227.39 180.9C230.811 180.03 230.663 179.449 234.085 178.58C237.506 177.71 237.861 179.106 241.282 178.237C244.703 177.368 244.536 176.709 247.967 175.837C251.398 174.965 251.413 175.065 254.844 174.193C257.606 173.491 260.146 171.711 261.498 169.438C262.85 167.165 262.339 164.303 261.637 161.541C260.749 158.042 262.716 157.542 261.825 154.033C260.933 150.525 260.965 150.527 260.073 147.019C259.182 143.51 258.07 143.803 257.179 140.294C256.287 136.786 254.962 137.133 254.071 133.624C253.179 130.116 254.161 129.877 253.269 126.368C252.378 122.86 251.033 123.212 250.142 119.703C249.25 116.195 251.695 115.584 250.804 112.075C249.912 108.567 248.895 108.825 248.006 105.326C247.117 101.827 246.552 101.961 245.663 98.4618C244.775 94.9629 244.714 94.968 243.825 91.4691C242.936 87.9703 244.969 87.4435 244.078 83.935C243.186 80.4264 242.324 80.6456 241.432 77.137C240.731 74.3748 238.488 72.169 236.215 70.817C233.943 69.465 230.855 68.2375 228.093 68.9392C225.224 69.6681 225.63 71.2673 222.762 71.9961C220.726 72.5132 218.395 71.826 216.501 71.1517C214.607 70.4774 213.407 68.76 212.161 67.0645C210.549 64.8636 209.923 65.322 208.314 63.1307C206.705 60.9395 206.702 60.9298 205.091 58.7288C203.667 56.7794 201.53 56.7754 199.447 56.1697C197.363 55.5641 194.841 52.9858 192.727 53.8015C190.612 54.6173 190.642 58.0248 189.394 60.096C187.295 63.5698 187.073 63.43 184.984 66.9014C182.894 70.3728 182.714 70.2741 180.613 73.7382C178.511 77.2024 177.001 76.2962 174.902 79.7701C173.499 82.0868 172.237 85.4823 169.61 86.1496C166.102 87.041 165.781 85.781 162.273 86.6724C158.764 87.5637 158.673 87.2051 155.165 88.0965C151.656 88.9879 151.558 88.6002 148.049 89.4916C144.541 90.3829 145.07 92.4667 141.561 93.3581C138.053 94.2495 137.356 91.5066 133.838 92.4004C130.32 93.2943 130.312 93.224 126.804 94.1153C123.295 95.0067 123.408 95.4525 119.9 96.3439C116.391 97.2353 116.573 97.9525 113.065 98.8439C109.556 99.7352 109.47 99.396 105.962 100.287C102.453 101.179 102.882 102.865 99.3633 103.759C95.845 104.653 95.9409 104.99 92.4227 105.883C88.9044 106.777 88.4118 104.798 84.8936 105.691C81.3754 106.585 81.5526 107.283 78.0441 108.174C74.5356 109.066 74.5702 109.243 71.0616 110.134C68.2994 110.836 65.0696 111.687 63.7177 113.96C62.3657 116.233 62.655 119.606 63.3568 122.368C64.2457 125.867 63.7708 125.988 64.6622 129.496C65.5535 133.005 67.6252 132.468 68.5166 135.976C69.4079 139.485 66.8855 140.116 67.7769 143.624C68.6683 147.133 68.4332 147.182 69.3246 150.691C70.2159 154.199 70.7078 154.064 71.5991 157.572C72.4905 161.081 73.8643 160.722 74.7557 164.23C75.647 167.739 75.3635 167.8 76.2549 171.309C77.1463 174.817 77.2238 174.798 78.1127 178.297C79.0016 181.795 79.2367 181.746 80.1256 185.245C81.0145 188.744 80.5808 188.864 81.4697 192.363C82.3586 195.862 82.6494 195.788 83.5698 199.289C84.4903 202.79 84.1026 202.889 84.9939 206.397L84.965 206.446Z" fill="#3D5BF5"/>
<g filter="url(#filter0_f_1814_39156)">
<path d="M84.965 206.446C85.6668 209.208 87.3245 211.428 89.5949 212.771C91.8654 214.113 94.9375 215.809 97.6901 215.109C101.111 214.24 100.666 212.486 104.087 211.617C107.508 210.748 107.599 211.106 111.011 210.239C114.423 209.373 114.326 208.953 117.748 208.084C121.169 207.215 120.994 206.527 124.416 205.658C127.837 204.788 127.98 205.351 131.401 204.481C134.822 203.612 134.926 204.019 138.347 203.15C141.768 202.281 141.795 202.387 145.217 201.518C148.638 200.649 148.493 200.077 151.914 199.208C155.335 198.339 155.269 198.077 158.69 197.208C162.112 196.339 162.272 196.969 165.693 196.1C169.114 195.23 169.567 197.014 172.989 196.144C176.41 195.275 176.016 193.724 179.437 192.855C182.859 191.986 182.625 191.065 186.046 190.196C189.467 189.327 189.581 189.773 193.002 188.904C196.423 188.034 196.901 189.915 200.322 189.045C203.744 188.176 203.707 188.031 207.128 187.162C210.549 186.292 210.239 185.071 213.66 184.202C217.082 183.333 217.027 183.12 220.449 182.25C223.87 181.381 223.969 181.769 227.39 180.9C230.811 180.03 230.663 179.449 234.085 178.58C237.506 177.71 237.861 179.106 241.282 178.237C244.703 177.368 244.536 176.709 247.967 175.837C251.398 174.965 251.413 175.065 254.844 174.193C257.606 173.491 260.146 171.711 261.498 169.438C262.85 167.165 262.339 164.303 261.637 161.541C260.749 158.042 262.716 157.542 261.825 154.033C260.933 150.525 260.965 150.527 260.073 147.019C259.182 143.51 258.07 143.803 257.179 140.294C256.287 136.786 254.962 137.133 254.071 133.624C253.179 130.116 254.161 129.877 253.269 126.368C252.378 122.86 251.033 123.212 250.142 119.703C249.25 116.195 251.695 115.584 250.804 112.075C249.912 108.567 248.895 108.825 248.006 105.326C247.117 101.827 246.552 101.961 245.663 98.4618C244.775 94.9629 244.714 94.968 243.825 91.4691C242.936 87.9703 244.969 87.4435 244.078 83.935C243.186 80.4264 242.324 80.6456 241.432 77.137C240.731 74.3748 238.488 72.169 236.215 70.817C233.943 69.465 230.855 68.2375 228.093 68.9392C225.224 69.6681 225.63 71.2673 222.762 71.9961C220.726 72.5132 218.395 71.826 216.501 71.1517C214.607 70.4774 213.407 68.76 212.161 67.0645C210.549 64.8636 209.923 65.322 208.314 63.1307C206.705 60.9395 206.702 60.9298 205.091 58.7288C203.667 56.7794 201.53 56.7754 199.447 56.1697C197.363 55.5641 194.841 52.9858 192.727 53.8015C190.612 54.6173 190.642 58.0248 189.394 60.096C187.295 63.5698 187.073 63.43 184.984 66.9014C182.894 70.3728 182.714 70.2741 180.613 73.7382C178.511 77.2024 177.001 76.2962 174.902 79.7701C173.499 82.0868 172.237 85.4823 169.61 86.1496C166.102 87.041 165.781 85.781 162.273 86.6724C158.764 87.5637 158.673 87.2051 155.165 88.0965C151.656 88.9879 151.558 88.6002 148.049 89.4916C144.541 90.3829 145.07 92.4667 141.561 93.3581C138.053 94.2495 137.356 91.5066 133.838 92.4004C130.32 93.2943 130.312 93.224 126.804 94.1153C123.295 95.0067 123.408 95.4525 119.9 96.3439C116.391 97.2353 116.573 97.9525 113.065 98.8439C109.556 99.7352 109.47 99.396 105.962 100.287C102.453 101.179 102.882 102.865 99.3633 103.759C95.845 104.653 95.9409 104.99 92.4227 105.883C88.9044 106.777 88.4118 104.798 84.8936 105.691C81.3754 106.585 81.5526 107.283 78.0441 108.174C74.5356 109.066 74.5702 109.243 71.0616 110.134C68.2994 110.836 65.0696 111.687 63.7177 113.96C62.3657 116.233 62.655 119.606 63.3568 122.368C64.2457 125.867 63.7708 125.988 64.6622 129.496C65.5535 133.005 67.6252 132.468 68.5166 135.976C69.4079 139.485 66.8855 140.116 67.7769 143.624C68.6683 147.133 68.4332 147.182 69.3246 150.691C70.2159 154.199 70.7078 154.064 71.5991 157.572C72.4905 161.081 73.8643 160.722 74.7557 164.23C75.647 167.739 75.3635 167.8 76.2549 171.309C77.1463 174.817 77.2238 174.798 78.1127 178.297C79.0016 181.795 79.2367 181.746 80.1256 185.245C81.0145 188.744 80.5808 188.864 81.4697 192.363C82.3586 195.862 82.6494 195.788 83.5698 199.289C84.4903 202.79 84.1026 202.889 84.9939 206.397L84.965 206.446Z" fill="#3D5BF5"/>
</g>
<path d="M198.167 111.044L185.894 118.119" stroke="black" stroke-width="2.13084" stroke-linecap="round"/>
<path d="M195.572 107.745L190.209 110.867" stroke="black" stroke-width="1.2785" stroke-linecap="round"/>
<path d="M208.56 108.403L222.722 108.762" stroke="black" stroke-width="2.13084" stroke-linecap="round"/>
<path d="M209.268 104.266L215.471 104.449" stroke="black" stroke-width="1.2785" stroke-linecap="round"/>
<path d="M198.598 118.739C201.607 121.932 211.52 119.413 211.815 115.381" stroke="black" stroke-width="1.70467" stroke-linecap="round"/>
<g filter="url(#filter1_f_1814_39156)">
<circle cx="103.377" cy="51.2062" r="6.5" transform="rotate(-14.2548 103.377 51.2062)" fill="#B2BDFB"/>
</g>
<g filter="url(#filter2_f_1814_39156)">
<circle cx="293.846" cy="134.882" r="6.5" transform="rotate(-14.2548 293.846 134.882)" fill="#B2BDFB"/>
</g>
<g filter="url(#filter3_f_1814_39156)">
<circle cx="135.179" cy="65.1875" r="3.5" transform="rotate(-49.7931 135.179 65.1875)" fill="#3D5BF5"/>
</g>
<g filter="url(#filter4_f_1814_39156)">
<circle cx="253.78" cy="64.978" r="3.5" transform="rotate(-49.7931 253.78 64.978)" fill="#3D5BF5"/>
</g>
<path d="M45.5205 107.291L45.9401 108.943C46.0504 109.377 45.9879 109.781 45.7527 110.154C45.5368 110.539 45.2118 110.787 44.7776 110.897L36.2408 113.066L35.8389 111.484L38.9178 100.698L33.5933 102.645L32.8546 99.7375L42.2294 95.9939L42.6726 97.7384L39.2873 109.073L45.5205 107.291Z" fill="#3D5BF5"/>
<path d="M71.1651 90.4583L71.5847 92.1098C71.695 92.544 71.6325 92.9479 71.3972 93.3213C71.1813 93.7063 70.8563 93.954 70.4221 94.0643L61.8853 96.2331L61.4834 94.6513L64.5623 83.8651L59.2378 85.8121L58.4991 82.9045L67.8739 79.1608L68.3171 80.9054L64.9319 92.24L71.1651 90.4583Z" fill="#FF80B4"/>
<path d="M57.0423 92.2949L57.9004 93.7671C58.126 94.1542 58.1771 94.5596 58.0537 94.9834C57.9522 95.4129 57.7079 95.7405 57.3208 95.9661L49.711 100.401L48.8892 98.9913L48.8796 87.7743L44.2969 91.1119L42.7862 88.52L50.7681 82.3401L51.6745 83.8952L51.5405 95.7238L57.0423 92.2949Z" fill="#11EBC5" fill-opacity="0.55"/>
</g>
<defs>
<filter id="filter0_f_1814_39156" x="52.7656" y="43.6436" width="219.578" height="181.629" filterUnits="userSpaceOnUse" color-interpolation-filters="sRGB">
<feFlood flood-opacity="0" result="BackgroundImageFix"/>
<feBlend mode="normal" in="SourceGraphic" in2="BackgroundImageFix" result="shape"/>
<feGaussianBlur stdDeviation="5" result="effect1_foregroundBlur_1814_39156"/>
</filter>
<filter id="filter1_f_1814_39156" x="92.875" y="40.7046" width="21.0039" height="21.0029" filterUnits="userSpaceOnUse" color-interpolation-filters="sRGB">
<feFlood flood-opacity="0" result="BackgroundImageFix"/>
<feBlend mode="normal" in="SourceGraphic" in2="BackgroundImageFix" result="shape"/>
<feGaussianBlur stdDeviation="2" result="effect1_foregroundBlur_1814_39156"/>
</filter>
<filter id="filter2_f_1814_39156" x="283.344" y="124.381" width="21.0039" height="21.0029" filterUnits="userSpaceOnUse" color-interpolation-filters="sRGB">
<feFlood flood-opacity="0" result="BackgroundImageFix"/>
<feBlend mode="normal" in="SourceGraphic" in2="BackgroundImageFix" result="shape"/>
<feGaussianBlur stdDeviation="2" result="effect1_foregroundBlur_1814_39156"/>
</filter>
<filter id="filter3_f_1814_39156" x="127.68" y="57.6875" width="15" height="15" filterUnits="userSpaceOnUse" color-interpolation-filters="sRGB">
<feFlood flood-opacity="0" result="BackgroundImageFix"/>
<feBlend mode="normal" in="SourceGraphic" in2="BackgroundImageFix" result="shape"/>
<feGaussianBlur stdDeviation="2" result="effect1_foregroundBlur_1814_39156"/>
</filter>
<filter id="filter4_f_1814_39156" x="246.281" y="57.478" width="15" height="15" filterUnits="userSpaceOnUse" color-interpolation-filters="sRGB">
<feFlood flood-opacity="0" result="BackgroundImageFix"/>
<feBlend mode="normal" in="SourceGraphic" in2="BackgroundImageFix" result="shape"/>
<feGaussianBlur stdDeviation="2" result="effect1_foregroundBlur_1814_39156"/>
</filter>
<clipPath id="clip0_1814_39156">
<rect width="279" height="192" fill="white" transform="translate(0 68.6992) rotate(-14.2548)"/>
</clipPath>
</defs>
</svg>
