<svg width="24" height="25" viewBox="0 0 24 25" fill="none" xmlns="http://www.w3.org/2000/svg">
<g id="Mortarboard_fill">
<path id="Vector 443" d="M18.3789 13C18.3789 13.2761 18.6028 13.5 18.8789 13.5C19.155 13.5 19.3789 13.2761 19.3789 13L18.3789 13ZM18.3789 9.5L18.3789 13L19.3789 13L19.3789 9.5L18.3789 9.5Z" fill="#373F48"/>
<path id="Subtract" fill-rule="evenodd" clip-rule="evenodd" d="M7.3618 12.181C7.19558 12.0979 7 12.2188 7 12.4046V15.5001C7 15.5001 7 18.5001 12 18.5001C17 18.5001 17 15.5001 17 15.5001V12.4046C17 12.2188 16.8044 12.0979 16.6382 12.181L12.4472 14.2765C12.1657 14.4173 11.8343 14.4173 11.5528 14.2765L7.3618 12.181Z" fill="#373F48"/>
<path id="Vector 444" d="M4.89443 9.05279L11.7764 5.6118C11.9172 5.54142 12.0828 5.54142 12.2236 5.6118L19.1056 9.05279C19.4741 9.23705 19.4741 9.76295 19.1056 9.94721L12.2236 13.3882C12.0828 13.4586 11.9172 13.4586 11.7764 13.3882L4.89443 9.94721C4.5259 9.76295 4.5259 9.23705 4.89443 9.05279Z" fill="#373F48"/>
</g>
</svg>
