<svg width="279" height="122" viewBox="0 0 279 122" fill="none" xmlns="http://www.w3.org/2000/svg">
<rect width="279" height="192" fill="url(#paint0_radial_1814_39202)" fill-opacity="0.8"/>
<path d="M222.92 51.9822C222.92 46.7907 217.495 43.4941 212.295 43.4941C205.987 43.4941 205.987 41.1319 199.679 41.1319C193.372 41.1319 193.372 42.9749 187.064 42.9749C184.883 42.9749 182.634 41.9886 180.955 40.6041C175.106 35.7933 174.44 36.6067 168.591 31.7958C162.742 26.985 164.186 25.2372 158.337 20.4264C156.659 19.042 153.907 21.0321 151.727 21.0321C145.644 21.0321 145.644 19.1458 139.561 19.1458C133.479 19.1458 133.479 18.1681 127.396 18.1681C121.313 18.1681 121.313 20.3226 115.23 20.3226C109.148 20.3226 109.148 17.2769 103.065 17.2769C96.9822 17.2769 96.9822 18.1421 90.8994 18.1421C84.8167 18.1421 84.8167 21.1186 78.7253 21.1186C72.6339 21.1186 72.6425 17 66.5512 17C61.3596 17 55.5105 23.2644 55.5105 28.456C55.5105 34.4608 57.5958 34.4608 57.5958 40.457C57.5958 46.4533 57.466 46.4619 57.466 52.4581C57.466 58.4543 58.1755 58.463 58.1755 64.4592C58.1755 70.4554 56.7046 70.4554 56.7046 76.4603C56.7046 82.4652 57.1112 82.4652 57.1112 88.4614C57.1112 94.4576 55.9518 94.4663 55.9518 100.471C55.9518 106.476 58.2447 106.476 58.2447 112.472C58.2447 118.468 57.1718 118.477 57.1718 124.482C57.1718 130.487 55 130.487 55 136.492C55 139.961 58.9542 143.379 62.0345 144.988C66.0147 147.065 70.4967 147.636 74.2346 149.384C78.2927 151.288 82.1171 153.061 85.9761 154.55C90.138 156.15 93.4 160.018 97.4234 161.108C101.663 162.25 106.266 161.541 110.48 162.077C114.729 162.622 118.934 160.849 123.286 160.727C127.638 160.606 131.895 162.925 136.282 162.164C140.331 161.463 144.164 159.066 148.491 157.777C152.41 156.617 157.368 157.708 161.591 156.046C165.398 154.55 169.283 152.438 173.375 150.517C176.413 149.09 178.186 149.765 180.912 151.495C182.037 152.213 185.524 146.416 186.25 147.532C190.542 153.087 189.054 154.238 193.397 159.75C197.732 165.27 199.299 164.024 203.668 169.51C205.381 171.526 207.155 171.855 207.631 169.259C207.25 164.18 207.847 164.145 207.406 159.066C207.787 156.998 208.41 153.555 208.963 150.05C209.604 145.975 209.067 139.909 211.516 139.909C211.905 139.909 211.905 142.254 212.303 142.254C217.495 142.254 223.041 137.841 223.041 132.65C223.041 125.927 223.699 125.927 223.699 119.195C223.699 112.472 222.167 112.472 222.167 105.749C222.167 99.0261 222.47 99.0261 222.47 92.2945C222.47 85.5714 221.371 85.5714 221.371 78.8398C221.371 72.1081 219.303 71.9783 219.71 65.2639C220.117 58.5495 222.929 58.6534 222.929 51.9303L222.92 51.9822Z" fill="#11EBC5"/>
<g filter="url(#filter0_f_1814_39202)">
<path d="M222.92 51.9822C222.92 46.7907 217.495 43.4941 212.295 43.4941C205.987 43.4941 205.987 41.1319 199.679 41.1319C193.372 41.1319 193.372 42.9749 187.064 42.9749C184.883 42.9749 182.634 41.9886 180.955 40.6041C175.106 35.7933 174.44 36.6067 168.591 31.7958C162.742 26.985 164.186 25.2372 158.337 20.4264C156.659 19.042 153.907 21.0321 151.727 21.0321C145.644 21.0321 145.644 19.1458 139.561 19.1458C133.479 19.1458 133.479 18.1681 127.396 18.1681C121.313 18.1681 121.313 20.3226 115.23 20.3226C109.148 20.3226 109.148 17.2769 103.065 17.2769C96.9822 17.2769 96.9822 18.1421 90.8994 18.1421C84.8167 18.1421 84.8167 21.1186 78.7253 21.1186C72.6339 21.1186 72.6425 17 66.5512 17C61.3596 17 55.5105 23.2644 55.5105 28.456C55.5105 34.4608 57.5958 34.4608 57.5958 40.457C57.5958 46.4533 57.466 46.4619 57.466 52.4581C57.466 58.4543 58.1755 58.463 58.1755 64.4592C58.1755 70.4554 56.7046 70.4554 56.7046 76.4603C56.7046 82.4652 57.1112 82.4652 57.1112 88.4614C57.1112 94.4576 55.9518 94.4663 55.9518 100.471C55.9518 106.476 58.2447 106.476 58.2447 112.472C58.2447 118.468 57.1718 118.477 57.1718 124.482C57.1718 130.487 55 130.487 55 136.492C55 139.961 58.9542 143.379 62.0345 144.988C66.0147 147.065 70.4967 147.636 74.2346 149.384C78.2927 151.288 82.1171 153.061 85.9761 154.55C90.138 156.15 93.4 160.018 97.4234 161.108C101.663 162.25 106.266 161.541 110.48 162.077C114.729 162.622 118.934 160.849 123.286 160.727C127.638 160.606 131.895 162.925 136.282 162.164C140.331 161.463 144.164 159.066 148.491 157.777C152.41 156.617 157.368 157.708 161.591 156.046C165.398 154.55 169.283 152.438 173.375 150.517C176.413 149.09 178.186 149.765 180.912 151.495C182.037 152.213 185.524 146.416 186.25 147.532C190.542 153.087 189.054 154.238 193.397 159.75C197.732 165.27 199.299 164.024 203.668 169.51C205.381 171.526 207.155 171.855 207.631 169.259C207.25 164.18 207.847 164.145 207.406 159.066C207.787 156.998 208.41 153.555 208.963 150.05C209.604 145.975 209.067 139.909 211.516 139.909C211.905 139.909 211.905 142.254 212.303 142.254C217.495 142.254 223.041 137.841 223.041 132.65C223.041 125.927 223.699 125.927 223.699 119.195C223.699 112.472 222.167 112.472 222.167 105.749C222.167 99.0261 222.47 99.0261 222.47 92.2945C222.47 85.5714 221.371 85.5714 221.371 78.8398C221.371 72.1081 219.303 71.9783 219.71 65.2639C220.117 58.5495 222.929 58.6534 222.929 51.9303L222.92 51.9822Z" fill="#11EBC5"/>
</g>
<path d="M90.4766 100.277C93.9376 104.171 98.6965 100.512 102.59 100.709C106.484 100.907 110.81 104.171 114.271 100.709" stroke="#1A1E22" stroke-width="1.63612" stroke-linecap="round" stroke-linejoin="round"/>
<ellipse cx="96.5333" cy="91.6242" rx="2.59576" ry="5.62416" fill="#272D34"/>
<ellipse cx="107.779" cy="91.6242" rx="2.59576" ry="5.62416" fill="#272D34"/>
<path d="M19.2987 16.4311C20.1878 12.4841 25.8122 12.4841 26.7013 16.4311C27.0233 17.8605 28.1395 18.9767 29.5689 19.2987C33.5159 20.1878 33.5159 25.8122 29.5689 26.7013C28.1395 27.0233 27.0233 28.1395 26.7013 29.5689C25.8122 33.5159 20.1878 33.5159 19.2987 29.5689C18.9767 28.1395 17.8605 27.0233 16.4311 26.7013C12.4841 25.8122 12.4841 20.1878 16.4311 19.2987C17.8605 18.9767 18.9767 17.8605 19.2987 16.4311Z" fill="#3D5BF5"/>
<path d="M252.299 78.4311C253.188 74.4841 258.812 74.4841 259.701 78.4311C260.023 79.8605 261.139 80.9767 262.569 81.2987C266.516 82.1878 266.516 87.8122 262.569 88.7013C261.139 89.0233 260.023 90.1395 259.701 91.5689C258.812 95.5159 253.188 95.5159 252.299 91.5689C251.977 90.1395 250.861 89.0233 249.431 88.7013C245.484 87.8122 245.484 82.1878 249.431 81.2987C250.861 80.9767 251.977 79.8605 252.299 78.4311Z" fill="#FF80B4"/>
<path d="M41.3275 44.6444C41.8494 42.3276 45.1506 42.3276 45.6725 44.6444C45.8615 45.4833 46.5167 46.1385 47.3556 46.3275C49.6724 46.8494 49.6724 50.1506 47.3556 50.6725C46.5167 50.8615 45.8615 51.5167 45.6725 52.3556C45.1506 54.6724 41.8494 54.6724 41.3275 52.3556C41.1385 51.5167 40.4833 50.8615 39.6444 50.6725C37.3276 50.1506 37.3276 46.8494 39.6444 46.3275C40.4833 46.1385 41.1385 45.4833 41.3275 44.6444Z" fill="#FFCCE1"/>
<path d="M230.327 19.6444C230.849 17.3276 234.151 17.3276 234.673 19.6444C234.861 20.4833 235.517 21.1385 236.356 21.3275C238.672 21.8494 238.672 25.1506 236.356 25.6725C235.517 25.8615 234.861 26.5167 234.673 27.3556C234.151 29.6724 230.849 29.6724 230.327 27.3556C230.139 26.5167 229.483 25.8615 228.644 25.6725C226.328 25.1506 226.328 21.8494 228.644 21.3275C229.483 21.1385 230.139 20.4833 230.327 19.6444Z" fill="#FF006A"/>
<path d="M27.4252 124.43C28.0437 121.685 31.9563 121.685 32.5748 124.43C32.7988 125.425 33.5753 126.201 34.5696 126.425C37.3154 127.044 37.3154 130.956 34.5696 131.575C33.5753 131.799 32.7988 132.575 32.5748 133.57C31.9563 136.315 28.0437 136.315 27.4252 133.57C27.2012 132.575 26.4247 131.799 25.4304 131.575C22.6846 130.956 22.6846 127.044 25.4304 126.425C26.4247 126.201 27.2012 125.425 27.4252 124.43Z" fill="#FDD853"/>
<defs>
<filter id="filter0_f_1814_39202" x="46.3475" y="8.34745" width="186.004" height="171.419" filterUnits="userSpaceOnUse" color-interpolation-filters="sRGB">
<feFlood flood-opacity="0" result="BackgroundImageFix"/>
<feBlend mode="normal" in="SourceGraphic" in2="BackgroundImageFix" result="shape"/>
<feGaussianBlur stdDeviation="4.32627" result="effect1_foregroundBlur_1814_39202"/>
</filter>
<radialGradient id="paint0_radial_1814_39202" cx="0" cy="0" r="1" gradientUnits="userSpaceOnUse" gradientTransform="translate(139.5 96) rotate(90) scale(96 139.5)">
<stop stop-color="white"/>
<stop offset="1" stop-color="white" stop-opacity="0"/>
</radialGradient>
</defs>
</svg>
