<svg width="279" height="110" viewBox="0 0 279 110" fill="none" xmlns="http://www.w3.org/2000/svg">
<rect width="279" height="192" fill="url(#paint0_radial_1814_39177)" fill-opacity="0.55"/>
<path d="M224.45 32.98C224.45 26.35 216.22 18.71 209.59 18.71C202.64 18.71 202.64 21.61 195.69 21.61C188.74 21.61 188.74 21.43 181.79 21.43C174.84 21.43 174.84 22.42 167.89 22.42C160.94 22.42 160.94 20.37 153.99 20.37C147.04 20.37 147.04 20.94 140.1 20.94C133.16 20.94 133.15 19.33 126.2 19.33C119.25 19.33 119.25 22.52 112.3 22.52C105.35 22.52 105.35 21.03 98.4 21.03C91.45 21.03 91.45 18 84.5 18C77.55 18 77.55 20.61 70.59 20.61C63.96 20.61 60.3 26.35 60.3 32.98C60.3 40.19 60.15 40.19 60.15 47.41C60.15 54.63 56.48 54.62 56.48 61.83C56.48 69.04 58.74 69.04 58.74 76.25C58.74 83.46 61.52 83.46 61.52 90.68C61.52 97.9 57.68 97.89 57.68 105.1C57.68 112.31 59.7 112.32 59.7 119.53C59.7 126.74 56 126.76 56 133.98C56 140.61 63.97 148.03 70.59 148.03C74.04 148.03 74.04 148.87 77.49 148.87C82.39 148.87 89.18 147.99 91.01 152.53C93.38 158.42 90.88 159.42 93.25 165.31C94.85 169.28 98.88 173.1 102.61 173.87C106.34 174.64 109.89 172.35 112.94 169.34C117.98 164.37 119.17 165.57 124.21 160.6C129.25 155.63 129.69 156.07 134.73 151.09C136.97 148.88 138.36 142.99 141.52 142.99C148.33 142.99 148.33 146.26 155.13 146.26C161.93 146.26 161.94 147.84 168.74 147.84C175.54 147.84 175.55 148.75 182.35 148.75C189.15 148.75 189.16 146.62 195.97 146.62C202.78 146.62 202.78 147.04 209.59 147.04C216.4 147.04 221.12 140.61 221.12 133.98C221.12 126.77 218.8 126.77 218.8 119.55C218.8 112.33 222.05 112.34 222.05 105.12C222.05 97.9 220.31 97.91 220.31 90.7C220.31 83.49 221.08 83.49 221.08 76.27C221.08 69.05 222.57 69.06 222.57 61.85C222.57 54.63 218.07 54.23 219.01 47.08C219.95 39.93 224.45 40.2 224.45 32.99V32.98Z" fill="#FF80B4"/>
<g filter="url(#filter0_f_1814_39177)">
<path d="M224.45 32.98C224.45 26.35 216.22 18.71 209.59 18.71C202.64 18.71 202.64 21.61 195.69 21.61C188.74 21.61 188.74 21.43 181.79 21.43C174.84 21.43 174.84 22.42 167.89 22.42C160.94 22.42 160.94 20.37 153.99 20.37C147.04 20.37 147.04 20.94 140.1 20.94C133.16 20.94 133.15 19.33 126.2 19.33C119.25 19.33 119.25 22.52 112.3 22.52C105.35 22.52 105.35 21.03 98.4 21.03C91.45 21.03 91.45 18 84.5 18C77.55 18 77.55 20.61 70.59 20.61C63.96 20.61 60.3 26.35 60.3 32.98C60.3 40.19 60.15 40.19 60.15 47.41C60.15 54.63 56.48 54.62 56.48 61.83C56.48 69.04 58.74 69.04 58.74 76.25C58.74 83.46 61.52 83.46 61.52 90.68C61.52 97.9 57.68 97.89 57.68 105.1C57.68 112.31 59.7 112.32 59.7 119.53C59.7 126.74 56 126.76 56 133.98C56 140.61 63.97 148.03 70.59 148.03C74.04 148.03 74.04 148.87 77.49 148.87C82.39 148.87 89.18 147.99 91.01 152.53C93.38 158.42 90.88 159.42 93.25 165.31C94.85 169.28 98.88 173.1 102.61 173.87C106.34 174.64 109.89 172.35 112.94 169.34C117.98 164.37 119.17 165.57 124.21 160.6C129.25 155.63 129.69 156.07 134.73 151.09C136.97 148.88 138.36 142.99 141.52 142.99C148.33 142.99 148.33 146.26 155.13 146.26C161.93 146.26 161.94 147.84 168.74 147.84C175.54 147.84 175.55 148.75 182.35 148.75C189.15 148.75 189.16 146.62 195.97 146.62C202.78 146.62 202.78 147.04 209.59 147.04C216.4 147.04 221.12 140.61 221.12 133.98C221.12 126.77 218.8 126.77 218.8 119.55C218.8 112.33 222.05 112.34 222.05 105.12C222.05 97.9 220.31 97.91 220.31 90.7C220.31 83.49 221.08 83.49 221.08 76.27C221.08 69.05 222.57 69.06 222.57 61.85C222.57 54.63 218.07 54.23 219.01 47.08C219.95 39.93 224.45 40.2 224.45 32.99V32.98Z" fill="url(#paint1_linear_1814_39177)" fill-opacity="0.35"/>
</g>
<path d="M238.352 53.4489C239.26 53.3353 238.861 51.5295 238.861 50.8743C238.861 48.7164 238.952 47.3778 240.162 45.527C241.923 42.8341 244.35 41.7358 247.518 41.7358" stroke="#FDD853" stroke-width="3" stroke-linecap="round"/>
<circle opacity="0.5" cx="161.044" cy="43.8443" r="4.9075" transform="rotate(12.3613 161.044 43.8443)" fill="#FF006A"/>
<circle opacity="0.5" cx="201.981" cy="53.5342" r="4.9075" transform="rotate(12.3613 201.981 53.5342)" fill="#FF006A"/>
<path d="M160.895 44.5293C162.215 58.2209 194.701 65.3304 201.984 53.5342" stroke="#121212" stroke-width="2.10321" stroke-linecap="round"/>
<path d="M169.152 43.0884C169.608 47.953 176.305 49.3262 178.08 44.9193" stroke="black" stroke-width="2.10321" stroke-linecap="round"/>
<path d="M184.258 46.187C184.714 51.0516 191.41 52.4248 193.186 48.0179" stroke="black" stroke-width="2.10321" stroke-linecap="round"/>
<circle cx="251.5" cy="20.5" r="3.5" fill="#FF80B4"/>
<circle cx="52" cy="17" r="4" fill="#3D5BF5"/>
<path d="M240 84C240 84 242.738 78.6368 246 77.5C249.58 76.2524 252.155 81.2839 255.5 79.5C258.13 78.0976 259.5 73 259.5 73" stroke="#3D5BF5" stroke-width="3" stroke-linecap="round"/>
<path d="M25 82.102C25 82.102 27 80.602 29 81.102C31 81.6021 33.7469 85.7469 37.5 85.602C39.7838 85.5139 43 83.602 43 83.602" stroke="#FF80B4" stroke-width="3" stroke-linecap="round"/>
<circle cx="21.5" cy="62.5" r="3.5" fill="#11EBC5"/>
<path d="M5 35.5001C5 35.5001 9.46407 33.4071 12 34.5001C15.4632 35.9927 12.1391 41.7897 15.5 43.5001C18.7088 45.1331 24.5 41.5001 24.5 41.5001" stroke="#FDD853" stroke-width="3" stroke-linecap="round"/>
<defs>
<filter id="filter0_f_1814_39177" x="46" y="8" width="188.449" height="176.021" filterUnits="userSpaceOnUse" color-interpolation-filters="sRGB">
<feFlood flood-opacity="0" result="BackgroundImageFix"/>
<feBlend mode="normal" in="SourceGraphic" in2="BackgroundImageFix" result="shape"/>
<feGaussianBlur stdDeviation="5" result="effect1_foregroundBlur_1814_39177"/>
</filter>
<radialGradient id="paint0_radial_1814_39177" cx="0" cy="0" r="1" gradientUnits="userSpaceOnUse" gradientTransform="translate(139.5 96) rotate(90) scale(96 139.5)">
<stop stop-color="white"/>
<stop offset="1" stop-color="white" stop-opacity="0"/>
</radialGradient>
<linearGradient id="paint1_linear_1814_39177" x1="140.225" y1="18" x2="140.225" y2="174.02" gradientUnits="userSpaceOnUse">
<stop stop-color="#FFCCE1"/>
<stop offset="1" stop-color="#FF006A"/>
</linearGradient>
</defs>
</svg>
