<svg width="341" height="84" viewBox="0 0 341 84" fill="none" xmlns="http://www.w3.org/2000/svg">
<g filter="url(#filter0_d_802_25902)">
<path d="M4 13.3046C4 11.0389 5.83678 9.20207 8.10256 9.20207H12.0169C12.0957 9.20207 12.1702 9.16579 12.2188 9.10368L15.8089 4.51608C16.0142 4.25371 16.4113 4.25371 16.6166 4.51608L20.2066 9.10368C20.2552 9.16579 20.3297 9.20207 20.4086 9.20207H332.897C335.163 9.20207 337 11.0389 337 13.3046V75.8974C337 78.1632 335.163 80 332.897 80H8.10257C5.83679 80 4 78.1632 4 75.8974V13.3046Z" fill="white"/>
<path d="M4.5 13.3046C4.5 11.315 6.11292 9.70207 8.10256 9.70207H12.0169C12.2495 9.70207 12.4692 9.59503 12.6126 9.41183L16.2026 4.82422L15.8089 4.51608L16.2026 4.82422C16.2041 4.82235 16.2051 4.82152 16.2054 4.82122L16.2067 4.82045C16.2077 4.81997 16.2098 4.8193 16.2127 4.8193C16.2157 4.8193 16.2178 4.81997 16.2188 4.82045L16.22 4.82122C16.2202 4.82137 16.2205 4.82165 16.221 4.82212C16.2215 4.8226 16.2221 4.82328 16.2228 4.82422L16.6166 4.51608L16.2228 4.82422L19.8129 9.41182C19.8129 9.41182 19.8129 9.41182 19.8129 9.41182C19.9562 9.59503 20.1759 9.70207 20.4086 9.70207H332.897C334.887 9.70207 336.5 11.315 336.5 13.3046V75.8974C336.5 77.8871 334.887 79.5 332.897 79.5H8.10257C6.11293 79.5 4.5 77.8871 4.5 75.8974V13.3046Z" stroke="#DEE3EA"/>
</g>
<defs>
<filter id="filter0_d_802_25902" x="-8" y="-7.68066" width="357" height="99.6807" filterUnits="userSpaceOnUse" color-interpolation-filters="sRGB">
<feFlood flood-opacity="0" result="BackgroundImageFix"/>
<feColorMatrix in="SourceAlpha" type="matrix" values="0 0 0 0 0 0 0 0 0 0 0 0 0 0 0 0 0 0 127 0" result="hardAlpha"/>
<feOffset/>
<feGaussianBlur stdDeviation="6"/>
<feComposite in2="hardAlpha" operator="out"/>
<feColorMatrix type="matrix" values="0 0 0 0 0 0 0 0 0 0 0 0 0 0 0 0 0 0 0.08 0"/>
<feBlend mode="normal" in2="BackgroundImageFix" result="effect1_dropShadow_802_25902"/>
<feBlend mode="normal" in="SourceGraphic" in2="effect1_dropShadow_802_25902" result="shape"/>
</filter>
</defs>
</svg>
