<svg width="20" height="20" viewBox="0 0 20 20" fill="none" xmlns="http://www.w3.org/2000/svg">
<path d="M10 20C8.2 20 6.53333 19.55 5 18.65C3.46667 17.75 2.25 16.5333 1.35 15C0.45 13.4667 5.96046e-08 11.8 5.96046e-08 10C5.96046e-08 8.2 0.45 6.53333 1.35 5C2.25 3.45 3.46667 2.23333 5 1.35C6.53333 0.449999 8.2 -4.76837e-07 10 -4.76837e-07C11.8 -4.76837e-07 13.4667 0.449999 15 1.35C16.55 2.23333 17.7667 3.45 18.65 5C19.55 6.53333 20 8.2 20 10C20 11.8 19.55 13.4667 18.65 15C17.7667 16.5333 16.55 17.75 15 18.65C13.4667 19.55 11.8 20 10 20ZM10 18C11.4833 18 12.8333 17.65 14.05 16.95C15.2833 16.25 16.25 15.2917 16.95 14.075C17.65 12.8417 18 11.4833 18 10C18 8.51667 17.65 7.16667 16.95 5.95C16.25 4.71667 15.2833 3.75 14.05 3.05C12.8333 2.35 11.4833 2 10 2C8.51667 2 7.15833 2.35 5.925 3.05C4.70833 3.75 3.75 4.71667 3.05 5.95C2.35 7.16667 2 8.51667 2 10C2 11.4833 2.35 12.8417 3.05 14.075C3.75 15.2917 4.70833 16.25 5.925 16.95C7.15833 17.65 8.51667 18 10 18ZM9 11C9 10.5833 9.06667 10.2167 9.2 9.9C9.35 9.56667 9.53333 9.28333 9.75 9.05C9.98333 8.8 10.275 8.53333 10.625 8.25L10.7 8.175C11.0167 7.925 11.225 7.73333 11.325 7.6C11.4417 7.45 11.5 7.25 11.5 7C11.5 6.66667 11.375 6.41667 11.125 6.25C10.8917 6.08333 10.5167 6 10 6C9.48333 6 9.1 6.08333 8.85 6.25C8.61667 6.41667 8.5 6.66667 8.5 7C8.5 7.41667 8.33333 7.70833 8 7.875C7.66667 8.025 7.33333 8.025 7 7.875C6.66667 7.70833 6.5 7.41667 6.5 7C6.5 6.46667 6.65 5.975 6.95 5.525C7.26667 5.05833 7.69167 4.69167 8.225 4.425C8.75833 4.14167 9.35 4 10 4C10.65 4 11.2417 4.14167 11.775 4.425C12.3083 4.69167 12.725 5.05833 13.025 5.525C13.3417 5.975 13.5 6.46667 13.5 7C13.5 7.6 13.3667 8.10833 13.1 8.525C12.8333 8.94167 12.45 9.34167 11.95 9.725L11.8 9.85C11.6167 10 11.4667 10.1333 11.35 10.25C11.2333 10.3667 11.1417 10.4833 11.075 10.6C11.025 10.7167 11 10.85 11 11C11 11.4167 10.8333 11.7083 10.5 11.875C10.1667 12.025 9.83333 12.025 9.5 11.875C9.16667 11.7083 9 11.4167 9 11ZM11.5 14.5C11.5 14.9167 11.35 15.275 11.05 15.575C10.7667 15.8583 10.4167 16 10 16C9.58333 16 9.225 15.8583 8.925 15.575C8.64167 15.275 8.5 14.9167 8.5 14.5C8.5 14.0833 8.64167 13.7333 8.925 13.45C9.225 13.15 9.58333 13 10 13C10.4167 13 10.7667 13.15 11.05 13.45C11.35 13.7333 11.5 14.0833 11.5 14.5Z" fill="#6B7785"/>
</svg>
