<svg width="18" height="18" viewBox="0 0 18 18" fill="none" xmlns="http://www.w3.org/2000/svg">
<g id="Star">
<path id="Star_default" d="M8.55163 2.03827C8.73504 1.66665 9.26496 1.66664 9.44837 2.03827L10.964 5.10926C11.1825 5.55198 11.6048 5.85883 12.0934 5.92983L15.4824 6.42228C15.8926 6.48188 16.0563 6.98586 15.7596 7.27513L13.3072 9.66557C12.9537 10.0102 12.7924 10.5067 12.8758 10.9933L13.4547 14.3686C13.5248 14.7771 13.0961 15.0885 12.7293 14.8957L9.69801 13.3021C9.26103 13.0723 8.73897 13.0723 8.30199 13.3021L5.27073 14.8957C4.90392 15.0885 4.4752 14.7771 4.54526 14.3686L5.12418 10.9933C5.20763 10.5067 5.04631 10.0102 4.69278 9.66557L2.24045 7.27513C1.94369 6.98586 2.10744 6.48188 2.51755 6.42228L5.9066 5.92983C6.39516 5.85883 6.81751 5.55198 7.03601 5.10926L8.55163 2.03827Z" stroke="#98A4B1"/>
</g>
</svg>
