<svg width="21" height="20" viewBox="0 0 21 20" fill="none" xmlns="http://www.w3.org/2000/svg">
<path d="M10.5 18.3333C9 18.3333 7.61111 17.9583 6.33333 17.2083C5.05556 16.4583 4.04167 15.4444 3.29167 14.1667C2.54167 12.8889 2.16667 11.5 2.16667 10C2.16667 8.5 2.54167 7.11111 3.29167 5.83333C4.04167 4.54167 5.05556 3.52778 6.33333 2.79167C7.61111 2.04167 9 1.66667 10.5 1.66667C12 1.66667 13.3889 2.04167 14.6667 2.79167C15.9583 3.52778 16.9722 4.54167 17.7083 5.83333C18.4583 7.11111 18.8333 8.5 18.8333 10C18.8333 11.5 18.4583 12.8889 17.7083 14.1667C16.9722 15.4444 15.9583 16.4583 14.6667 17.2083C13.3889 17.9583 12 18.3333 10.5 18.3333ZM10.5 16.6667C11.7361 16.6667 12.8611 16.375 13.875 15.7917C14.9028 15.2083 15.7083 14.4097 16.2917 13.3958C16.875 12.3681 17.1667 11.2361 17.1667 10C17.1667 8.76389 16.875 7.63889 16.2917 6.625C15.7083 5.59722 14.9028 4.79167 13.875 4.20833C12.8611 3.625 11.7361 3.33333 10.5 3.33333C9.26389 3.33333 8.13194 3.625 7.10417 4.20833C6.09028 4.79167 5.29167 5.59722 4.70833 6.625C4.125 7.63889 3.83333 8.76389 3.83333 10C3.83333 11.2361 4.125 12.3681 4.70833 13.3958C5.29167 14.4097 6.09028 15.2083 7.10417 15.7917C8.13194 16.375 9.26389 16.6667 10.5 16.6667ZM9.66667 5.83333C9.66667 5.48611 9.80556 5.25 10.0833 5.125C10.3611 4.98611 10.6389 4.98611 10.9167 5.125C11.1944 5.25 11.3333 5.48611 11.3333 5.83333V10.8333C11.3333 11.1806 11.1944 11.4236 10.9167 11.5625C10.6389 11.6875 10.3611 11.6875 10.0833 11.5625C9.80556 11.4236 9.66667 11.1806 9.66667 10.8333V5.83333ZM11.75 13.75C11.75 14.0972 11.625 14.3958 11.375 14.6458C11.1389 14.8819 10.8472 15 10.5 15C10.1528 15 9.85417 14.8819 9.60417 14.6458C9.36806 14.3958 9.25 14.0972 9.25 13.75C9.25 13.4028 9.36806 13.1111 9.60417 12.875C9.85417 12.625 10.1528 12.5 10.5 12.5C10.8472 12.5 11.1389 12.625 11.375 12.875C11.625 13.1111 11.75 13.4028 11.75 13.75Z" fill="#828D9A"/>
</svg>
