<svg width="288" height="117" viewBox="0 0 288 117" fill="none" xmlns="http://www.w3.org/2000/svg">
<rect width="288" height="192" fill="url(#paint0_radial_1814_39217)" fill-opacity="0.8"/>
<path d="M244.252 52.0999C245.386 45.5615 241.597 39.7734 235.078 38.7122C228.233 37.5981 228.444 36.3851 221.59 35.2695C214.746 34.1555 214.706 34.3823 207.852 33.2667C200.998 32.1511 200.688 33.9968 193.844 32.8828C187 31.7688 187.301 30.0331 180.447 28.9175C173.593 27.8019 173.399 28.9163 166.555 27.8022C159.711 26.6882 160.002 25.0117 153.148 23.8961C146.294 22.7805 146.255 23.0073 139.401 21.8917C132.547 20.7761 132.15 23.064 125.296 21.9484C123.329 21.6282 121.063 19.0691 119.17 19.7243C109.677 23.0364 109.997 23.9909 100.504 27.3029C98.6095 27.9679 96.6573 29.0799 94.6906 28.7598C86.7155 27.4617 86.5992 28.1323 78.6242 26.8343C70.6491 25.5362 70.8065 24.6289 62.8314 23.3308C56.3118 22.2696 51.6107 26.6962 50.4783 33.2247C49.1869 40.6703 46.699 40.2653 45.4092 47.7011C44.1195 55.1368 46.409 55.5197 45.1175 62.9653C43.8261 70.4109 41.2103 69.9852 39.9189 77.4308C38.6274 84.8764 39.9943 85.0989 38.7028 92.5445C37.4114 99.9901 38.0702 100.097 36.7788 107.543C35.6447 114.081 39.5224 119.123 46.0322 120.183C53.1124 121.336 52.7429 123.466 59.8231 124.618C66.9033 125.771 67.1 124.636 74.1802 125.789C81.2604 126.941 81.1612 127.513 88.2414 128.666C95.3216 129.818 95.4858 128.871 102.556 130.022C109.626 131.173 109.323 132.979 116.403 134.132C123.484 135.284 123.544 134.939 130.614 136.09C137.684 137.241 137.675 137.351 144.755 138.503C151.836 139.656 152.089 138.196 159.169 139.349C162.778 139.936 164.891 142.967 166.639 146.182C170.411 153.114 170.746 152.935 174.518 159.866C178.291 166.797 177.966 166.978 181.737 173.919C184.55 179.092 191.901 176.76 192.46 170.858C193.048 164.667 193.765 164.733 194.344 158.54C195.005 151.58 202.143 146.861 209.027 147.981C212.488 148.544 212.68 147.44 216.131 148.002C222.651 149.063 229.129 145.585 230.263 139.046C231.517 131.818 230.228 131.608 231.484 124.369C232.738 117.141 234.705 117.461 235.958 110.232C237.212 103.004 236.071 102.818 237.327 95.5794C238.581 88.3507 239.377 88.4804 240.631 81.2517C241.887 74.0132 242.572 74.0842 243.619 66.8219C244.667 59.5596 243.01 59.3203 244.265 52.0818L244.252 52.0999Z" fill="#FDD853"/>
<g filter="url(#filter0_f_1814_39217)">
<path d="M244.252 52.0999C245.386 45.5615 241.597 39.7734 235.078 38.7122C228.233 37.5981 228.444 36.3851 221.59 35.2695C214.746 34.1555 214.706 34.3823 207.852 33.2667C200.998 32.1511 200.688 33.9968 193.844 32.8828C187 31.7688 187.301 30.0331 180.447 28.9175C173.593 27.8019 173.399 28.9163 166.555 27.8022C159.711 26.6882 160.002 25.0117 153.148 23.8961C146.294 22.7805 146.255 23.0073 139.401 21.8917C132.547 20.7761 132.15 23.064 125.296 21.9484C123.329 21.6282 121.063 19.0691 119.17 19.7243C109.677 23.0364 109.997 23.9909 100.504 27.3029C98.6095 27.9679 96.6573 29.0799 94.6906 28.7598C86.7155 27.4617 86.5992 28.1323 78.6242 26.8343C70.6491 25.5362 70.8065 24.6289 62.8314 23.3308C56.3118 22.2696 51.6107 26.6962 50.4783 33.2247C49.1869 40.6703 46.699 40.2653 45.4092 47.7011C44.1195 55.1368 46.409 55.5197 45.1175 62.9653C43.8261 70.4109 41.2103 69.9852 39.9189 77.4308C38.6274 84.8764 39.9943 85.0989 38.7028 92.5445C37.4114 99.9901 38.0702 100.097 36.7788 107.543C35.6447 114.081 39.5224 119.123 46.0322 120.183C53.1124 121.336 52.7429 123.466 59.8231 124.618C66.9033 125.771 67.1 124.636 74.1802 125.789C81.2604 126.941 81.1612 127.513 88.2414 128.666C95.3216 129.818 95.4858 128.871 102.556 130.022C109.626 131.173 109.323 132.979 116.403 134.132C123.484 135.284 123.544 134.939 130.614 136.09C137.684 137.241 137.675 137.351 144.755 138.503C151.836 139.656 152.089 138.196 159.169 139.349C162.778 139.936 164.891 142.967 166.639 146.182C170.411 153.114 170.746 152.935 174.518 159.866C178.291 166.797 177.966 166.978 181.737 173.919C184.55 179.092 191.901 176.76 192.46 170.858C193.048 164.667 193.765 164.733 194.344 158.54C195.005 151.58 202.143 146.861 209.027 147.981C212.488 148.544 212.68 147.44 216.131 148.002C222.651 149.063 229.129 145.585 230.263 139.046C231.517 131.818 230.228 131.608 231.484 124.369C232.738 117.141 234.705 117.461 235.958 110.232C237.212 103.004 236.071 102.818 237.327 95.5794C238.581 88.3507 239.377 88.4804 240.631 81.2517C241.887 74.0132 242.572 74.0842 243.619 66.8219C244.667 59.5596 243.01 59.3203 244.265 52.0818L244.252 52.0999Z" fill="#FDD853" fill-opacity="0.75"/>
</g>
<path d="M87.625 60.3447C87.625 60.3447 88.4491 65.0466 90.6889 65.4233C92.9288 65.8001 95.2458 61.6266 95.2458 61.6266" stroke="#272D34" stroke-width="2" stroke-linecap="round" stroke-linejoin="round"/>
<ellipse cx="73.3391" cy="57.9412" rx="6.76188" ry="7" transform="rotate(9.54837 73.3391 57.9412)" fill="#FF80B4" fill-opacity="0.55"/>
<ellipse cx="109.534" cy="64.0305" rx="6.76188" ry="7" transform="rotate(9.54837 109.534 64.0305)" fill="#FF80B4" fill-opacity="0.55"/>
<path d="M76.1133 47.2539L87.9994 52.2954L74.7033 55.6361" stroke="#272D34" stroke-width="2" stroke-linecap="round" stroke-linejoin="round"/>
<path d="M110.406 53.0225L97.5248 53.8978L108.996 61.4047" stroke="#272D34" stroke-width="2" stroke-linecap="round" stroke-linejoin="round"/>
<path d="M261 36C261 36 261.35 45.5 264.241 49.5033C266.813 53.0646 273 54.5 273 54.5C273 54.5 266.813 55.9354 264.241 59.4967C261.35 63.5 261 73 261 73C261 73 260.65 63.5 257.759 59.4967C255.187 55.9354 249 54.5 249 54.5C249 54.5 255.187 53.0646 257.759 49.5033C260.65 45.5 261 36 261 36Z" fill="#B2BDFB"/>
<path d="M16 83C16 83 16.3504 92.5 19.2411 96.5033C21.8126 100.065 28 101.5 28 101.5C28 101.5 21.8126 102.935 19.2411 106.497C16.3504 110.5 16 120 16 120C16 120 15.6496 110.5 12.7589 106.497C10.1874 102.935 4 101.5 4 101.5C4 101.5 10.1874 100.065 12.7589 96.5033C15.6496 92.5 16 83 16 83Z" fill="url(#paint1_linear_1814_39217)" fill-opacity="0.35"/>
<path d="M276.5 67C276.5 67 276.719 73.1621 278.526 75.7589C280.133 78.0689 284 79 284 79C284 79 280.133 79.9311 278.526 82.2411C276.719 84.8379 276.5 91 276.5 91C276.5 91 276.281 84.8379 274.474 82.2411C272.867 79.9311 269 79 269 79C269 79 272.867 78.0689 274.474 75.7589C276.281 73.1621 276.5 67 276.5 67Z" fill="url(#paint2_linear_1814_39217)" fill-opacity="0.35"/>
<path d="M26.5 114C26.5 114 26.719 120.162 28.5257 122.759C30.1329 125.069 34 126 34 126C34 126 30.1329 126.931 28.5257 129.241C26.719 131.838 26.5 138 26.5 138C26.5 138 26.281 131.838 24.4743 129.241C22.8671 126.931 19 126 19 126C19 126 22.8671 125.069 24.4743 122.759C26.281 120.162 26.5 114 26.5 114Z" fill="#11EBC5" fill-opacity="0.55"/>
<defs>
<filter id="filter0_f_1814_39217" x="26.582" y="9.61768" width="227.871" height="177.164" filterUnits="userSpaceOnUse" color-interpolation-filters="sRGB">
<feFlood flood-opacity="0" result="BackgroundImageFix"/>
<feBlend mode="normal" in="SourceGraphic" in2="BackgroundImageFix" result="shape"/>
<feGaussianBlur stdDeviation="5" result="effect1_foregroundBlur_1814_39217"/>
</filter>
<radialGradient id="paint0_radial_1814_39217" cx="0" cy="0" r="1" gradientUnits="userSpaceOnUse" gradientTransform="translate(144 96) rotate(90) scale(96 144)">
<stop stop-color="white"/>
<stop offset="1" stop-color="white" stop-opacity="0"/>
</radialGradient>
<linearGradient id="paint1_linear_1814_39217" x1="16" y1="83" x2="16" y2="120" gradientUnits="userSpaceOnUse">
<stop stop-color="#FFCCE1"/>
<stop offset="1" stop-color="#FF006A"/>
</linearGradient>
<linearGradient id="paint2_linear_1814_39217" x1="276.5" y1="67" x2="276.5" y2="91" gradientUnits="userSpaceOnUse">
<stop stop-color="#FFCCE1"/>
<stop offset="1" stop-color="#FF006A"/>
</linearGradient>
</defs>
</svg>
