<svg width="12" height="12" viewBox="0 0 12 12" fill="none" xmlns="http://www.w3.org/2000/svg">
<path d="M2.66667 12C2.17778 12 1.72778 11.8833 1.31667 11.65C0.916667 11.4056 0.594445 11.0833 0.35 10.6833C0.116667 10.2722 0 9.82222 0 9.33333V2.66667C0 2.17778 0.116667 1.72778 0.35 1.31667C0.594445 0.905554 0.916667 0.583332 1.31667 0.349999C1.72778 0.116666 2.17778 -9.53674e-07 2.66667 -9.53674e-07H9.33333C9.82222 -9.53674e-07 10.2722 0.116666 10.6833 0.349999C11.0944 0.583332 11.4167 0.905554 11.65 1.31667C11.8833 1.72778 12 2.17778 12 2.66667V9.33333C12 9.82222 11.8833 10.2722 11.65 10.6833C11.4167 11.0833 11.0944 11.4056 10.6833 11.65C10.2722 11.8833 9.82222 12 9.33333 12H2.66667ZM9.33333 10.6667C9.75556 10.6667 10.0833 10.55 10.3167 10.3167C10.55 10.0722 10.6667 9.74444 10.6667 9.33333V2.66667C10.6667 2.24444 10.55 1.91667 10.3167 1.68333C10.0833 1.45 9.75556 1.33333 9.33333 1.33333H2.66667C2.25556 1.33333 1.92778 1.45 1.68333 1.68333C1.45 1.91667 1.33333 2.24444 1.33333 2.66667V9.33333C1.33333 9.74444 1.45 10.0722 1.68333 10.3167C1.92778 10.55 2.25556 10.6667 2.66667 10.6667H9.33333Z" fill="#B1BAC5"/>
</svg>
