<svg width="16" height="16" viewBox="0 0 16 16" fill="none" xmlns="http://www.w3.org/2000/svg">
<path d="M4.66667 14C4.17778 14 3.72778 13.8833 3.31667 13.65C2.91667 13.4056 2.59444 13.0833 2.35 12.6833C2.11667 12.2722 2 11.8222 2 11.3333V4.66667C2 4.17778 2.11667 3.72778 2.35 3.31667C2.59444 2.90555 2.91667 2.58333 3.31667 2.35C3.72778 2.11667 4.17778 2 4.66667 2H11.3333C11.8222 2 12.2722 2.11667 12.6833 2.35C13.0944 2.58333 13.4167 2.90555 13.65 3.31667C13.8833 3.72778 14 4.17778 14 4.66667V11.3333C14 11.8222 13.8833 12.2722 13.65 12.6833C13.4167 13.0833 13.0944 13.4056 12.6833 13.65C12.2722 13.8833 11.8222 14 11.3333 14H4.66667ZM11.3333 12.6667C11.7556 12.6667 12.0833 12.55 12.3167 12.3167C12.55 12.0722 12.6667 11.7444 12.6667 11.3333V4.66667C12.6667 4.24444 12.55 3.91667 12.3167 3.68333C12.0833 3.45 11.7556 3.33333 11.3333 3.33333H4.66667C4.25556 3.33333 3.92778 3.45 3.68333 3.68333C3.45 3.91667 3.33333 4.24444 3.33333 4.66667V11.3333C3.33333 11.7444 3.45 12.0722 3.68333 12.3167C3.92778 12.55 4.25556 12.6667 4.66667 12.6667H11.3333Z" fill="#B1BAC5"/>
</svg>
