<svg width="16" height="17" viewBox="0 0 16 17" fill="none" xmlns="http://www.w3.org/2000/svg">
<path d="M4.66667 14.5C4.17778 14.5 3.72778 14.3833 3.31667 14.15C2.91667 13.9056 2.59444 13.5833 2.35 13.1833C2.11667 12.7722 2 12.3222 2 11.8333V5.16667C2 4.67778 2.11667 4.22778 2.35 3.81667C2.59444 3.40555 2.91667 3.08333 3.31667 2.85C3.72778 2.61667 4.17778 2.5 4.66667 2.5H11.3333C11.8222 2.5 12.2722 2.61667 12.6833 2.85C13.0944 3.08333 13.4167 3.40555 13.65 3.81667C13.8833 4.22778 14 4.67778 14 5.16667V11.8333C14 12.3222 13.8833 12.7722 13.65 13.1833C13.4167 13.5833 13.0944 13.9056 12.6833 14.15C12.2722 14.3833 11.8222 14.5 11.3333 14.5H4.66667ZM11.3333 13.1667C11.7556 13.1667 12.0833 13.05 12.3167 12.8167C12.55 12.5722 12.6667 12.2444 12.6667 11.8333V5.16667C12.6667 4.74444 12.55 4.41667 12.3167 4.18333C12.0833 3.95 11.7556 3.83333 11.3333 3.83333H4.66667C4.25556 3.83333 3.92778 3.95 3.68333 4.18333C3.45 4.41667 3.33333 4.74444 3.33333 5.16667V11.8333C3.33333 12.2444 3.45 12.5722 3.68333 12.8167C3.92778 13.05 4.25556 13.1667 4.66667 13.1667H11.3333ZM4.53333 8.96667C4.33333 8.76667 4.27222 8.55556 4.35 8.33333C4.42778 8.1 4.58333 7.94444 4.81667 7.86667C5.06111 7.78889 5.27778 7.84444 5.46667 8.03333L7.01667 9.56667L10.5167 6.03333C10.7278 5.83333 10.9444 5.77222 11.1667 5.85C11.4 5.92778 11.5556 6.08889 11.6333 6.33333C11.7222 6.56667 11.6722 6.77778 11.4833 6.96667L7.5 10.9667C7.35556 11.1111 7.19444 11.1833 7.01667 11.1833C6.83889 11.1833 6.67778 11.1111 6.53333 10.9667L4.53333 8.96667Z" fill="#B1BAC5"/>
</svg>
