<svg width="60" height="60" viewBox="0 0 60 60" fill="none" xmlns="http://www.w3.org/2000/svg">
<g filter="url(#filter0_d_2127_7448)">
<rect x="12" y="12" width="36" height="36" rx="18" fill="white" shape-rendering="crispEdges"/>
<rect x="12.5" y="12.5" width="35" height="35" rx="17.5" stroke="#DEE3EA" shape-rendering="crispEdges"/>
<path d="M30 38C28.55 38 27.2083 37.6417 25.975 36.925C24.7583 36.2083 23.7917 35.2417 23.075 34.025C22.3583 32.7917 22 31.45 22 30C22 28.55 22.3583 27.2083 23.075 25.975C23.7917 24.7417 24.7583 23.775 25.975 23.075C27.1917 22.3583 28.5333 22 30 22C31.0833 22 32.1083 22.2083 33.075 22.625C34.0417 23.025 34.8917 23.5917 35.625 24.325L38.7 27.275L37.3 28.725L34.225 25.775C33.625 25.1917 32.9833 24.75 32.3 24.45C31.6167 24.15 30.85 24 30 24C28.8667 24 27.8417 24.2583 26.925 24.775C26.0083 25.2917 25.2917 26.0083 24.775 26.925C24.2583 27.8417 24 28.8667 24 30C24 31.1333 24.2583 32.1583 24.775 33.075C25.2917 33.9917 26.0083 34.7083 26.925 35.225C27.8417 35.7417 28.8667 36 30 36C30.5333 36 31.025 35.9417 31.475 35.825C31.9417 35.7083 32.375 35.5417 32.775 35.325C33.175 35.1083 33.5667 34.8417 33.95 34.525L34.25 34.225C34.55 33.9417 34.875 33.8667 35.225 34C35.575 34.1167 35.8 34.3583 35.9 34.725C36.0167 35.075 35.9333 35.3917 35.65 35.675C35.15 36.1583 34.6083 36.575 34.025 36.925C33.4417 37.275 32.8083 37.5417 32.125 37.725C31.4583 37.9083 30.75 38 30 38ZM34 29C33.5833 29 33.2917 28.8333 33.125 28.5C32.975 28.1667 32.975 27.8333 33.125 27.5C33.2917 27.1667 33.5833 27 34 27H37V24C37 23.5833 37.1667 23.3 37.5 23.15C37.8333 22.9833 38.1667 22.9833 38.5 23.15C38.8333 23.3 39 23.5833 39 24V27.975C39 28.275 38.9 28.525 38.7 28.725C38.5167 28.9083 38.275 29 37.975 29H34Z" fill="#272D34"/>
</g>
<defs>
<filter id="filter0_d_2127_7448" x="0" y="0" width="60" height="60" filterUnits="userSpaceOnUse" color-interpolation-filters="sRGB">
<feFlood flood-opacity="0" result="BackgroundImageFix"/>
<feColorMatrix in="SourceAlpha" type="matrix" values="0 0 0 0 0 0 0 0 0 0 0 0 0 0 0 0 0 0 127 0" result="hardAlpha"/>
<feOffset/>
<feGaussianBlur stdDeviation="6"/>
<feComposite in2="hardAlpha" operator="out"/>
<feColorMatrix type="matrix" values="0 0 0 0 0 0 0 0 0 0 0 0 0 0 0 0 0 0 0.08 0"/>
<feBlend mode="normal" in2="BackgroundImageFix" result="effect1_dropShadow_2127_7448"/>
<feBlend mode="normal" in="SourceGraphic" in2="effect1_dropShadow_2127_7448" result="shape"/>
</filter>
</defs>
</svg>
