<svg width="94" height="94" viewBox="0 0 94 94" fill="none" xmlns="http://www.w3.org/2000/svg">
<g filter="url(#filter0_d_2987_54987)">
<rect x="19" y="19" width="56" height="56" rx="28" fill="white" shape-rendering="crispEdges"/>
<rect x="19.7778" y="19.7778" width="54.4444" height="54.4444" rx="27.2222" stroke="#DEE3EA" stroke-width="1.55556" shape-rendering="crispEdges"/>
<path d="M46.9987 59.1108C44.7431 59.1108 42.6561 58.5534 40.7376 57.4386C38.845 56.3237 37.3413 54.82 36.2265 52.9275C35.1117 51.0089 34.5543 48.9219 34.5543 46.6663C34.5543 44.4108 35.1117 42.3237 36.2265 40.4052C37.3413 38.4867 38.845 36.983 40.7376 35.8941C42.6302 34.7793 44.7172 34.2219 46.9987 34.2219C48.6839 34.2219 50.2783 34.546 51.782 35.1941C53.2857 35.8163 54.608 36.6978 55.7487 37.8386L60.532 42.4274L58.3543 44.683L53.5709 40.0941C52.6376 39.1867 51.6394 38.4997 50.5765 38.033C49.5135 37.5663 48.3209 37.333 46.9987 37.333C45.2357 37.333 43.6413 37.7349 42.2154 38.5386C40.7894 39.3423 39.6746 40.4571 38.8709 41.883C38.0672 43.3089 37.6654 44.9034 37.6654 46.6663C37.6654 48.4293 38.0672 50.0237 38.8709 51.4497C39.6746 52.8756 40.7894 53.9904 42.2154 54.7941C43.6413 55.5978 45.2357 55.9997 46.9987 55.9997C47.8283 55.9997 48.5931 55.9089 49.2931 55.7275C50.0191 55.546 50.6931 55.2867 51.3154 54.9497C51.9376 54.6126 52.5468 54.1978 53.1431 53.7052L53.6098 53.2386C54.0765 52.7978 54.582 52.6812 55.1265 52.8886C55.6709 53.07 56.0209 53.446 56.1765 54.0163C56.358 54.5608 56.2283 55.0534 55.7876 55.4941C55.0098 56.246 54.1672 56.8941 53.2598 57.4386C52.3524 57.983 51.3672 58.3978 50.3043 58.683C49.2672 58.9682 48.1654 59.1108 46.9987 59.1108ZM53.2209 45.1108C52.5728 45.1108 52.1191 44.8515 51.8598 44.333C51.6265 43.8145 51.6265 43.296 51.8598 42.7774C52.1191 42.2589 52.5728 41.9997 53.2209 41.9997H57.8876V37.333C57.8876 36.6849 58.1468 36.2441 58.6654 36.0108C59.1839 35.7515 59.7024 35.7515 60.2209 36.0108C60.7394 36.2441 60.9987 36.6849 60.9987 37.333V43.5163C60.9987 43.983 60.8431 44.3719 60.532 44.683C60.2469 44.9682 59.8709 45.1108 59.4043 45.1108H53.2209Z" fill="#272D34"/>
</g>
<defs>
<filter id="filter0_d_2987_54987" x="0.333332" y="0.333332" width="93.3333" height="93.3333" filterUnits="userSpaceOnUse" color-interpolation-filters="sRGB">
<feFlood flood-opacity="0" result="BackgroundImageFix"/>
<feColorMatrix in="SourceAlpha" type="matrix" values="0 0 0 0 0 0 0 0 0 0 0 0 0 0 0 0 0 0 127 0" result="hardAlpha"/>
<feOffset/>
<feGaussianBlur stdDeviation="9.33333"/>
<feComposite in2="hardAlpha" operator="out"/>
<feColorMatrix type="matrix" values="0 0 0 0 0 0 0 0 0 0 0 0 0 0 0 0 0 0 0.08 0"/>
<feBlend mode="normal" in2="BackgroundImageFix" result="effect1_dropShadow_2987_54987"/>
<feBlend mode="normal" in="SourceGraphic" in2="effect1_dropShadow_2987_54987" result="shape"/>
</filter>
</defs>
</svg>
