<svg xmlns="http://www.w3.org/2000/svg" width="20" height="20" fill="none" viewBox="0 0 20 20">
  <path fill="#828D9A" d="M8.8 20a2.02 2.02 0 0 1-1.275-.45 1.842 1.842 0 0 1-.675-1.1l-.275-1.325c-.017-.067-.008-.083.025-.05a.24.24 0 0 1 .1.125c.017.05-.008.058-.075.025a4.321 4.321 0 0 1-.975-.525l-.225-.15c-.05-.033-.058-.05-.025-.05a.23.23 0 0 1 .15 0c.067.017.067.033 0 .05l-1.275.375c-.45.133-.892.117-1.325-.05a1.926 1.926 0 0 1-1-.85l-1.2-2.05A2.05 2.05 0 0 1 .5 12.65c.067-.467.275-.858.625-1.175L2.1 10.6c.033-.033.05-.025.05.025 0 .033-.017.067-.05.1-.017.033-.025.033-.025 0C2.025 10.592 2 10.35 2 10s.025-.592.075-.725c0-.05.008-.05.025 0a.17.17 0 0 1 .05.125c0 .033-.017.033-.05 0l-.975-.9A1.8 1.8 0 0 1 .5 7.35a2.05 2.05 0 0 1 .25-1.325l1.2-2.05c.233-.4.567-.683 1-.85a1.91 1.91 0 0 1 1.325-.075l1.275.4c.067.017.067.033 0 .05H5.4c-.033 0-.025-.025.025-.075L5.65 3.3c.333-.233.658-.417.975-.55.067-.017.092 0 .075.05a.24.24 0 0 1-.1.125c-.033.033-.042.008-.025-.075l.275-1.3a1.75 1.75 0 0 1 .675-1.1C7.908.15 8.333 0 8.8 0h2.4c.467 0 .883.15 1.25.45.383.283.617.65.7 1.1l.25 1.225c.017.067.008.092-.025.075a.164.164 0 0 1-.075-.075c0-.033.025-.042.075-.025.383.133.775.358 1.175.675.033.033.033.058 0 .075a.222.222 0 0 1-.1-.025c-.017-.017.008-.033.075-.05l1.2-.375a1.91 1.91 0 0 1 1.325.075c.433.167.767.45 1 .85l1.2 2.05c.25.417.333.858.25 1.325-.067.45-.275.833-.625 1.15l-.9.85c-.067.05-.108.058-.125.025 0-.05.008-.092.025-.125.033-.033.058-.025.075.025.033.133.05.375.05.725s-.017.592-.05.725c-.017.05-.042.058-.075.025a.221.221 0 0 1-.025-.1c.017-.05.058-.05.125 0l.9.825c.35.333.558.733.625 1.2.083.45 0 .883-.25 1.3l-1.2 2.05c-.233.4-.567.683-1 .85a2.007 2.007 0 0 1-1.325.05l-1.2-.35c-.067-.017-.092-.033-.075-.05a.106.106 0 0 1 .1 0c.033 0 .033.017 0 .05-.4.3-.792.517-1.175.65-.05.033-.075.033-.075 0a.164.164 0 0 1 .075-.075c.033-.017.042.008.025.075l-.25 1.225c-.083.433-.317.8-.7 1.1-.367.3-.783.45-1.25.45H8.8Zm3.1-2c.167 0 .167.092 0 .275a2.647 2.647 0 0 1-.575.475c-.217.117-.308.092-.275-.075l.425-1.85c.067-.333.2-.617.4-.85.2-.25.442-.442.725-.575.15-.067.283-.133.4-.2.133-.083.258-.167.375-.25.25-.183.533-.3.85-.35.317-.05.633-.025.95.075L17 15.25c.15.05.117.142-.1.275-.2.117-.417.2-.65.25-.233.05-.317.008-.25-.125l1.85-3.3c.083-.133.158-.083.225.15.083.233.125.475.125.725s-.058.317-.175.2L16.65 12.15a2.745 2.745 0 0 1-.55-.775 1.953 1.953 0 0 1-.125-.925c.017-.1.025-.25.025-.45s-.008-.35-.025-.45a1.825 1.825 0 0 1 .125-.9c.133-.3.317-.567.55-.8l1.375-1.275c.117-.117.175-.05.175.2s-.042.492-.125.725c-.067.233-.142.283-.225.15L16 4.35c-.067-.133.017-.175.25-.125.233.033.45.117.65.25.217.133.25.217.1.25l-1.825.6c-.317.1-.633.125-.95.075a2.411 2.411 0 0 1-.85-.35A1.84 1.84 0 0 0 13 4.8a4.468 4.468 0 0 0-.4-.2 2.02 2.02 0 0 1-.725-.575c-.2-.25-.333-.533-.4-.85l-.425-1.85c-.033-.167.058-.192.275-.075.217.117.408.275.575.475.167.183.167.275 0 .275H8.1c-.167 0-.167-.092 0-.275.183-.2.375-.358.575-.475.217-.117.308-.092.275.075l-.425 1.85c-.067.317-.2.6-.4.85s-.442.442-.725.575a7.676 7.676 0 0 0-.75.425l-.025.025c-.25.167-.533.283-.85.35-.317.05-.633.025-.95-.075L3 4.725c-.15-.033-.125-.117.075-.25.217-.133.442-.217.675-.25.25-.05.333-.008.25.125l-1.85 3.3c-.083.133-.167.083-.25-.15a2.626 2.626 0 0 1-.1-.725c0-.25.058-.317.175-.2L3.35 7.85c.25.233.433.5.55.8.117.283.158.583.125.9C4.008 9.65 4 9.8 4 10s.008.35.025.45c.033.317-.008.625-.125.925a2.21 2.21 0 0 1-.55.775l-1.375 1.275c-.117.117-.175.05-.175-.2s.033-.492.1-.725c.083-.233.167-.283.25-.15L4 15.65c.083.133 0 .175-.25.125a2.54 2.54 0 0 1-.675-.25c-.2-.133-.225-.225-.075-.275l1.825-.575c.317-.1.633-.125.95-.075.317.05.6.167.85.35l.025.025a2.8 2.8 0 0 1 .375.225c.117.067.242.133.375.2.283.133.525.325.725.575.2.233.333.517.4.85l.425 1.85c.033.167-.058.192-.275.075a3.78 3.78 0 0 1-.575-.475c-.167-.183-.167-.275 0-.275h3.8ZM10 14a3.984 3.984 0 0 1-2-.525A4.169 4.169 0 0 1 6.525 12 3.984 3.984 0 0 1 6 10c0-.717.175-1.383.525-2A3.97 3.97 0 0 1 8 6.55 3.845 3.845 0 0 1 10 6c.717 0 1.383.183 2 .55.617.35 1.1.833 1.45 1.45.367.617.55 1.283.55 2 0 .717-.183 1.383-.55 2A3.97 3.97 0 0 1 12 13.475 3.984 3.984 0 0 1 10 14Zm0-2c.55 0 1.017-.192 1.4-.575.4-.4.6-.875.6-1.425s-.2-1.017-.6-1.4c-.383-.4-.85-.6-1.4-.6-.55 0-1.025.2-1.425.6C8.192 8.983 8 9.45 8 10c0 .55.192 1.025.575 1.425.4.383.875.575 1.425.575Z"/>
</svg>
