<svg width="13" height="10" viewBox="0 0 13 10" fill="none" xmlns="http://www.w3.org/2000/svg">
<path id="Vector 10343" d="M0.710249 5.20123L1.9291 1.84793C2.0861 1.41598 2.68117 1.37554 2.89518 1.78228L3.85777 3.61176C4.01712 3.91463 4.41765 3.98899 4.6751 3.7635L7.99129 0.858943C8.30526 0.58395 8.79913 0.763461 8.86323 1.17588L9.54037 5.53191C9.59294 5.87008 9.94773 6.07027 10.2644 5.94041L12.177 5.15602C12.6023 4.98163 13.0325 5.39474 12.8755 5.8267L11.6566 9.18C11.5568 9.45479 11.253 9.59659 10.9782 9.49671L1.02696 5.87965C0.752163 5.77977 0.610367 5.47603 0.710249 5.20123Z" fill="#112CBA"/>
</svg>
