<svg width="31" height="33" viewBox="0 0 31 33" fill="none" xmlns="http://www.w3.org/2000/svg">
<g id="Group 1000006075">
<path id="Vector" d="M-22.8813 35.4654C-22.8813 36.2937 -22.5732 37.0377 -22.0298 37.5782C-21.4863 38.1188 -20.7423 38.8163 -19.917 38.8163C-18.8911 38.8163 -18.8911 38.2902 -17.8652 38.2902C-16.8393 38.2902 -16.8393 38.3978 -15.8163 38.3978C-14.7933 38.3978 -14.7904 38.2728 -13.7646 38.2728C-12.7387 38.2728 -12.7387 38.0665 -11.7128 38.0665C-10.6869 38.0665 -10.6869 38.235 -9.66101 38.235C-8.63512 38.235 -8.63512 38.3571 -7.60924 38.3571C-6.58335 38.3571 -6.58335 38.389 -5.55746 38.389C-4.53158 38.389 -4.53158 38.2176 -3.50569 38.2176C-2.4798 38.2176 -2.4798 38.1391 -1.45391 38.1391C-0.428028 38.1391 -0.42803 38.328 0.597858 38.328C1.62374 38.328 1.62374 38.8627 2.64963 38.8627C3.67552 38.8627 3.67552 38.3978 4.7014 38.3978C5.72729 38.3978 5.72729 38.1217 6.75318 38.1217C7.77906 38.1217 7.77906 38.2554 8.80495 38.2554C9.83084 38.2554 9.83084 38.8192 10.8567 38.8192C11.8826 38.8192 11.8826 38.7756 12.9085 38.7756C13.9344 38.7756 13.9344 38.4094 14.9603 38.4094C15.9862 38.4094 15.9862 38.3455 17.012 38.3455C18.0379 38.3455 18.0379 38.4617 19.0638 38.4617C20.0897 38.4617 20.0897 38.2873 21.1156 38.2873C22.1415 38.2873 22.1415 38.7058 23.1674 38.7058C24.1933 38.7058 24.1932 38.5082 25.222 38.5082C26.2508 38.5082 26.2479 38.5373 27.2767 38.5373C28.105 38.5373 28.9478 38.2176 29.4912 37.6741C30.0347 37.1307 30.0957 36.2879 30.0957 35.4596C30.0957 34.4105 30.6857 34.4105 30.6857 33.3584C30.6857 32.3064 30.6944 32.3093 30.6944 31.2572C30.6944 30.2052 30.3602 30.2081 30.3602 29.1561C30.3602 28.104 29.962 28.1069 29.962 27.0549C29.962 26.0028 30.2556 26.0057 30.2556 24.9537C30.2556 23.9017 29.8516 23.9046 29.8516 22.8525C29.8516 21.8005 30.584 21.8034 30.584 20.7513C30.584 19.6993 30.2788 19.6993 30.2788 18.6502C30.2788 17.601 30.1103 17.5981 30.1103 16.549C30.1103 15.4999 30.0928 15.4969 30.0928 14.4478C30.0928 13.3987 30.7031 13.3958 30.7031 12.3437C30.7031 11.2917 30.4445 11.2917 30.4445 10.2396C30.4445 9.41137 29.9708 8.62961 29.4273 8.08615C28.8839 7.54269 28.1021 6.97599 27.2738 6.97599C26.4136 6.97599 26.4136 7.45551 25.5533 7.45551C24.9431 7.45551 24.3357 7.09514 23.8503 6.76964C23.365 6.44415 23.1499 5.87454 22.9203 5.30783C22.6239 4.57256 22.4147 4.65685 22.1182 3.92448C21.8218 3.19212 21.8218 3.18922 21.5254 2.45395C21.2638 1.80296 20.6622 1.64893 20.1188 1.32925C19.5753 1.00957 19.0493 0.102838 18.3954 0.181305C17.7415 0.259773 17.5061 1.22172 17.0062 1.71578C16.1663 2.54404 16.114 2.48883 15.277 3.31709C14.4401 4.14536 14.3965 4.10467 13.5566 4.93003C12.7167 5.75538 12.3563 5.39211 11.5164 6.22038C10.9555 6.77255 10.3569 7.6386 9.56928 7.6386C8.51724 7.6386 8.51724 7.26079 7.46519 7.26079C6.41315 7.26079 6.41315 7.15326 5.36111 7.15326C4.30907 7.15326 4.30907 7.03702 3.25703 7.03702C2.20498 7.03702 2.20498 7.66185 1.15294 7.66185C0.100897 7.66185 0.100897 6.8394 -0.954052 6.8394C-2.009 6.8394 -2.00609 6.81905 -3.05814 6.81905C-4.11018 6.81905 -4.11018 6.95273 -5.16222 6.95273C-6.21426 6.95273 -6.21426 7.1678 -7.26631 7.1678C-8.31835 7.1678 -8.31835 7.06608 -9.37039 7.06608C-10.4224 7.06608 -10.4224 7.57176 -11.4774 7.57176C-12.5323 7.57176 -12.5294 7.67347 -13.5844 7.67347C-14.6393 7.67347 -14.6364 7.08061 -15.6914 7.08061C-16.7463 7.08061 -16.7463 7.28985 -17.7984 7.28985C-18.8504 7.28985 -18.8533 7.34216 -19.9053 7.34216C-20.7336 7.34216 -21.7043 7.35089 -22.2477 7.89435C-22.7912 8.43781 -22.951 9.40847 -22.951 10.2367C-22.951 11.2859 -23.0934 11.2859 -23.0934 12.3379C-23.0934 13.39 -22.4715 13.3871 -22.4715 14.4391C-22.4715 15.4911 -23.2271 15.4882 -23.2271 16.5403C-23.2271 17.5923 -23.2969 17.5894 -23.2969 18.6415C-23.2969 19.6935 -23.1487 19.6906 -23.1487 20.7426C-23.1487 21.7947 -22.736 21.7918 -22.736 22.8438C-22.736 23.8958 -22.8203 23.893 -22.8203 24.945C-22.8203 25.997 -22.797 25.997 -22.797 27.0462C-22.797 28.0953 -22.7273 28.0982 -22.7273 29.1473C-22.7273 30.1965 -22.858 30.1994 -22.858 31.2485C-22.858 32.2977 -22.7709 32.2977 -22.7621 33.3497C-22.7534 34.4017 -22.8697 34.4017 -22.8697 35.4538L-22.8813 35.4654Z" fill="#3D5BF5"/>
<path id="Vector 10385" d="M15.8305 16.6941L11.8672 17.8088" stroke="#121212" stroke-width="0.7" stroke-linecap="round"/>
<path id="Vector 10388" d="M15.3355 15.5793L13.6016 16.0748" stroke="#121212" stroke-width="0.371558" stroke-linecap="round"/>
<path id="Vector 10386" d="M18.9469 16.6941L22.9102 17.8088" stroke="#121212" stroke-width="0.7" stroke-linecap="round"/>
<path id="Vector 10389" d="M19.4457 15.5793L21.1797 16.0748" stroke="#121212" stroke-width="0.371558" stroke-linecap="round"/>
<path id="Vector 10387" d="M15.4023 18.8923C16.0216 20.007 18.9941 20.007 19.3656 18.8923" stroke="#121212" stroke-width="0.7" stroke-linecap="round"/>
</g>
</svg>
