<svg width="30" height="34" viewBox="0 0 30 34" fill="none" xmlns="http://www.w3.org/2000/svg">
<g id="Group 1000006075">
<path id="Vector" d="M48.039 0.294352C48.039 -1.16356 46.5154 -2.08933 45.0551 -2.08933C43.2837 -2.08933 43.2837 -2.75269 41.5124 -2.75269C39.741 -2.75269 39.741 -2.23513 37.9697 -2.23513C37.3573 -2.23513 36.7256 -2.51213 36.2542 -2.9009C34.6116 -4.2519 34.4245 -4.0235 32.7819 -5.3745C31.1393 -6.7255 31.5451 -7.21632 29.9025 -8.56732C29.4312 -8.9561 28.6585 -8.39724 28.0461 -8.39724C26.3379 -8.39724 26.338 -8.92694 24.6298 -8.92694C22.9216 -8.92694 22.9216 -9.20152 21.2134 -9.20152C19.5052 -9.20152 19.5052 -8.59648 17.797 -8.59648C16.0888 -8.59648 16.0888 -9.45179 14.3806 -9.45179C12.6725 -9.45179 12.6725 -9.20881 10.9643 -9.20881C9.25609 -9.20881 9.25608 -8.37294 7.54547 -8.37294C5.83485 -8.37294 5.83728 -9.52954 4.12667 -9.52954C2.66875 -9.52954 1.02617 -7.77033 1.02617 -6.31242C1.02617 -4.6261 1.61177 -4.6261 1.61177 -2.94221C1.61177 -1.25833 1.57532 -1.2559 1.57532 0.427991C1.57532 2.11188 1.77457 2.11431 1.77457 3.7982C1.77457 5.48208 1.36149 5.48209 1.36149 7.16841C1.36149 8.85472 1.4757 8.85472 1.4757 10.5386C1.4757 12.2225 1.1501 12.2249 1.1501 13.9112C1.1501 15.5976 1.79401 15.5976 1.79401 17.2815C1.79401 18.9653 1.49271 18.9678 1.49271 20.6541C1.49271 22.3404 0.882812 22.3404 0.882812 24.0267C0.882812 25.0011 1.99326 25.9609 2.85828 26.4128C3.97601 26.996 5.23468 27.1564 6.28438 27.6472C7.42398 28.1818 8.49797 28.6799 9.58169 29.0978C10.7504 29.5474 11.6665 30.6335 12.7964 30.9397C13.987 31.2604 15.2797 31.0611 16.463 31.2118C17.6561 31.3649 18.837 30.8668 20.0592 30.8327C21.2814 30.7987 22.4769 31.4499 23.7089 31.2361C24.846 31.0393 25.9224 30.3662 27.1374 30.0042C28.2381 29.6786 29.6304 29.9847 30.8162 29.5182C31.8853 29.0978 32.9763 28.5049 34.1256 27.9655C34.9785 27.5646 35.4766 27.7541 36.242 28.2401C36.5579 28.4418 37.5371 26.8138 37.7412 27.1272C38.9465 28.6872 38.5285 29.0103 39.7483 30.5582C40.9657 32.1084 41.4055 31.7585 42.6325 33.299C43.1137 33.8652 43.6118 33.9575 43.7454 33.2286C43.6385 31.8023 43.8062 31.7925 43.6822 30.3662C43.7892 29.7855 43.9641 28.8184 44.1196 27.8343C44.2994 26.6898 44.1488 24.9865 44.8364 24.9865C44.9458 24.9865 44.9458 25.645 45.0575 25.645C46.5154 25.645 48.073 24.4058 48.073 22.9479C48.073 21.0599 48.2577 21.0599 48.2577 19.1694C48.2577 17.2815 47.8276 17.2814 47.8276 15.3935C47.8276 13.5055 47.9126 13.5055 47.9126 11.615C47.9126 9.72704 47.604 9.72704 47.604 7.83662C47.604 5.94619 47.0233 5.90974 47.1375 4.02418C47.2517 2.13861 48.0414 2.16777 48.0414 0.279774L48.039 0.294352Z" fill="#11EBC5"/>
<path id="Vector 10393" d="M10.8438 19.9932C11.8157 21.0866 13.1521 20.0592 14.2455 20.1147C15.339 20.1701 16.5539 21.0866 17.5258 20.1147" stroke="#1A1E22" stroke-width="0.7" stroke-linecap="round" stroke-linejoin="round"/>
<ellipse id="Ellipse 2786" cx="12.5454" cy="17.5633" rx="0.728956" ry="1.5794" fill="#272D34"/>
<ellipse id="Ellipse 2787" cx="15.7055" cy="17.5633" rx="0.728956" ry="1.5794" fill="#272D34"/>
</g>
</svg>
