<svg width="13" height="9" viewBox="0 0 13 9" fill="none" xmlns="http://www.w3.org/2000/svg">
<path id="Vector 10343" d="M0.241499 4.67169L1.46035 1.31839C1.61735 0.886438 2.21242 0.845994 2.42643 1.25273L3.38902 3.08222C3.54837 3.38509 3.9489 3.45945 4.20635 3.23396L7.52254 0.329402C7.83651 0.054409 8.33038 0.23392 8.39448 0.646335L9.07162 5.00237C9.12419 5.34054 9.47898 5.54073 9.79562 5.41087L11.7083 4.62648C12.1335 4.45209 12.5637 4.8652 12.4067 5.29715L11.1879 8.65045C11.088 8.92525 10.7843 9.06705 10.5095 8.96717L0.558209 5.35011C0.283413 5.25023 0.141617 4.94649 0.241499 4.67169Z" fill="#0FB2A2"/>
</svg>
