<svg width="57" height="53" viewBox="0 0 57 53" fill="none" xmlns="http://www.w3.org/2000/svg">
<g id="Group 1000006088">
<g id="Group 1000006084">
<path id="Vector" d="M56.909 9.50725C56.909 5.29944 51.6857 0.450611 47.4779 0.450611C43.067 0.450611 43.067 2.29113 38.6561 2.29113C34.2452 2.29113 34.2452 2.17689 29.8343 2.17689C25.4233 2.17689 25.4233 2.80521 21.0124 2.80521C16.6015 2.80521 16.6015 1.50415 12.1906 1.50415C7.77972 1.50415 7.77972 1.86591 3.37516 1.86591C-1.0294 1.86591 -1.03575 0.844102 -5.44666 0.844102C-9.85757 0.844102 -9.85757 2.86868 -14.2685 2.86868C-18.6794 2.86868 -18.6794 1.92303 -23.0903 1.92303C-27.5012 1.92303 -27.5012 0 -31.9121 0C-36.323 0 -36.323 1.65647 -40.7403 1.65647C-44.9481 1.65647 -47.2709 5.29944 -47.2709 9.50725C-47.2709 14.0832 -47.3661 14.0832 -47.3661 18.6654C-47.3661 23.2477 -49.6954 23.2414 -49.6954 27.8173C-49.6954 32.3932 -48.261 32.3932 -48.261 36.9691C-48.261 41.545 -46.4967 41.545 -46.4967 46.1273C-46.4967 50.7096 -48.9338 50.7032 -48.9338 55.2792C-48.9338 59.8551 -47.6517 59.8614 -47.6517 64.4373C-47.6517 69.0133 -50 69.026 -50 73.6082C-50 77.816 -44.9417 82.5252 -40.7403 82.5252C-38.5507 82.5252 -38.5507 83.0583 -36.3611 83.0583C-33.2512 83.0583 -28.9419 82.4998 -27.7805 85.3812C-26.2763 89.1194 -27.863 89.754 -26.3588 93.4922C-25.3433 96.0118 -22.7857 98.4362 -20.4184 98.9249C-18.0511 99.4136 -15.798 97.9602 -13.8623 96.0499C-10.6636 92.8956 -9.90834 93.6572 -6.70964 90.503C-3.51094 87.3487 -3.23168 87.6279 -0.0329819 84.4673C1.38866 83.0647 2.27084 79.3265 4.27637 79.3265C8.59843 79.3265 8.59843 81.4019 12.9141 81.4019C17.2299 81.4019 17.2362 82.4046 21.5519 82.4046C25.8676 82.4046 25.874 82.9822 30.1897 82.9822C34.5054 82.9822 34.5117 81.6304 38.8338 81.6304C43.1558 81.6304 43.1558 81.8969 47.4779 81.8969C51.7999 81.8969 54.7955 77.816 54.7955 73.6082C54.7955 69.0323 53.3231 69.0323 53.3231 64.45C53.3231 59.8678 55.3858 59.8741 55.3858 55.2918C55.3858 50.7096 54.2815 50.7159 54.2815 46.14C54.2815 41.5641 54.7702 41.5641 54.7702 36.9818C54.7702 32.3995 55.7158 32.4059 55.7158 27.83C55.7158 23.2477 52.8598 22.9938 53.4564 18.456C54.053 13.9182 56.909 14.0895 56.909 9.5136V9.50725Z" fill="#FF80B4"/>
</g>
<g id="Group 1000006086">
<circle id="Ellipse 2820" opacity="0.5" cx="16.6647" cy="16.4023" r="3.11461" transform="rotate(12.3613 16.6647 16.4023)" fill="#FF006A"/>
<circle id="Ellipse 2821" opacity="0.5" cx="42.6452" cy="22.5519" r="3.11461" transform="rotate(12.3613 42.6452 22.5519)" fill="#FF006A"/>
<path id="Vector 10415" d="M16.5703 16.8369C17.4085 25.5265 38.0258 30.0386 42.648 22.552" stroke="#121212" stroke-width="1.3" stroke-linecap="round"/>
<path id="Vector 10416" d="M21.8125 15.9226C22.102 19.01 26.3517 19.8815 27.4788 17.0846" stroke="#121212" stroke-width="1.3" stroke-linecap="round"/>
<path id="Vector 10417" d="M31.3984 17.8892C31.6879 20.9765 35.9377 21.8481 37.0648 19.0512" stroke="#121212" stroke-width="1.3" stroke-linecap="round"/>
</g>
</g>
</svg>
