<svg width="24" height="18" viewBox="0 0 24 18" fill="none" xmlns="http://www.w3.org/2000/svg">
<path id="Vector 10343" d="M0.342449 9.15778L2.64472 2.82377C2.94128 2.00785 4.0653 1.93146 4.46954 2.69975L6.28776 6.15543C6.58877 6.72752 7.34532 6.86798 7.83161 6.44205L14.0955 0.955674C14.6886 0.436242 15.6214 0.775317 15.7425 1.55432L17.0216 9.78239C17.1209 10.4212 17.791 10.7993 18.3891 10.554L22.002 9.07238C22.8052 8.74297 23.6178 9.52329 23.3212 10.3392L21.019 16.6732C20.8303 17.1923 20.2566 17.4601 19.7375 17.2714L0.94068 10.4392C0.42162 10.2506 0.153783 9.67684 0.342449 9.15778Z" fill="#FF006A"/>
</svg>
