<svg width="13" height="10" viewBox="0 0 13 10" fill="none" xmlns="http://www.w3.org/2000/svg">
<path id="Vector 10343" d="M0.182905 5.20123L1.40175 1.84793C1.55876 1.41598 2.15383 1.37554 2.36783 1.78228L3.33042 3.61176C3.48978 3.91463 3.89031 3.98899 4.14776 3.7635L7.46395 0.858943C7.77791 0.58395 8.27178 0.763461 8.33589 1.17588L9.01302 5.53191C9.06559 5.87008 9.42039 6.07027 9.73703 5.94041L11.6497 5.15602C12.0749 4.98163 12.5051 5.39474 12.3481 5.8267L11.1293 9.18C11.0294 9.45479 10.7257 9.59659 10.4509 9.49671L0.499615 5.87965C0.224819 5.77977 0.0830231 5.47603 0.182905 5.20123Z" fill="#FF9100"/>
</svg>
