<svg width="32" height="28" viewBox="0 0 32 28" fill="none" xmlns="http://www.w3.org/2000/svg">
<g id="Group 1000006075">
<path id="Vector" d="M48.4671 3.68776C48.4671 2.07057 47.3109 0.82658 45.6937 0.82658C43.9961 0.82658 43.9961 0.52656 42.2959 0.52656C40.5983 0.52656 40.5983 0.58266 38.8981 0.58266C37.198 0.58266 37.2004 1.03879 35.5028 1.03879C33.8051 1.03879 33.8051 0.609491 32.105 0.609491C30.4048 0.609491 30.4048 0.885122 28.7072 0.885122C27.0095 0.885122 27.0095 0.470459 25.3093 0.470459C23.6092 0.470459 23.6092 0.52656 21.9091 0.52656C20.209 0.52656 20.209 1.09245 18.5089 1.09245C18.021 1.09245 17.3673 0.565587 16.938 0.797311C14.7866 1.96569 14.9037 2.18278 12.7523 3.35115C12.323 3.58532 11.8986 3.92924 11.4108 3.92924C9.4326 3.92924 9.4326 4.09511 7.45441 4.09511C5.47622 4.09511 5.47621 3.8707 3.49802 3.8707C1.88083 3.8707 0.931986 5.11957 0.931986 6.73432C0.931986 8.57592 0.314869 8.57592 0.314869 10.4151C0.314869 12.2542 0.883202 12.2567 0.883202 14.0983C0.883202 15.9399 0.234375 15.9399 0.234375 17.7815C0.234375 19.6231 0.573424 19.6231 0.573424 21.4646C0.573424 23.3062 0.73685 23.3062 0.73685 25.1478C0.73685 26.765 1.88327 27.8261 3.49802 27.8261C5.25425 27.8261 5.25425 28.3529 7.01047 28.3529C8.7667 28.3529 8.7667 28.0724 10.5229 28.0724C12.2791 28.0724 12.2791 28.2139 14.0354 28.2139C15.7916 28.2139 15.7916 27.9798 17.5454 27.9798C19.2992 27.9798 19.3016 28.4261 21.0578 28.4261C22.814 28.4261 22.814 28.3407 24.5678 28.3407C26.3216 28.3407 26.3241 28.3676 28.0803 28.3676C29.8365 28.3676 29.8365 28.0066 31.5927 28.0066C32.4879 28.0066 33.1245 28.653 33.6807 29.3579C34.8808 30.8775 34.9539 30.8214 36.154 32.341C37.3541 33.8607 37.2834 33.9168 38.4835 35.4388C39.3787 36.573 41.0544 35.7242 40.9422 34.2826C40.8251 32.7703 41.0007 32.7581 40.8812 31.2458C40.7495 29.5457 42.274 28.131 43.9814 28.131C44.84 28.131 44.84 27.8578 45.6962 27.8578C47.3134 27.8578 48.7305 26.7675 48.7305 25.1503C48.7305 23.3623 48.411 23.3623 48.411 21.572C48.411 19.784 48.8988 19.784 48.8988 17.9961C48.8988 16.2082 48.6159 16.2082 48.6159 14.4178C48.6159 12.6299 48.8135 12.6299 48.8135 10.8419C48.8135 9.05156 48.9818 9.04181 48.9306 7.25387C48.8793 5.46594 48.4695 5.47326 48.4695 3.68288L48.4671 3.68776Z" fill="#FDD853"/>
<path id="Vector 10392" d="M11.6992 11.6909C11.6992 11.6909 12.1014 12.7886 12.6749 12.7886C13.2484 12.7886 13.6506 11.6909 13.6506 11.6909" stroke="#272D34" stroke-width="0.7" stroke-linecap="round" stroke-linejoin="round"/>
<circle id="Ellipse 2788" cx="8.03947" cy="11.6908" r="1.70744" fill="#FF80B4" fill-opacity="0.55"/>
<circle id="Ellipse 2789" cx="17.309" cy="11.6908" r="1.70744" fill="#FF80B4" fill-opacity="0.55"/>
<path id="Vector 10390" d="M8.28125 9.00781L11.4522 9.73957L8.28125 11.0811" stroke="#272D34" stroke-width="0.7" stroke-linecap="round" stroke-linejoin="round"/>
<path id="Vector 10391" d="M17.0625 9.00781L13.8915 9.73957L17.0625 11.0811" stroke="#272D34" stroke-width="0.7" stroke-linecap="round" stroke-linejoin="round"/>
</g>
</svg>
