<svg width="163" height="163" viewBox="0 0 163 163" fill="none" xmlns="http://www.w3.org/2000/svg">
<g id="Star 2" filter="url(#filter0_f_1403_7098)">
<path d="M77.9728 22.5944C79.4801 19.7765 83.5199 19.7765 85.0272 22.5944L95.2427 41.6934C96.1424 43.3754 98.1045 44.1881 99.9299 43.6349L120.658 37.3534C123.717 36.4266 126.573 39.2832 125.647 42.3415L119.365 63.0701C118.812 64.8955 119.625 66.8576 121.307 67.7573L140.406 77.9728C143.224 79.4801 143.224 83.5199 140.406 85.0272L121.307 95.2427C119.625 96.1424 118.812 98.1045 119.365 99.9299L125.647 120.658C126.573 123.717 123.717 126.573 120.659 125.647L99.9299 119.365C98.1045 118.812 96.1424 119.625 95.2427 121.307L85.0272 140.406C83.5199 143.224 79.4801 143.224 77.9728 140.406L67.7573 121.307C66.8576 119.625 64.8955 118.812 63.0701 119.365L42.3415 125.647C39.2832 126.573 36.4266 123.717 37.3533 120.659L43.6349 99.9299C44.1881 98.1045 43.3754 96.1424 41.6934 95.2427L22.5944 85.0272C19.7765 83.5199 19.7765 79.4801 22.5944 77.9728L41.6934 67.7573C43.3754 66.8576 44.1881 64.8955 43.6349 63.0701L37.3534 42.3415C36.4266 39.2832 39.2832 36.4266 42.3415 37.3533L63.0701 43.6349C64.8955 44.1881 66.8576 43.3754 67.7573 41.6934L77.9728 22.5944Z" fill="#FDD853" fill-opacity="0.2"/>
</g>
<defs>
<filter id="filter0_f_1403_7098" x="0.480469" y="0.480957" width="162.039" height="162.038" filterUnits="userSpaceOnUse" color-interpolation-filters="sRGB">
<feFlood flood-opacity="0" result="BackgroundImageFix"/>
<feBlend mode="normal" in="SourceGraphic" in2="BackgroundImageFix" result="shape"/>
<feGaussianBlur stdDeviation="10" result="effect1_foregroundBlur_1403_7098"/>
</filter>
</defs>
</svg>
