<svg width="214" height="198" viewBox="0 0 214 198" fill="none" xmlns="http://www.w3.org/2000/svg">
<g id="Star 3" filter="url(#filter0_f_1403_7101)">
<path d="M103.473 22.5944C104.98 19.7765 109.02 19.7765 110.527 22.5944L126.695 52.8225C127.595 54.5044 129.557 55.3171 131.383 54.764L164.19 44.8221C167.248 43.8953 170.105 46.752 169.178 49.8103L159.236 82.6174C158.683 84.4429 159.496 86.405 161.178 87.3046L191.406 103.473C194.224 104.98 194.224 109.02 191.406 110.527L161.178 126.695C159.496 127.595 158.683 129.557 159.236 131.383L169.178 164.19C170.105 167.248 167.248 170.105 164.19 169.178L131.383 159.236C129.557 158.683 127.595 159.496 126.695 161.178L110.527 191.406C109.02 194.224 104.98 194.224 103.473 191.406L87.3046 161.178C86.405 159.496 84.4429 158.683 82.6174 159.236L49.8103 169.178C46.752 170.105 43.8953 167.248 44.8221 164.19L54.764 131.383C55.3171 129.557 54.5044 127.595 52.8225 126.695L22.5944 110.527C19.7765 109.02 19.7765 104.98 22.5944 103.473L52.8225 87.3046C54.5044 86.405 55.3171 84.4429 54.764 82.6174L44.8221 49.8103C43.8953 46.752 46.752 43.8953 49.8103 44.8221L82.6174 54.764C84.4429 55.3171 86.405 54.5044 87.3046 52.8225L103.473 22.5944Z" fill="#FF006A" fill-opacity="0.15"/>
</g>
<defs>
<filter id="filter0_f_1403_7101" x="0.480469" y="0.480957" width="213.039" height="213.038" filterUnits="userSpaceOnUse" color-interpolation-filters="sRGB">
<feFlood flood-opacity="0" result="BackgroundImageFix"/>
<feBlend mode="normal" in="SourceGraphic" in2="BackgroundImageFix" result="shape"/>
<feGaussianBlur stdDeviation="10" result="effect1_foregroundBlur_1403_7101"/>
</filter>
</defs>
</svg>
