<svg width="147" height="147" viewBox="0 0 147 147" fill="none" xmlns="http://www.w3.org/2000/svg">
<g id="Star 5" filter="url(#filter0_f_1403_7099)">
<path d="M70.9421 30.7822C72.0352 28.7387 74.9648 28.7387 76.0579 30.7822L83.4661 44.6326C84.1185 45.8524 85.5414 46.4417 86.8652 46.0406L101.897 41.4853C104.115 40.8132 106.187 42.8848 105.515 45.1026L100.959 60.1348C100.558 61.4586 101.148 62.8815 102.367 63.5339L116.218 70.9421C118.261 72.0352 118.261 74.9648 116.218 76.0579L102.367 83.4661C101.148 84.1185 100.558 85.5414 100.959 86.8652L105.515 101.897C106.187 104.115 104.115 106.187 101.897 105.515L86.8652 100.959C85.5414 100.558 84.1185 101.148 83.4661 102.367L76.0579 116.218C74.9648 118.261 72.0352 118.261 70.9421 116.218L63.5339 102.367C62.8815 101.148 61.4586 100.558 60.1348 100.959L45.1026 105.515C42.8848 106.187 40.8132 104.115 41.4853 101.897L46.0406 86.8652C46.4417 85.5414 45.8524 84.1185 44.6326 83.4661L30.7822 76.0579C28.7387 74.9648 28.7387 72.0352 30.7822 70.9421L44.6326 63.5339C45.8524 62.8815 46.4417 61.4586 46.0406 60.1348L41.4853 45.1026C40.8132 42.8848 42.8848 40.8132 45.1026 41.4853L60.1348 46.0406C61.4586 46.4417 62.8815 45.8524 63.5339 44.6326L70.9421 30.7822Z" fill="#3D5BF5" fill-opacity="0.15"/>
</g>
<defs>
<filter id="filter0_f_1403_7099" x="0.242367" y="0.241879" width="146.515" height="146.516" filterUnits="userSpaceOnUse" color-interpolation-filters="sRGB">
<feFlood flood-opacity="0" result="BackgroundImageFix"/>
<feBlend mode="normal" in="SourceGraphic" in2="BackgroundImageFix" result="shape"/>
<feGaussianBlur stdDeviation="14.5038" result="effect1_foregroundBlur_1403_7099"/>
</filter>
</defs>
</svg>
