<svg width="10" height="18" viewBox="0 0 10 18" fill="none" xmlns="http://www.w3.org/2000/svg">
<path d="M0.799999 2.7C0.499999 2.4 0.408332 2.075 0.524999 1.725C0.641666 1.39167 0.883333 1.16667 1.25 1.05C1.6 0.933334 1.91667 1.01667 2.2 1.3L9.225 8.3C9.44167 8.53333 9.55 8.76667 9.55 9C9.55 9.25 9.44167 9.48333 9.225 9.7L2.2 16.7C1.91667 16.9833 1.6 17.0667 1.25 16.95C0.899999 16.8333 0.666666 16.6 0.549999 16.25C0.416666 15.9167 0.499999 15.6 0.799999 15.3L7.075 9L0.799999 2.7Z" fill="#535D68"/>
</svg>
