<svg width="151" height="154" viewBox="0 0 151 154" fill="none" xmlns="http://www.w3.org/2000/svg">
<path d="M125.258 64.7736C125.258 98.178 98.1785 125.258 64.7739 125.258C31.3694 125.258 4.28965 98.178 4.28965 64.7736C4.28965 31.3693 31.3694 4.28965 64.7739 4.28965C98.1785 4.28965 125.258 31.3693 125.258 64.7736Z" fill="#B2BDFB" stroke="#3D5BF5" stroke-width="8.57931"/>
<path d="M145 148.432L107.241 110.673" stroke="#3D5BF5" stroke-width="11.1531" stroke-linecap="round"/>
<path d="M100.285 111.601L108.172 103.714L116.058 111.601L111.534 122.847L100.285 111.601Z" fill="#001584"/>
<mask id="mask0_1403_7033" style="mask-type:alpha" maskUnits="userSpaceOnUse" x="0" y="0" width="130" height="130">
<path d="M125.258 64.7736C125.258 98.178 98.1785 125.258 64.7739 125.258C31.3694 125.258 4.28965 98.178 4.28965 64.7736C4.28965 31.3693 31.3694 4.28965 64.7739 4.28965C98.1785 4.28965 125.258 31.3693 125.258 64.7736Z" fill="#B2BDFB" stroke="#3D5BF5" stroke-width="8.57931"/>
</mask>
<g mask="url(#mask0_1403_7033)">
<path d="M66.346 80.1138C66.7 75.9756 61.9709 70.7675 57.8327 70.4136C53.4947 70.0425 53.3398 71.8526 49.0018 71.4816C44.6638 71.1105 44.6734 70.9982 40.3354 70.6271C35.9974 70.2561 35.9446 70.874 31.6066 70.5029C27.2686 70.1319 27.378 68.8524 23.04 68.4813C18.702 68.1103 18.6716 68.466 14.3399 68.0955C10.0081 67.725 10.0878 66.7196 5.74981 66.3485C1.41181 65.9775 1.2415 67.9686 -3.0965 67.5975C-7.4345 67.2265 -7.35495 66.2965 -11.6929 65.9254C-16.0309 65.5544 -15.8692 63.6631 -20.2072 63.2921C-24.5452 62.921 -24.6845 64.5501 -29.0288 64.1785C-33.167 63.8246 -35.7579 67.2119 -36.1119 71.3501C-36.4968 75.8504 -36.5905 75.8424 -36.9759 80.3489C-37.3614 84.8554 -39.6516 84.6532 -40.0365 89.1535C-40.4214 93.6537 -39.0108 93.7744 -39.3957 98.2747C-39.7807 102.775 -38.0455 102.923 -38.4309 107.43C-38.8164 111.936 -41.2127 111.725 -41.5976 116.225C-41.9826 120.726 -40.7223 120.84 -41.1072 125.34C-41.4921 129.84 -43.8026 129.655 -44.1881 134.162C-44.5421 138.3 -39.9635 143.357 -35.8315 143.71C-33.6781 143.894 -33.723 144.419 -31.5696 144.603C-28.5111 144.864 -24.226 144.678 -23.3262 147.609C-22.1613 151.412 -23.7752 151.903 -22.6103 155.706C-21.8236 158.269 -19.5121 160.868 -17.2251 161.548C-14.938 162.228 -12.6 160.988 -10.5355 159.272C-7.12436 156.439 -6.44566 157.252 -3.03449 154.419C0.376682 151.586 0.627831 151.884 4.03953 149.044C5.55567 147.785 6.73772 144.182 8.71011 144.351C12.9607 144.715 12.7861 146.756 17.0305 147.119C21.2749 147.482 21.1968 148.469 25.4411 148.832C29.6855 149.195 29.6432 149.763 33.8876 150.126C38.1319 150.489 38.2519 149.16 42.5025 149.524C46.7531 149.887 46.7307 150.15 50.9813 150.513C55.2319 150.877 58.5213 147.115 58.8753 142.977C59.2602 138.477 57.8121 138.353 58.1976 133.847C58.5831 129.34 60.6111 129.52 60.9965 125.013C61.382 120.507 60.2954 120.42 60.6804 115.92C61.0653 111.42 61.5459 111.461 61.9314 106.954C62.3168 102.448 63.2463 102.533 63.6312 98.0332C64.0167 93.5267 61.2293 93.0368 62.1977 88.6242C63.1662 84.2115 65.9605 84.6203 66.3455 80.1201L66.346 80.1138Z" fill="#FF80B4"/>
<path d="M66.346 80.1138C66.7 75.9756 61.9709 70.7675 57.8327 70.4136C53.4947 70.0425 53.3398 71.8526 49.0018 71.4816C44.6638 71.1105 44.6734 70.9982 40.3354 70.6271C35.9974 70.2561 35.9446 70.874 31.6066 70.5029C27.2686 70.1319 27.378 68.8524 23.04 68.4813C18.702 68.1103 18.6716 68.466 14.3399 68.0955C10.0081 67.725 10.0878 66.7196 5.74981 66.3485C1.41181 65.9775 1.2415 67.9686 -3.0965 67.5975C-7.4345 67.2265 -7.35495 66.2965 -11.6929 65.9254C-16.0309 65.5544 -15.8692 63.6631 -20.2072 63.2921C-24.5452 62.921 -24.6845 64.5501 -29.0288 64.1785C-33.167 63.8246 -35.7579 67.2119 -36.1119 71.3501C-36.4968 75.8504 -36.5905 75.8424 -36.9759 80.3489C-37.3614 84.8554 -39.6516 84.6532 -40.0365 89.1535C-40.4214 93.6537 -39.0108 93.7744 -39.3957 98.2747C-39.7807 102.775 -38.0455 102.923 -38.4309 107.43C-38.8164 111.936 -41.2127 111.725 -41.5976 116.225C-41.9826 120.726 -40.7223 120.84 -41.1072 125.34C-41.4921 129.84 -43.8026 129.655 -44.1881 134.162C-44.5421 138.3 -39.9635 143.357 -35.8315 143.71C-33.6781 143.894 -33.723 144.419 -31.5696 144.603C-28.5111 144.864 -24.226 144.678 -23.3262 147.609C-22.1613 151.412 -23.7752 151.903 -22.6103 155.706C-21.8236 158.269 -19.5121 160.868 -17.2251 161.548C-14.938 162.228 -12.6 160.988 -10.5355 159.272C-7.12436 156.439 -6.44566 157.252 -3.03449 154.419C0.376682 151.586 0.627831 151.884 4.03953 149.044C5.55567 147.785 6.73772 144.182 8.71011 144.351C12.9607 144.715 12.7861 146.756 17.0305 147.119C21.2749 147.482 21.1968 148.469 25.4411 148.832C29.6855 149.195 29.6432 149.763 33.8876 150.126C38.1319 150.489 38.2519 149.16 42.5025 149.524C46.7531 149.887 46.7307 150.15 50.9813 150.513C55.2319 150.877 58.5213 147.115 58.8753 142.977C59.2602 138.477 57.8121 138.353 58.1976 133.847C58.5831 129.34 60.6111 129.52 60.9965 125.013C61.382 120.507 60.2954 120.42 60.6804 115.92C61.0653 111.42 61.5459 111.461 61.9314 106.954C62.3168 102.448 63.2463 102.533 63.6312 98.0332C64.0167 93.5267 61.2293 93.0368 62.1977 88.6242C63.1662 84.2115 65.9605 84.6203 66.3455 80.1201L66.346 80.1138Z" fill="url(#paint0_linear_1403_7033)" fill-opacity="0.35"/>
<ellipse opacity="0.5" cx="3.07431" cy="3.07429" rx="3.07431" ry="3.07429" transform="matrix(0.955019 0.296543 -0.296546 0.955019 24.1602 79.6621)" fill="#FF006A"/>
<ellipse opacity="0.5" cx="3.07431" cy="3.07429" rx="3.07431" ry="3.07429" transform="matrix(0.955019 0.296543 -0.296546 0.955019 49.1875 87.8955)" fill="#FF006A"/>
<path d="M26.0547 83.9297C26.1481 92.5461 46.045 98.718 51.2206 91.744" stroke="#121212" stroke-width="1.14519" stroke-linecap="round"/>
<path d="M31.2852 83.4712C31.3101 86.5319 35.4163 87.7465 36.7601 85.0906" stroke="#121212" stroke-width="1.14519" stroke-linecap="round"/>
<path d="M40.5508 86.2114C40.5757 89.2721 44.6819 90.4867 46.0257 87.8309" stroke="#121212" stroke-width="1.14519" stroke-linecap="round"/>
<path d="M149.647 -5.99495C149.538 -8.79515 146.543 -10.4595 143.738 -10.3503C140.336 -10.218 140.286 -11.4921 136.884 -11.3597C133.481 -11.2274 133.52 -10.2333 130.118 -10.101C128.942 -10.0552 127.708 -10.54 126.773 -11.2515C123.517 -13.7237 123.175 -13.271 119.919 -15.7431C116.663 -18.2153 117.406 -19.1883 114.15 -21.6604C113.216 -22.372 111.773 -21.2408 110.597 -21.1951C107.316 -21.0674 107.277 -22.0848 103.996 -21.9572C100.715 -21.8296 100.694 -22.357 97.4134 -22.2293C94.1325 -22.1017 94.1777 -20.9396 90.8968 -20.812C87.6159 -20.6843 87.552 -22.3271 84.271 -22.1995C80.9901 -22.0719 81.0083 -21.6052 77.7273 -21.4775C74.4464 -21.3499 74.5089 -19.7445 71.2233 -19.6167C67.9377 -19.4888 67.8559 -21.7105 64.5703 -21.5827C61.7701 -21.4738 58.7466 -17.9721 58.8556 -15.1719C58.9816 -11.933 60.1063 -11.9768 60.2321 -8.74254C60.358 -5.5083 60.2881 -5.50091 60.4139 -2.26667C60.5398 0.967569 60.9226 0.957346 61.0485 4.19159C61.1743 7.42582 60.3809 7.4567 60.5069 10.6956C60.6329 13.9345 60.8522 13.926 60.978 17.1602C61.1038 20.3945 60.4786 20.4235 60.6046 23.6624C60.7306 26.9013 61.9674 26.8531 62.0932 30.0874C62.219 33.3216 61.6405 33.3488 61.7665 36.5877C61.8925 39.8266 60.7211 39.8722 60.8471 43.1111C60.9199 44.9826 63.1244 46.7431 64.8196 47.5465C67.0101 48.5831 69.4396 48.797 71.4924 49.6614C73.7212 50.603 75.8212 51.4794 77.9339 52.2012C80.2124 52.9773 82.053 54.995 84.246 55.4986C86.5569 56.0257 89.0248 55.5464 91.3089 55.7473C93.6119 55.9522 95.8428 54.9073 98.1878 54.7506C100.533 54.5939 102.878 55.7554 105.228 55.2526C107.397 54.7896 109.415 53.4164 111.721 52.6303C113.811 51.9227 116.508 52.4067 118.751 51.422C120.773 50.5347 122.824 49.3145 124.991 48.1925C126.599 47.3588 127.57 47.6856 129.077 48.5618C129.698 48.9255 131.458 45.7255 131.873 46.3123C134.304 49.2184 133.526 49.8704 135.984 52.7521C138.438 55.6387 139.257 54.9338 141.729 57.801C142.695 58.8525 143.659 58.9926 143.861 57.5825C143.549 54.851 143.87 54.8198 143.526 52.0895C143.688 50.9661 143.952 49.0956 144.177 47.1938C144.437 44.9822 144.02 41.7219 145.341 41.6705C145.551 41.6623 145.6 42.9271 145.815 42.9187C148.615 42.8098 151.514 40.3133 151.405 37.513C151.264 33.8868 151.619 33.873 151.477 30.2421C151.336 26.6158 150.51 26.6479 150.369 23.0217C150.228 19.3954 150.391 19.389 150.25 15.7581C150.109 12.1318 149.516 12.1549 149.375 8.52396C149.234 4.89302 148.116 4.86641 148.194 1.23627C148.273 -2.39386 149.792 -2.39686 149.651 -6.02313L149.647 -5.99495Z" fill="#11EBC5"/>
<path d="M149.647 -5.99495C149.538 -8.79515 146.543 -10.4595 143.738 -10.3503C140.336 -10.218 140.286 -11.4921 136.884 -11.3597C133.481 -11.2274 133.52 -10.2333 130.118 -10.101C128.942 -10.0552 127.708 -10.54 126.773 -11.2515C123.517 -13.7237 123.175 -13.271 119.919 -15.7431C116.663 -18.2153 117.406 -19.1883 114.15 -21.6604C113.216 -22.372 111.773 -21.2408 110.597 -21.1951C107.316 -21.0674 107.277 -22.0848 103.996 -21.9572C100.715 -21.8296 100.694 -22.357 97.4134 -22.2293C94.1325 -22.1017 94.1777 -20.9396 90.8968 -20.812C87.6159 -20.6843 87.552 -22.3271 84.271 -22.1995C80.9901 -22.0719 81.0083 -21.6052 77.7273 -21.4775C74.4464 -21.3499 74.5089 -19.7445 71.2233 -19.6167C67.9377 -19.4888 67.8559 -21.7105 64.5703 -21.5827C61.7701 -21.4738 58.7466 -17.9721 58.8556 -15.1719C58.9816 -11.933 60.1063 -11.9768 60.2321 -8.74254C60.358 -5.5083 60.2881 -5.50091 60.4139 -2.26667C60.5398 0.967569 60.9226 0.957346 61.0485 4.19159C61.1743 7.42582 60.3809 7.4567 60.5069 10.6956C60.6329 13.9345 60.8522 13.926 60.978 17.1602C61.1038 20.3945 60.4786 20.4235 60.6046 23.6624C60.7306 26.9013 61.9674 26.8531 62.0932 30.0874C62.219 33.3216 61.6405 33.3488 61.7665 36.5877C61.8925 39.8266 60.7211 39.8722 60.8471 43.1111C60.9199 44.9826 63.1244 46.7431 64.8196 47.5465C67.0101 48.5831 69.4396 48.797 71.4924 49.6614C73.7212 50.603 75.8212 51.4794 77.9339 52.2012C80.2124 52.9773 82.053 54.995 84.246 55.4986C86.5569 56.0257 89.0248 55.5464 91.3089 55.7473C93.6119 55.9522 95.8428 54.9073 98.1878 54.7506C100.533 54.5939 102.878 55.7554 105.228 55.2526C107.397 54.7896 109.415 53.4164 111.721 52.6303C113.811 51.9227 116.508 52.4067 118.751 51.422C120.773 50.5347 122.824 49.3145 124.991 48.1925C126.599 47.3588 127.57 47.6856 129.077 48.5618C129.698 48.9255 131.458 45.7255 131.873 46.3123C134.304 49.2184 133.526 49.8704 135.984 52.7521C138.438 55.6387 139.257 54.9338 141.729 57.801C142.695 58.8525 143.659 58.9926 143.861 57.5825C143.549 54.851 143.87 54.8198 143.526 52.0895C143.688 50.9661 143.952 49.0956 144.177 47.1938C144.437 44.9822 144.02 41.7219 145.341 41.6705C145.551 41.6623 145.6 42.9271 145.815 42.9187C148.615 42.8098 151.514 40.3133 151.405 37.513C151.264 33.8868 151.619 33.873 151.477 30.2421C151.336 26.6158 150.51 26.6479 150.369 23.0217C150.228 19.3954 150.391 19.389 150.25 15.7581C150.109 12.1318 149.516 12.1549 149.375 8.52396C149.234 4.89302 148.116 4.86641 148.194 1.23627C148.273 -2.39386 149.792 -2.39686 149.651 -6.02313L149.647 -5.99495Z" fill="#11EBC5"/>
<path d="M79.6836 34.6196C81.6321 36.6472 84.1222 34.574 86.2265 34.5988C88.3308 34.6236 90.7328 36.2931 92.527 34.3537" stroke="#1A1E22" stroke-width="0.744576" stroke-linecap="round" stroke-linejoin="round"/>
<ellipse cx="82.7642" cy="29.8253" rx="1.40117" ry="3.03585" transform="rotate(-2.22771 82.7642 29.8253)" fill="#272D34"/>
<ellipse cx="88.8345" cy="29.589" rx="1.40117" ry="3.03585" transform="rotate(-2.22771 88.8345 29.589)" fill="#272D34"/>
</g>
<path d="M125.258 64.7736C125.258 98.178 98.1785 125.258 64.7739 125.258C31.3694 125.258 4.28965 98.178 4.28965 64.7736C4.28965 31.3693 31.3694 4.28965 64.7739 4.28965C98.1785 4.28965 125.258 31.3693 125.258 64.7736Z" stroke="#3D5BF5" stroke-width="8.57931"/>
<path d="M109.284 83.4483C109.284 83.4483 113.1 74.817 112.774 63.8854C112.447 52.9538 108.252 45.4705 108.252 45.4705" stroke="white" stroke-width="6.00552" stroke-linecap="round"/>
<ellipse cx="3.00275" cy="3.00276" rx="3.00275" ry="3.00276" transform="matrix(0.404365 -0.914598 0.914599 0.404361 99.5234 38.0938)" fill="white"/>
<defs>
<linearGradient id="paint0_linear_1403_7033" x1="14.5748" y1="66.2671" x2="6.24523" y2="163.65" gradientUnits="userSpaceOnUse">
<stop stop-color="#FFCCE1"/>
<stop offset="1" stop-color="#FF006A"/>
</linearGradient>
</defs>
</svg>
