<svg width="90" height="90" viewBox="0 0 90 90" fill="none" xmlns="http://www.w3.org/2000/svg">
<g id="Star 4" filter="url(#filter0_f_1403_7100)">
<path d="M43.0614 12.6244C43.8898 11.0756 46.1102 11.0756 46.9386 12.6244L52.5533 23.1216C53.0477 24.046 54.1261 24.4927 55.1294 24.1887L66.5222 20.7362C68.2031 20.2268 69.7732 21.7969 69.2638 23.4778L65.8114 34.8706C65.5073 35.8739 65.954 36.9523 66.8784 37.4467L77.3756 43.0614C78.9244 43.8898 78.9244 46.1102 77.3756 46.9386L66.8784 52.5533C65.954 53.0477 65.5073 54.1261 65.8114 55.1294L69.2638 66.5222C69.7732 68.2031 68.2031 69.7732 66.5222 69.2638L55.1294 65.8114C54.1261 65.5073 53.0477 65.954 52.5533 66.8784L46.9386 77.3756C46.1102 78.9244 43.8898 78.9244 43.0614 77.3756L37.4467 66.8784C36.9523 65.954 35.8739 65.5073 34.8706 65.8114L23.4778 69.2638C21.7969 69.7732 20.2268 68.2031 20.7362 66.5222L24.1887 55.1294C24.4927 54.1261 24.046 53.0477 23.1216 52.5533L12.6244 46.9386C11.0756 46.1102 11.0756 43.8898 12.6244 43.0614L23.1216 37.4467C24.046 36.9523 24.4927 35.8739 24.1887 34.8706L20.7362 23.4778C20.2268 21.7969 21.7969 20.2268 23.4778 20.7362L34.8706 24.1887C35.8739 24.4927 36.9523 24.046 37.4467 23.1216L43.0614 12.6244Z" fill="#11EBC5" fill-opacity="0.15"/>
</g>
<defs>
<filter id="filter0_f_1403_7100" x="0.468572" y="0.470525" width="89.0629" height="89.059" filterUnits="userSpaceOnUse" color-interpolation-filters="sRGB">
<feFlood flood-opacity="0" result="BackgroundImageFix"/>
<feBlend mode="normal" in="SourceGraphic" in2="BackgroundImageFix" result="shape"/>
<feGaussianBlur stdDeviation="5.49618" result="effect1_foregroundBlur_1403_7100"/>
</filter>
</defs>
</svg>
