<svg xmlns="http://www.w3.org/2000/svg" width="335" height="335" fill="none" viewBox="0 0 335 335">
  <path fill="#FDD853" d="M306.5 200s.19 5.135 1.756 7.299C309.648 209.224 313 210 313 210s-3.352.776-4.744 2.701C306.69 214.865 306.5 220 306.5 220s-.19-5.135-1.756-7.299C303.352 210.776 300 210 300 210s3.352-.776 4.744-2.701C306.31 205.135 306.5 200 306.5 200Z"/>
  <path fill="#11EBC5" d="M53.374 183.076c.357-1.775 2.895-1.775 3.252 0a1.658 1.658 0 0 0 1.298 1.298c1.775.357 1.775 2.895 0 3.252a1.658 1.658 0 0 0-1.298 1.298c-.357 1.775-2.895 1.775-3.252 0a1.658 1.658 0 0 0-1.298-1.298c-1.775-.357-1.775-2.895 0-3.252a1.658 1.658 0 0 0 1.298-1.298Z"/>
  <circle cx="312.5" cy="155.5" r="2.5" fill="#FF80B4"/>
  <path stroke="#FF80B4" stroke-linecap="round" stroke-width="3" d="M24.148 252.525s1.514 1.86 4.16 1.09c2.772-.806 2.292-3.967 4.73-5.528 3.196-2.047 6.645 2.613 9.665.308 2-1.526 3.054-5.7 3.054-5.7"/>
  <path stroke="#3D5BF5" stroke-linecap="round" stroke-width="3" d="M309 141s2.738-5.363 6-6.5c3.58-1.248 6.155 3.784 9.5 2 2.63-1.402 4-6.5 4-6.5"/>
  <path stroke="#FF80B4" stroke-linecap="round" stroke-width="3" d="M304 236.102s2-1.5 4-1 4.747 4.645 8.5 4.5c2.284-.088 5.5-2 5.5-2"/>
  <path stroke="#FDD853" stroke-linecap="round" stroke-width="3" d="M24 163.316s4.464-2.093 7-1c3.463 1.493.14 7.29 3.5 9 3.209 1.633 9-2 9-2"/>
  <path fill="#FF80B4" d="M229.553 61.103c.497-3.396 5.397-3.396 5.894 0a2.982 2.982 0 0 0 4.061 2.331c3.196-1.281 5.592 3.032 2.914 5.197-1.498 1.21-1.498 3.527 0 4.738 2.678 2.165.282 6.478-2.914 5.197a2.982 2.982 0 0 0-4.061 2.33c-.497 3.397-5.397 3.397-5.894 0a2.982 2.982 0 0 0-4.061-2.33c-3.196 1.281-5.592-3.032-2.914-5.197 1.498-1.21 1.498-3.527 0-4.738-2.678-2.165-.282-6.478 2.914-5.197a2.982 2.982 0 0 0 4.061-2.33Z"/>
  <path fill="#3D5BF5" d="M262.4 29.069c.267-1.848 2.933-1.848 3.2 0a1.62 1.62 0 0 0 2.214 1.265c1.739-.708 3.127 1.584 1.675 2.775l-.128.105a1.662 1.662 0 0 0 0 2.572l.128.105c1.452 1.19.064 3.483-1.675 2.775a1.62 1.62 0 0 0-2.214 1.265c-.267 1.848-2.933 1.848-3.2 0a1.62 1.62 0 0 0-2.214-1.265c-1.739.708-3.127-1.584-1.675-2.775l.128-.105a1.662 1.662 0 0 0 0-2.572l-.128-.105c-1.452-1.19-.064-3.483 1.675-2.775a1.62 1.62 0 0 0 2.214-1.265Z"/>
  <path fill="#11EBC5" d="M122.867 84.673c.593-3.535 5.673-3.535 6.266 0a3.177 3.177 0 0 0 4.244 2.45c3.358-1.254 5.898 3.146 3.133 5.427a3.177 3.177 0 0 0 0 4.9c2.765 2.281.225 6.68-3.133 5.427a3.176 3.176 0 0 0-4.244 2.45c-.593 3.535-5.673 3.535-6.266 0a3.176 3.176 0 0 0-4.244-2.45c-3.358 1.253-5.898-3.146-3.133-5.427a3.177 3.177 0 0 0 0-4.9c-2.765-2.281-.225-6.68 3.133-5.427a3.177 3.177 0 0 0 4.244-2.45Z"/>
  <path fill="#FDD853" d="M49.8 26.084c.37-2.536 4.03-2.536 4.4 0a2.225 2.225 0 0 0 3.033 1.739c2.387-.963 4.163 2.277 2.166 3.9-1.116.908-1.116 2.646 0 3.553 1.997 1.624.221 4.864-2.166 3.901a2.225 2.225 0 0 0-3.034 1.739c-.37 2.536-4.028 2.536-4.398 0a2.225 2.225 0 0 0-3.034-1.739c-2.387.963-4.163-2.277-2.166-3.9 1.116-.908 1.116-2.646 0-3.553-1.997-1.624-.221-4.864 2.166-3.901a2.225 2.225 0 0 0 3.034-1.739Z"/>
  <path fill="#3D5BF5" d="M57.827 267.617c0 1.698.613 3.223 1.694 4.331 1.082 1.108 2.562 2.537 4.204 2.537 2.042 0 2.042-1.078 4.083-1.078 2.041 0 2.041.22 4.077.22s2.041-.256 4.083-.256c2.041 0 2.041-.423 4.082-.423 2.042 0 2.042.346 4.083.346 2.041 0 2.041.25 4.083.25 2.041 0 2.041.065 4.082.065 2.042 0 2.042-.351 4.083-.351 2.041 0 2.041-.161 4.083-.161 2.041 0 2.041.387 4.082.387 2.042 0 2.042 1.096 4.083 1.096 2.041 0 2.041-.953 4.083-.953 2.041 0 2.041-.565 4.082-.565 2.042 0 2.042.274 4.083.274 2.041 0 2.041 1.155 4.083 1.155 2.041 0 2.041-.089 4.082-.089 2.042 0 2.042-.751 4.083-.751 2.041 0 2.041-.131 4.083-.131 2.041 0 2.041.238 4.083.238 2.041 0 2.041-.357 4.082-.357 2.042 0 2.042.858 4.083.858 2.041 0 2.041-.405 4.088-.405s2.042.059 4.089.059c1.648 0 3.325-.655 4.406-1.769 1.082-1.114 1.203-2.841 1.203-4.539 0-2.15 1.174-2.15 1.174-4.306 0-2.157.017-2.151.017-4.307 0-2.156-.665-2.15-.665-4.307 0-2.156-.792-2.15-.792-4.306 0-2.157.584-2.151.584-4.307 0-2.156-.804-2.15-.804-4.306 0-2.157 1.458-2.151 1.458-4.307 0-2.156-.608-2.156-.608-4.307 0-2.15-.335-2.156-.335-4.306 0-2.151-.035-2.157-.035-4.307 0-2.15 1.215-2.156 1.215-4.313 0-2.156-.515-2.156-.515-4.312 0-1.698-.943-3.3-2.024-4.414-1.081-1.114-2.637-2.275-4.285-2.275-1.712 0-1.712.983-3.423.983-1.215 0-2.423-.739-3.389-1.406-.966-.667-1.394-1.835-1.851-2.996-.59-1.507-1.006-1.335-1.596-2.836-.59-1.501-.59-1.507-1.179-3.014-.521-1.334-1.718-1.65-2.799-2.305-1.082-.655-2.128-2.514-3.43-2.353-1.301.161-1.769 2.133-2.764 3.145-1.671 1.698-1.775 1.585-3.441 3.282-1.665 1.698-1.752 1.615-3.423 3.306-1.671 1.692-2.388.947-4.06 2.645-1.116 1.132-2.307 2.907-3.874 2.907-2.093 0-2.093-.775-4.187-.775-2.093 0-2.093-.22-4.187-.22-2.093 0-2.093-.238-4.186-.238-2.094 0-2.094 1.28-4.187 1.28-2.093 0-2.093-1.685-4.193-1.685-2.099 0-2.093-.042-4.186-.042-2.094 0-2.094.274-4.187.274-2.093 0-2.093.441-4.187.441-2.093 0-2.093-.209-4.187-.209-2.093 0-2.093 1.037-4.192 1.037-2.1 0-2.094.208-4.193.208-2.099 0-2.093-1.215-4.192-1.215-2.1 0-2.1.429-4.193.429-2.093 0-2.1.107-4.192.107-1.649 0-3.58.018-4.661 1.132-1.082 1.114-1.4 3.103-1.4 4.801 0 2.15-.283 2.15-.283 4.307 0 2.156 1.237 2.15 1.237 4.306s-1.503 2.151-1.503 4.307c0 2.156-.139 2.15-.139 4.306 0 2.157.295 2.151.295 4.307 0 2.156.821 2.15.821 4.307 0 2.156-.168 2.15-.168 4.306 0 2.157.047 2.157.047 4.307 0 2.15.138 2.156.138 4.307 0 2.15-.26 2.156-.26 4.306 0 2.151.174 2.15.191 4.307.017 2.156-.214 2.156-.214 4.312l-.023.024Z"/>
  <path fill="#3D5BF5" d="M57.827 267.617c0 1.698.613 3.223 1.694 4.331 1.082 1.108 2.562 2.537 4.204 2.537 2.042 0 2.042-1.078 4.083-1.078 2.041 0 2.041.22 4.077.22s2.041-.256 4.083-.256c2.041 0 2.041-.423 4.082-.423 2.042 0 2.042.346 4.083.346 2.041 0 2.041.25 4.083.25 2.041 0 2.041.065 4.082.065 2.042 0 2.042-.351 4.083-.351 2.041 0 2.041-.161 4.083-.161 2.041 0 2.041.387 4.082.387 2.042 0 2.042 1.096 4.083 1.096 2.041 0 2.041-.953 4.083-.953 2.041 0 2.041-.565 4.082-.565 2.042 0 2.042.274 4.083.274 2.041 0 2.041 1.155 4.083 1.155 2.041 0 2.041-.089 4.082-.089 2.042 0 2.042-.751 4.083-.751 2.041 0 2.041-.131 4.083-.131 2.041 0 2.041.238 4.083.238 2.041 0 2.041-.357 4.082-.357 2.042 0 2.042.858 4.083.858 2.041 0 2.041-.405 4.088-.405s2.042.059 4.089.059c1.648 0 3.325-.655 4.406-1.769 1.082-1.114 1.203-2.841 1.203-4.539 0-2.15 1.174-2.15 1.174-4.306 0-2.157.017-2.151.017-4.307 0-2.156-.665-2.15-.665-4.307 0-2.156-.792-2.15-.792-4.306 0-2.157.584-2.151.584-4.307 0-2.156-.804-2.15-.804-4.306 0-2.157 1.458-2.151 1.458-4.307 0-2.156-.608-2.156-.608-4.307 0-2.15-.335-2.156-.335-4.306 0-2.151-.035-2.157-.035-4.307 0-2.15 1.215-2.156 1.215-4.313 0-2.156-.515-2.156-.515-4.312 0-1.698-.943-3.3-2.024-4.414-1.081-1.114-2.637-2.275-4.285-2.275-1.712 0-1.712.983-3.423.983-1.215 0-2.423-.739-3.389-1.406-.966-.667-1.394-1.835-1.851-2.996-.59-1.507-1.006-1.335-1.596-2.836-.59-1.501-.59-1.507-1.179-3.014-.521-1.334-1.718-1.65-2.799-2.305-1.082-.655-2.128-2.514-3.43-2.353-1.301.161-1.769 2.133-2.764 3.145-1.671 1.698-1.775 1.585-3.441 3.282-1.665 1.698-1.752 1.615-3.423 3.306-1.671 1.692-2.388.947-4.06 2.645-1.116 1.132-2.307 2.907-3.874 2.907-2.093 0-2.093-.775-4.187-.775-2.093 0-2.093-.22-4.187-.22-2.093 0-2.093-.238-4.186-.238-2.094 0-2.094 1.28-4.187 1.28-2.093 0-2.093-1.685-4.193-1.685-2.099 0-2.093-.042-4.186-.042-2.094 0-2.094.274-4.187.274-2.093 0-2.093.441-4.187.441-2.093 0-2.093-.209-4.187-.209-2.093 0-2.093 1.037-4.192 1.037-2.1 0-2.094.208-4.193.208-2.099 0-2.093-1.215-4.192-1.215-2.1 0-2.1.429-4.193.429-2.093 0-2.1.107-4.192.107-1.649 0-3.58.018-4.661 1.132-1.082 1.114-1.4 3.103-1.4 4.801 0 2.15-.283 2.15-.283 4.307 0 2.156 1.237 2.15 1.237 4.306s-1.503 2.151-1.503 4.307c0 2.156-.139 2.15-.139 4.306 0 2.157.295 2.151.295 4.307 0 2.156.821 2.15.821 4.307 0 2.156-.168 2.15-.168 4.306 0 2.157.047 2.157.047 4.307 0 2.15.138 2.156.138 4.307 0 2.15-.26 2.156-.26 4.306 0 2.151.174 2.15.191 4.307.017 2.156-.214 2.156-.214 4.312l-.023.024Z"/>
  <path stroke="#1A1E22" stroke-linecap="round" stroke-width="1.5" d="m134.859 229.143-7.886 2.285"/>
  <path stroke="#1A1E22" stroke-linecap="round" d="m133.876 226.858-3.45 1.016"/>
  <path stroke="#1A1E22" stroke-linecap="round" stroke-width="1.5" d="m141.059 229.143 7.886 2.285"/>
  <path stroke="#1A1E22" stroke-linecap="round" d="m142.046 226.858 3.45 1.016"/>
  <path stroke="#1A1E22" stroke-linecap="round" stroke-width="1.5" d="M134.004 233.649c1.232 2.285 7.147 2.285 7.886 0"/>
  <path fill="#11EBC5" d="M285.476 205.25c0-3.195-3.645-5.223-7.138-5.223-4.238 0-4.238-1.454-8.476-1.454s-4.238 1.134-8.476 1.134c-1.465 0-2.977-.607-4.104-1.459-3.93-2.96-4.378-2.46-8.308-5.42-3.93-2.961-2.959-4.036-6.889-6.997-1.127-.852-2.976.373-4.441.373-4.087 0-4.087-1.161-8.174-1.161-4.086 0-4.086-.602-8.173-.602s-4.087 1.326-8.174 1.326-4.087-1.874-8.173-1.874c-4.087 0-4.087.532-8.174.532s-4.087 1.832-8.179 1.832c-4.093 0-4.087-2.534-8.18-2.534-3.488 0-7.418 3.855-7.418 7.049 0 3.696 1.401 3.696 1.401 7.386s-.087 3.695-.087 7.385.477 3.695.477 7.385-.989 3.69-.989 7.385c0 3.696.274 3.696.274 7.385 0 3.69-.779 3.696-.779 7.391s1.54 3.695 1.54 7.385-.721 3.695-.721 7.391c0 3.695-1.459 3.695-1.459 7.39 0 2.135 2.657 4.239 4.727 5.229 2.674 1.278 5.685 1.629 8.196 2.705 2.727 1.171 5.296 2.263 7.889 3.179 2.796.985 4.988 3.365 7.691 4.036 2.849.703 5.942.266 8.773.596 2.854.336 5.679-.756 8.603-.831 2.925-.074 5.785 1.353 8.732.884 2.721-.431 5.296-1.906 8.203-2.699 2.633-.714 5.964-.043 8.801-1.065 2.558-.921 5.168-2.22 7.918-3.403 2.041-.878 3.232-.463 5.064.602.755.442 3.098-3.125 3.586-2.439 2.884 3.419 1.884 4.127 4.802 7.519 2.913 3.397 3.965 2.63 6.901 6.006 1.151 1.241 2.342 1.443 2.662-.154-.256-3.126.146-3.147-.151-6.273.256-1.272.674-3.392 1.047-5.548.43-2.508.069-6.241 1.714-6.241.262 0 .262 1.443.529 1.443 3.488 0 7.215-2.715 7.215-5.91 0-4.137.442-4.137.442-8.28 0-4.137-1.029-4.137-1.029-8.274s.203-4.137.203-8.28c0-4.137-.738-4.137-.738-8.279 0-4.143-1.39-4.223-1.116-8.355.273-4.132 2.162-4.068 2.162-8.205l-.006.032Z"/>
  <path fill="#11EBC5" d="M285.476 205.25c0-3.195-3.645-5.223-7.138-5.223-4.238 0-4.238-1.454-8.476-1.454s-4.238 1.134-8.476 1.134c-1.465 0-2.977-.607-4.104-1.459-3.93-2.96-4.378-2.46-8.308-5.42-3.93-2.961-2.959-4.036-6.889-6.997-1.127-.852-2.976.373-4.441.373-4.087 0-4.087-1.161-8.174-1.161-4.086 0-4.086-.602-8.173-.602s-4.087 1.326-8.174 1.326-4.087-1.874-8.173-1.874c-4.087 0-4.087.532-8.174.532s-4.087 1.832-8.179 1.832c-4.093 0-4.087-2.534-8.18-2.534-3.488 0-7.418 3.855-7.418 7.049 0 3.696 1.401 3.696 1.401 7.386s-.087 3.695-.087 7.385.477 3.695.477 7.385-.989 3.69-.989 7.385c0 3.696.274 3.696.274 7.385 0 3.69-.779 3.696-.779 7.391s1.54 3.695 1.54 7.385-.721 3.695-.721 7.391c0 3.695-1.459 3.695-1.459 7.39 0 2.135 2.657 4.239 4.727 5.229 2.674 1.278 5.685 1.629 8.196 2.705 2.727 1.171 5.296 2.263 7.889 3.179 2.796.985 4.988 3.365 7.691 4.036 2.849.703 5.942.266 8.773.596 2.854.336 5.679-.756 8.603-.831 2.925-.074 5.785 1.353 8.732.884 2.721-.431 5.296-1.906 8.203-2.699 2.633-.714 5.964-.043 8.801-1.065 2.558-.921 5.168-2.22 7.918-3.403 2.041-.878 3.232-.463 5.064.602.755.442 3.098-3.125 3.586-2.439 2.884 3.419 1.884 4.127 4.802 7.519 2.913 3.397 3.965 2.63 6.901 6.006 1.151 1.241 2.342 1.443 2.662-.154-.256-3.126.146-3.147-.151-6.273.256-1.272.674-3.392 1.047-5.548.43-2.508.069-6.241 1.714-6.241.262 0 .262 1.443.529 1.443 3.488 0 7.215-2.715 7.215-5.91 0-4.137.442-4.137.442-8.28 0-4.137-1.029-4.137-1.029-8.274s.203-4.137.203-8.28c0-4.137-.738-4.137-.738-8.279 0-4.143-1.39-4.223-1.116-8.355.273-4.132 2.162-4.068 2.162-8.205l-.006.032Z"/>
  <path stroke="#1A1E22" stroke-linecap="round" stroke-linejoin="round" stroke-width="1.5" d="M196.367 244.732c2.313 2.602 5.494.157 8.096.289 2.602.132 5.494 2.313 7.807 0"/>
  <ellipse cx="200.415" cy="238.949" fill="#272D34" rx="1.735" ry="3.759"/>
  <ellipse cx="207.93" cy="238.949" fill="#272D34" rx="1.735" ry="3.759"/>
  <path fill="#FDD853" d="M284.693 117.33c0-3.834-2.741-6.783-6.575-6.783-4.025 0-4.025-.712-8.055-.712-4.025 0-4.025.133-8.056.133-4.03 0-4.024 1.082-8.049 1.082-4.025 0-4.025-1.018-8.056-1.018-4.03 0-4.03.653-8.055.653-4.025 0-4.025-.983-8.056-.983-4.03 0-4.03.133-8.061.133s-4.031 1.342-8.061 1.342c-1.157 0-2.707-1.249-3.724-.7-5.101 2.77-4.823 3.285-9.924 6.055-1.018.555-2.024 1.37-3.18 1.37-4.69 0-4.69.394-9.38.394s-4.69-.532-9.38-.532c-3.834 0-6.083 2.96-6.083 6.789 0 4.366-1.463 4.366-1.463 8.726 0 4.36 1.347 4.366 1.347 8.732s-1.538 4.366-1.538 8.732.804 4.366.804 8.732.387 4.366.387 8.732c0 3.834 2.718 6.35 6.546 6.35 4.164 0 4.164 1.249 8.327 1.249 4.164 0 4.164-.665 8.328-.665 4.163 0 4.163.335 8.327.335s4.164-.555 8.321-.555c4.158 0 4.164 1.058 8.328 1.058 4.163 0 4.163-.202 8.321-.202 4.158 0 4.164.064 8.328.064 4.163 0 4.163-.856 8.327-.856 2.122 0 3.631 1.532 4.95 3.203 2.845 3.603 3.019 3.47 5.864 7.073 2.845 3.603 2.677 3.736 5.522 7.344 2.123 2.689 6.095.677 5.829-2.741-.277-3.585.139-3.614-.144-7.2-.312-4.03 3.302-7.384 7.35-7.384 2.035 0 2.035-.648 4.065-.648 3.834 0 7.194-2.585 7.194-6.419 0-4.239-.758-4.239-.758-8.483 0-4.239 1.157-4.239 1.157-8.478s-.671-4.239-.671-8.483c0-4.239.469-4.239.469-8.478 0-4.245.399-4.268.277-8.507-.121-4.238-1.093-4.221-1.093-8.466l-.006.012Z"/>
  <path fill="#FDD853" fill-opacity=".75" d="M284.693 117.33c0-3.834-2.741-6.783-6.575-6.783-4.025 0-4.025-.712-8.055-.712-4.025 0-4.025.133-8.056.133-4.03 0-4.024 1.082-8.049 1.082-4.025 0-4.025-1.018-8.056-1.018-4.03 0-4.03.653-8.055.653-4.025 0-4.025-.983-8.056-.983-4.03 0-4.03.133-8.061.133s-4.031 1.342-8.061 1.342c-1.157 0-2.707-1.249-3.724-.7-5.101 2.77-4.823 3.285-9.924 6.055-1.018.555-2.024 1.37-3.18 1.37-4.69 0-4.69.394-9.38.394s-4.69-.532-9.38-.532c-3.834 0-6.083 2.96-6.083 6.789 0 4.366-1.463 4.366-1.463 8.726 0 4.36 1.347 4.366 1.347 8.732s-1.538 4.366-1.538 8.732.804 4.366.804 8.732.387 4.366.387 8.732c0 3.834 2.718 6.35 6.546 6.35 4.164 0 4.164 1.249 8.327 1.249 4.164 0 4.164-.665 8.328-.665 4.163 0 4.163.335 8.327.335s4.164-.555 8.321-.555c4.158 0 4.164 1.058 8.328 1.058 4.163 0 4.163-.202 8.321-.202 4.158 0 4.164.064 8.328.064 4.163 0 4.163-.856 8.327-.856 2.122 0 3.631 1.532 4.95 3.203 2.845 3.603 3.019 3.47 5.864 7.073 2.845 3.603 2.677 3.736 5.522 7.344 2.123 2.689 6.095.677 5.829-2.741-.277-3.585.139-3.614-.144-7.2-.312-4.03 3.302-7.384 7.35-7.384 2.035 0 2.035-.648 4.065-.648 3.834 0 7.194-2.585 7.194-6.419 0-4.239-.758-4.239-.758-8.483 0-4.239 1.157-4.239 1.157-8.478s-.671-4.239-.671-8.483c0-4.239.469-4.239.469-8.478 0-4.245.399-4.268.277-8.507-.121-4.238-1.093-4.221-1.093-8.466l-.006.012Z"/>
  <path stroke="#272D34" stroke-linecap="round" stroke-linejoin="round" stroke-width="1.5" d="M197.523 136.303s.954 2.603 2.314 2.603c1.359 0 2.313-2.603 2.313-2.603"/>
  <circle cx="188.849" cy="136.303" r="4.048" fill="#FF80B4" fill-opacity=".55"/>
  <circle cx="210.825" cy="136.303" r="4.048" fill="#FF80B4" fill-opacity=".55"/>
  <path stroke="#272D34" stroke-linecap="round" stroke-linejoin="round" stroke-width="1.5" d="m189.426 129.942 7.517 1.735-7.517 3.181m20.82-4.916-7.518 1.735 7.518 3.181"/>
  <path fill="#FF80B4" d="M165.1 98.708c1.246-3.998-2.28-10.153-6.278-11.4-4.191-1.307-4.737.442-8.928-.865-4.191-1.306-4.157-1.415-8.348-2.722-4.191-1.307-4.377-.71-8.568-2.017-4.191-1.306-3.806-2.543-7.997-3.85-4.191-1.306-4.298-.963-8.483-2.267-4.185-1.305-3.888-2.278-8.079-3.585-4.192-1.307-4.791.617-8.982-.69-4.191-1.307-3.911-2.205-8.102-3.512-4.191-1.307-3.622-3.134-7.813-4.441-4.19-1.307-4.681.267-8.879-1.042-3.998-1.246-7.284 1.527-8.53 5.525-1.356 4.348-1.447 4.32-2.805 8.673-1.357 4.354-3.568 3.658-4.924 8.006-1.356 4.348.007 4.773-1.349 9.12-1.355 4.349.321 4.871-1.037 9.225-1.357 4.354-3.671 3.626-5.027 7.974-1.355 4.348-.14 4.733-1.495 9.081-1.356 4.348-3.59 3.664-4.948 8.018-1.247 3.998 2.164 9.972 6.156 11.216 2.08.649 1.923 1.156 4.003 1.804 2.955.922 7.215 1.668 7.465 4.75.322 3.997-1.374 4.13-1.052 8.128.218 2.694 1.93 5.756 4.034 6.921 2.105 1.166 4.676.453 7.081-.789 3.974-2.049 4.466-1.102 8.44-3.151 3.974-2.05 4.156-1.702 8.132-3.757 1.766-.911 3.712-4.202 5.618-3.608 4.106 1.281 3.492 3.253 7.592 4.531 4.101 1.279 3.81 2.234 7.91 3.512 4.101 1.279 3.936 1.83 8.036 3.108 4.101 1.279 4.507-.004 8.614 1.277 4.107 1.28 4.028 1.533 8.134 2.814 4.107 1.281 8.162-1.709 9.409-5.708 1.356-4.347-.043-4.784 1.314-9.137 1.358-4.354 3.316-3.737 4.673-8.091 1.358-4.354.307-4.675 1.663-9.023 1.355-4.348 1.82-4.203 3.177-8.557 1.358-4.354 2.255-4.068 3.61-8.415 1.358-4.354-1.281-5.442.631-9.577 1.911-4.134 4.574-3.125 5.93-7.473l.002-.006Z"/>
  <g filter="url(#a)">
    <path fill="url(#b)" fill-opacity=".35" d="M165.1 98.708c1.246-3.998-2.28-10.153-6.278-11.4-4.191-1.307-4.737.442-8.928-.865-4.191-1.306-4.157-1.415-8.348-2.722-4.191-1.307-4.377-.71-8.568-2.017-4.191-1.306-3.806-2.543-7.997-3.85-4.191-1.306-4.298-.963-8.483-2.267-4.185-1.305-3.888-2.278-8.079-3.585-4.192-1.307-4.791.617-8.982-.69-4.191-1.307-3.911-2.205-8.102-3.512-4.191-1.307-3.622-3.134-7.813-4.441-4.19-1.307-4.681.267-8.879-1.042-3.998-1.246-7.284 1.527-8.53 5.525-1.356 4.348-1.447 4.32-2.805 8.673-1.357 4.354-3.568 3.658-4.924 8.006-1.356 4.348.007 4.773-1.349 9.12-1.355 4.349.321 4.871-1.037 9.225-1.357 4.354-3.671 3.626-5.027 7.974-1.355 4.348-.14 4.733-1.495 9.081-1.356 4.348-3.59 3.664-4.948 8.018-1.247 3.998 2.164 9.972 6.156 11.216 2.08.649 1.923 1.156 4.003 1.804 2.955.922 7.215 1.668 7.465 4.75.322 3.997-1.374 4.13-1.052 8.128.218 2.694 1.93 5.756 4.034 6.921 2.105 1.166 4.676.453 7.081-.789 3.974-2.049 4.466-1.102 8.44-3.151 3.974-2.05 4.156-1.702 8.132-3.757 1.766-.911 3.712-4.202 5.618-3.608 4.106 1.281 3.492 3.253 7.592 4.531 4.101 1.279 3.81 2.234 7.91 3.512 4.101 1.279 3.936 1.83 8.036 3.108 4.101 1.279 4.507-.004 8.614 1.277 4.107 1.28 4.028 1.533 8.134 2.814 4.107 1.281 8.162-1.709 9.409-5.708 1.356-4.347-.043-4.784 1.314-9.137 1.358-4.354 3.316-3.737 4.673-8.091 1.358-4.354.307-4.675 1.663-9.023 1.355-4.348 1.82-4.203 3.177-8.557 1.358-4.354 2.255-4.068 3.61-8.415 1.358-4.354-1.281-5.442.631-9.577 1.911-4.134 4.574-3.125 5.93-7.473l.002-.006Z"/>
  </g>
  <circle cx="124.822" cy="93.337" r="3.1" fill="#FF006A" opacity=".5" transform="rotate(29.68 124.822 93.337)"/>
  <circle cx="147.69" cy="106.878" r="3.1" fill="#FF006A" opacity=".5" transform="rotate(29.68 147.69 106.878)"/>
  <path stroke="#121212" stroke-linecap="round" stroke-width="1.5" d="M124.602 93.722c-1.779 8.504 16.474 18.9 23.084 13.156"/>
  <path stroke="#121212" stroke-linecap="round" stroke-width="1.5" d="M129.859 94.407c-.639 3.02 3.14 5.106 5.04 2.783m3.476 1.923c-.64 3.02 3.14 5.107 5.04 2.783"/>
  <defs>
    <linearGradient id="b" x1="117.126" x2="87.789" y1="73.837" y2="167.922" gradientUnits="userSpaceOnUse">
      <stop stop-color="#FFCCE1"/>
      <stop offset="1" stop-color="#FF006A"/>
    </linearGradient>
    <filter id="a" width="126.09" height="107.979" x="41.766" y="59.516" color-interpolation-filters="sRGB" filterUnits="userSpaceOnUse">
      <feFlood flood-opacity="0" result="BackgroundImageFix"/>
      <feBlend in="SourceGraphic" in2="BackgroundImageFix" result="shape"/>
      <feGaussianBlur result="effect1_foregroundBlur_1403_6857" stdDeviation="1.25"/>
    </filter>
  </defs>
</svg>
