<svg xmlns="http://www.w3.org/2000/svg" width="335" height="335" fill="none" viewBox="0 0 335 335">
  <g clip-path="url(#a)">
    <g filter="url(#b)">
      <path fill="#FF80B4" fill-opacity=".4" d="M164.902 20.619c1.507-2.818 5.547-2.818 7.054 0l29.341 54.855a4 4 0 0 0 4.687 1.942l59.536-18.042c3.058-.927 5.915 1.93 4.988 4.988l-18.042 59.536a4 4 0 0 0 1.942 4.687l54.855 29.341c2.818 1.507 2.818 5.547 0 7.054l-54.855 29.341a4.001 4.001 0 0 0-1.942 4.688l18.042 59.535c.927 3.059-1.93 5.915-4.988 4.988l-59.536-18.041a4 4 0 0 0-4.687 1.941l-29.341 54.856c-1.507 2.818-5.547 2.818-7.054 0l-29.341-54.856a4 4 0 0 0-4.687-1.941l-59.536 18.041c-3.058.927-5.915-1.929-4.988-4.988l18.041-59.536a4 4 0 0 0-1.941-4.687L27.594 164.98c-2.818-1.507-2.818-5.547 0-7.054l54.856-29.341a4 4 0 0 0 1.941-4.687L66.35 64.362c-.927-3.058 1.93-5.915 4.988-4.988l59.536 18.042a4 4 0 0 0 4.687-1.942l29.341-54.855Z"/>
    </g>
    <path fill="url(#c)" fill-opacity=".55" d="M0 0h279v192H0z" transform="translate(29 99)"/>
    <ellipse cx="154.5" cy="275.5" fill="url(#d)" fill-opacity=".55" rx="98.5" ry="12.5"/>
    <path fill="#FF80B4" d="M253.45 131.98c0-6.63-8.23-14.27-14.86-14.27-6.95 0-6.95 2.9-13.9 2.9s-6.95-.18-13.9-.18-6.95.99-13.9.99-6.95-2.05-13.9-2.05-6.95.57-13.89.57-6.95-1.61-13.9-1.61-6.95 3.19-13.9 3.19-6.95-1.49-13.9-1.49-6.95-3.03-13.9-3.03-6.95 2.61-13.91 2.61c-6.63 0-10.29 5.74-10.29 12.37 0 7.21-.15 7.21-.15 14.43s-3.67 7.21-3.67 14.42 2.26 7.21 2.26 14.42 2.78 7.21 2.78 14.43-3.84 7.21-3.84 14.42 2.02 7.22 2.02 14.43-3.7 7.23-3.7 14.45c0 6.63 7.97 14.05 14.59 14.05 3.45 0 3.45.84 6.9.84 4.9 0 11.69-.88 13.52 3.66 2.37 5.89-.13 6.89 2.24 12.78 1.6 3.97 5.63 7.79 9.36 8.56 3.73.77 7.28-1.52 10.33-4.53 5.04-4.97 6.23-3.77 11.27-8.74 5.04-4.97 5.48-4.53 10.52-9.51 2.24-2.21 3.63-8.1 6.79-8.1 6.81 0 6.81 3.27 13.61 3.27s6.81 1.58 13.61 1.58 6.81.91 13.61.91 6.81-2.13 13.62-2.13 6.81.42 13.62.42 11.53-6.43 11.53-13.06c0-7.21-2.32-7.21-2.32-14.43s3.25-7.21 3.25-14.43-1.74-7.21-1.74-14.42.77-7.21.77-14.43 1.49-7.21 1.49-14.42c0-7.22-4.5-7.62-3.56-14.77.94-7.15 5.44-6.88 5.44-14.09v-.01Z"/>
    <g filter="url(#e)">
      <path fill="url(#f)" fill-opacity=".35" d="M253.45 131.98c0-6.63-8.23-14.27-14.86-14.27-6.95 0-6.95 2.9-13.9 2.9s-6.95-.18-13.9-.18-6.95.99-13.9.99-6.95-2.05-13.9-2.05-6.95.57-13.89.57-6.95-1.61-13.9-1.61-6.95 3.19-13.9 3.19-6.95-1.49-13.9-1.49-6.95-3.03-13.9-3.03-6.95 2.61-13.91 2.61c-6.63 0-10.29 5.74-10.29 12.37 0 7.21-.15 7.21-.15 14.43s-3.67 7.21-3.67 14.42 2.26 7.21 2.26 14.42 2.78 7.21 2.78 14.43-3.84 7.21-3.84 14.42 2.02 7.22 2.02 14.43-3.7 7.23-3.7 14.45c0 6.63 7.97 14.05 14.59 14.05 3.45 0 3.45.84 6.9.84 4.9 0 11.69-.88 13.52 3.66 2.37 5.89-.13 6.89 2.24 12.78 1.6 3.97 5.63 7.79 9.36 8.56 3.73.77 7.28-1.52 10.33-4.53 5.04-4.97 6.23-3.77 11.27-8.74 5.04-4.97 5.48-4.53 10.52-9.51 2.24-2.21 3.63-8.1 6.79-8.1 6.81 0 6.81 3.27 13.61 3.27s6.81 1.58 13.61 1.58 6.81.91 13.61.91 6.81-2.13 13.62-2.13 6.81.42 13.62.42 11.53-6.43 11.53-13.06c0-7.21-2.32-7.21-2.32-14.43s3.25-7.21 3.25-14.43-1.74-7.21-1.74-14.42.77-7.21.77-14.43 1.49-7.21 1.49-14.42c0-7.22-4.5-7.62-3.56-14.77.94-7.15 5.44-6.88 5.44-14.09v-.01Z"/>
    </g>
    <path stroke="#FDD853" stroke-linecap="round" stroke-width="3" d="M267.352 152.449c.908-.113.509-1.919.509-2.575 0-2.157.091-3.496 1.301-5.347 1.761-2.693 4.188-3.791 7.356-3.791"/>
    <circle cx="190.044" cy="142.845" r="4.907" fill="#FF006A" opacity=".5" transform="rotate(12.361 190.044 142.845)"/>
    <circle cx="230.981" cy="152.534" r="4.907" fill="#FF006A" opacity=".5" transform="rotate(12.361 230.981 152.534)"/>
    <path stroke="#121212" stroke-linecap="round" stroke-width="2.103" d="M189.895 143.529c1.32 13.692 33.806 20.801 41.089 9.005"/>
    <path stroke="#000" stroke-linecap="round" stroke-width="2.103" d="M198.152 142.089c.456 4.864 7.153 6.237 8.928 1.831m6.178 1.267c.456 4.865 7.152 6.238 8.928 1.831"/>
    <circle cx="280.5" cy="119.5" r="3.5" fill="#FF80B4"/>
    <path stroke="#11EBC5" stroke-linecap="round" stroke-width="3" d="M267.598 232.708s-.026 2.398 2.5 3.5c2.646 1.154 4.299-1.582 7.172-1.222 3.766.473 3.434 6.261 7.229 6.422 2.513.107 5.995-2.425 5.995-2.425"/>
    <circle cx="81" cy="116" r="4" fill="#3D5BF5"/>
    <path stroke="#3D5BF5" stroke-linecap="round" stroke-width="3" d="M269 183s2.738-5.363 6-6.5c3.58-1.247 6.155 3.784 9.5 2 2.63-1.402 4-6.5 4-6.5"/>
    <path stroke="#FF80B4" stroke-linecap="round" stroke-width="3" d="M54 181.102s2-1.5 4-1 4.747 4.645 8.5 4.5c2.284-.088 5.5-2 5.5-2"/>
    <circle cx="50.5" cy="161.5" r="3.5" fill="#11EBC5"/>
    <path stroke="#FDD853" stroke-linecap="round" stroke-width="3" d="M34 134.5s4.464-2.093 7-1c3.463 1.493.14 7.29 3.5 9 3.209 1.633 9-2 9-2"/>
    <path fill="#FF80B4" d="M226.204 64.792c.644-4.37 6.948-4.37 7.592 0 .361 2.452 2.921 3.922 5.222 3.002 4.113-1.643 7.212 3.888 3.763 6.666-1.93 1.554-1.93 4.526 0 6.08 3.449 2.778.35 8.31-3.763 6.666-2.301-.92-4.861.55-5.222 3.003-.644 4.37-6.948 4.37-7.592 0-.361-2.452-2.921-3.922-5.222-3.003-4.113 1.643-7.212-3.888-3.763-6.666 1.93-1.554 1.93-4.526 0-6.08-3.449-2.778-.35-8.309 3.763-6.666 2.301.92 4.861-.55 5.222-3.002Z"/>
    <path fill="#3D5BF5" d="M276.55 42.411c.327-2.249 3.573-2.249 3.9 0a1.972 1.972 0 0 0 2.692 1.542c2.117-.857 3.795 1.937 2.025 3.38l-.129.105a2.016 2.016 0 0 0 0 3.125l.129.105c1.77 1.443.092 4.236-2.025 3.38a1.972 1.972 0 0 0-2.692 1.541c-.327 2.25-3.573 2.25-3.9 0a1.972 1.972 0 0 0-2.692-1.541c-2.117.856-3.795-1.937-2.025-3.38l.129-.105a2.016 2.016 0 0 0 0-3.125l-.129-.105c-1.77-1.443-.092-4.237 2.025-3.38a1.972 1.972 0 0 0 2.692-1.542Z"/>
    <path fill="#11EBC5" d="M122.867 72.673c.593-3.535 5.673-3.535 6.266 0a3.177 3.177 0 0 0 4.244 2.45c3.358-1.253 5.898 3.146 3.133 5.427a3.177 3.177 0 0 0 0 4.9c2.765 2.282.225 6.68-3.133 5.427a3.177 3.177 0 0 0-4.244 2.45c-.593 3.535-5.673 3.535-6.266 0a3.177 3.177 0 0 0-4.244-2.45c-3.358 1.254-5.898-3.145-3.133-5.426a3.177 3.177 0 0 0 0-4.901c-2.765-2.281-.225-6.68 3.133-5.426a3.177 3.177 0 0 0 4.244-2.45Z"/>
    <path fill="#FDD853" d="M76.051 35.757c.413-2.822 4.485-2.822 4.898 0a2.477 2.477 0 0 0 3.376 1.937c2.656-1.07 4.64 2.528 2.415 4.332-1.243 1.009-1.243 2.94 0 3.948 2.224 1.804.241 5.402-2.415 4.333a2.477 2.477 0 0 0-3.376 1.936c-.413 2.823-4.485 2.823-4.898 0a2.477 2.477 0 0 0-3.376-1.936c-2.656 1.069-4.64-2.529-2.415-4.333 1.243-1.008 1.243-2.939 0-3.948-2.224-1.804-.241-5.401 2.415-4.332a2.477 2.477 0 0 0 3.376-1.937Z"/>
  </g>
  <defs>
    <radialGradient id="c" cx="0" cy="0" r="1" gradientTransform="matrix(0 96 -139.5 0 139.5 96)" gradientUnits="userSpaceOnUse">
      <stop stop-color="#fff"/>
      <stop offset="1" stop-color="#fff" stop-opacity="0"/>
    </radialGradient>
    <radialGradient id="d" cx="0" cy="0" r="1" gradientTransform="matrix(98.5 0 0 12.5 154.5 275.5)" gradientUnits="userSpaceOnUse">
      <stop stop-color="#C20051"/>
      <stop offset="1" stop-color="#B3004B" stop-opacity="0"/>
    </radialGradient>
    <filter id="b" width="352.895" height="352.896" x="-8.02" y="-14.995" color-interpolation-filters="sRGB" filterUnits="userSpaceOnUse">
      <feFlood flood-opacity="0" result="BackgroundImageFix"/>
      <feBlend in="SourceGraphic" in2="BackgroundImageFix" result="shape"/>
      <feGaussianBlur result="effect1_foregroundBlur_1403_6802" stdDeviation="16.75"/>
    </filter>
    <filter id="e" width="188.449" height="176.02" x="75" y="107" color-interpolation-filters="sRGB" filterUnits="userSpaceOnUse">
      <feFlood flood-opacity="0" result="BackgroundImageFix"/>
      <feBlend in="SourceGraphic" in2="BackgroundImageFix" result="shape"/>
      <feGaussianBlur result="effect1_foregroundBlur_1403_6802" stdDeviation="5"/>
    </filter>
    <linearGradient id="f" x1="169.225" x2="169.225" y1="117" y2="273.021" gradientUnits="userSpaceOnUse">
      <stop stop-color="#FFCCE1"/>
      <stop offset="1" stop-color="#FF006A"/>
    </linearGradient>
    <clipPath id="a">
      <path fill="#fff" d="M0 0h335v335H0z"/>
    </clipPath>
  </defs>
</svg>
