<svg width="186" height="185" viewBox="0 0 186 185" fill="none" xmlns="http://www.w3.org/2000/svg">
<g filter="url(#filter0_d_729_19311)">
<g clip-path="url(#clip0_729_19311)">
<rect x="12" y="12" width="162" height="161" rx="12" fill="#3D5BF5" fill-opacity="0.15" shape-rendering="crispEdges"/>
<g filter="url(#filter1_f_729_19311)">
<path d="M89.4728 28.5944C90.9801 25.7765 95.0199 25.7765 96.5272 28.5944L108.027 50.0938C108.926 51.7757 110.888 52.5885 112.714 52.0353L136.048 44.9643C139.106 44.0375 141.963 46.8941 141.036 49.9524L133.965 73.2862C133.412 75.1116 134.224 77.0737 135.906 77.9734L157.406 89.4728C160.224 90.9801 160.224 95.0199 157.406 96.5272L135.906 108.027C134.224 108.926 133.412 110.888 133.965 112.714L141.036 136.048C141.963 139.106 139.106 141.963 136.048 141.036L112.714 133.965C110.888 133.412 108.926 134.224 108.027 135.906L96.5272 157.406C95.0199 160.224 90.9801 160.224 89.4728 157.406L77.9734 135.906C77.0737 134.224 75.1116 133.412 73.2862 133.965L49.9524 141.036C46.8941 141.963 44.0375 139.106 44.9643 136.048L52.0353 112.714C52.5885 110.888 51.7757 108.926 50.0938 108.027L28.5944 96.5272C25.7765 95.0199 25.7765 90.9801 28.5944 89.4728L50.0938 77.9734C51.7757 77.0737 52.5885 75.1116 52.0353 73.2862L44.9643 49.9524C44.0375 46.8941 46.8941 44.0375 49.9524 44.9643L73.2862 52.0353C75.1116 52.5885 77.0737 51.7757 77.9734 50.0938L89.4728 28.5944Z" fill="#B2BDFB"/>
</g>
<path d="M49.752 48.024H52.392V56.16C55.104 56.112 58.008 55.872 61.08 55.272L61.392 57.408C57.864 58.128 54.576 58.32 51.528 58.32H49.752V48.024ZM62.904 46.584H65.544V52.68H68.496V54.912H65.544V61.968H62.904V46.584ZM52.008 60.504H54.648V65.4H66.264V67.512H52.008V60.504ZM84.7206 46.536H87.3846V67.968H84.7206V46.536ZM75.9606 48.096C79.1766 48.096 81.5046 51.024 81.5046 55.656C81.5046 60.312 79.1766 63.24 75.9606 63.24C72.7446 63.24 70.4166 60.312 70.4166 55.656C70.4166 51.024 72.7446 48.096 75.9606 48.096ZM75.9606 50.496C74.1846 50.496 72.9606 52.392 72.9606 55.656C72.9606 58.944 74.1846 60.864 75.9606 60.864C77.7366 60.864 78.9606 58.944 78.9606 55.656C78.9606 52.392 77.7366 50.496 75.9606 50.496ZM93.0491 48.12H107.737V50.232H95.6891V56.256H107.929V58.368H101.665V63.24H110.065V65.4H90.7211V63.24H99.0491V58.368H93.0491V48.12ZM122.077 47.712H124.693V49.944C124.693 52.656 126.397 55.2 129.637 56.256L128.269 58.296C125.989 57.504 124.333 55.944 123.421 53.952C122.509 56.232 120.805 58.008 118.333 58.92L116.917 56.832C120.373 55.632 122.077 52.752 122.077 49.728V47.712ZM131.245 46.584H133.885V51.744H136.861V53.928H133.885V59.328H131.245V46.584ZM126.997 59.856C131.413 59.856 134.125 61.344 134.125 63.888C134.125 66.432 131.413 67.92 126.997 67.92C122.581 67.92 119.845 66.432 119.845 63.888C119.845 61.344 122.581 59.856 126.997 59.856ZM126.997 61.896C124.093 61.896 122.437 62.592 122.437 63.888C122.437 65.184 124.093 65.88 126.997 65.88C129.877 65.88 131.533 65.184 131.533 63.888C131.533 62.592 129.877 61.896 126.997 61.896Z" fill="#121212"/>
<path d="M59.203 97.478L57.719 97.296L58.069 91.85H63.515V93.152H59.497L59.329 95.644C59.791 95.434 60.309 95.308 60.771 95.308C62.871 95.308 64.355 96.722 64.355 98.724C64.355 100.754 62.871 102.182 60.771 102.182C59.119 102.182 57.691 101.076 57.327 99.508L58.769 99.172C58.979 100.11 59.805 100.782 60.771 100.782C62.003 100.782 62.871 99.928 62.871 98.724C62.871 97.548 62.003 96.708 60.771 96.708C60.253 96.708 59.609 97.03 59.203 97.478ZM65.4968 96.918H76.7808V98.136H72.0348V100.404H70.4948V98.136H65.4968V96.918ZM66.9108 91.22H75.3388V95.756H66.9108V91.22ZM73.8268 92.424H68.4228V94.524H73.8268V92.424ZM66.8548 99.284H68.3948V101.664H75.5348V102.896H66.8548V99.284ZM85.9372 90.674H87.4772V93.95H89.2132V95.21H87.4772V98.612H85.9372V90.674ZM83.4872 98.738C86.0352 98.738 87.6172 99.55 87.6172 100.922C87.6172 102.308 86.0352 103.12 83.4872 103.12C80.9392 103.12 79.3572 102.308 79.3572 100.922C79.3572 99.55 80.9392 98.738 83.4872 98.738ZM83.4872 99.9C81.8212 99.9 80.8832 100.25 80.8832 100.922C80.8832 101.608 81.8212 101.958 83.4872 101.958C85.1672 101.958 86.1052 101.608 86.1052 100.922C86.1052 100.25 85.1672 99.9 83.4872 99.9ZM77.7472 91.934H80.6452V90.576H82.1852V91.934H85.0832V93.152H77.7472V91.934ZM81.4152 93.642C83.2212 93.642 84.4532 94.524 84.4532 95.854C84.4532 97.198 83.2212 98.08 81.4152 98.08C79.6232 98.08 78.3912 97.198 78.3912 95.854C78.3912 94.524 79.6232 93.642 81.4152 93.642ZM81.4152 94.776C80.4912 94.776 79.8612 95.168 79.8612 95.854C79.8612 96.54 80.4912 96.946 81.4152 96.946C82.3392 96.946 82.9692 96.54 82.9692 95.854C82.9692 95.168 82.3392 94.776 81.4152 94.776ZM93.6021 91.486H99.4541V96.918H93.6021V91.486ZM97.9421 92.718H95.1141V95.7H97.9421V92.718ZM101.386 90.674H102.926V93.474H104.648V94.748H102.926V97.688H101.386V90.674ZM94.8341 98.332H103.108V99.55H99.8321C100.07 100.6 101.47 101.622 103.612 101.93L103.066 103.106C101.134 102.826 99.6921 101.986 98.9781 100.866C98.2781 101.986 96.8221 102.812 94.8761 103.092L94.3161 101.916C96.5141 101.622 97.9001 100.628 98.1381 99.55H94.8341V98.332ZM105.39 98.15H116.66V99.41H111.788V103.148H110.234V99.41H105.39V98.15ZM106.426 92.13H110.234V90.688H111.788V92.13H115.61V93.362H111.802C111.956 94.594 113.552 95.882 116.002 96.19L115.456 97.394C113.398 97.142 111.816 96.232 111.018 95.028C110.22 96.246 108.624 97.128 106.552 97.394L106.02 96.19C108.484 95.882 110.066 94.622 110.22 93.362H106.426V92.13ZM126.377 90.66H127.917V103.12H126.377V90.66ZM124.235 91.962C124.235 95.7 122.821 98.836 118.481 100.936L117.683 99.718C120.917 98.164 122.387 96.05 122.653 93.208H118.299V91.962H124.235Z" fill="#272D34"/>
<path d="M58.6629 116.914H60.5949V114.744H61.8129V122.332H60.5949V120.12H58.6629V119.112H60.5949V117.88H58.6629V116.914ZM52.0269 115.64H58.5089V116.648H57.3189V120.47C57.8509 120.428 58.3689 120.372 58.8589 120.316L58.9289 121.226C56.5629 121.604 53.8049 121.632 51.8169 121.632L51.6909 120.624L53.2029 120.61V116.648H52.0269V115.64ZM57.7529 122.57C60.3149 122.57 61.8689 123.382 61.8689 124.796C61.8689 126.21 60.3149 127.036 57.7529 127.036C55.1769 127.036 53.6369 126.21 53.6369 124.796C53.6369 123.382 55.1769 122.57 57.7529 122.57ZM57.7529 123.522C55.9049 123.522 54.8269 123.998 54.8269 124.796C54.8269 125.622 55.9049 126.112 57.7529 126.112C59.5869 126.112 60.6649 125.622 60.6649 124.796C60.6649 123.998 59.5869 123.522 57.7529 123.522ZM54.3929 120.596L56.1429 120.54V116.648H54.3929V120.596ZM65.2852 115.388H73.6432V116.354C73.6432 117.334 73.6432 118.482 73.3492 120.008H75.0572V121.002H72.0192V123.928H70.8292V121.002H68.7992V123.928H67.6092V121.002H63.8992V120.008H72.1592C72.4532 118.468 72.4532 117.348 72.4532 116.368H65.2852V115.388ZM65.2152 122.906H66.4332V125.818H73.9652V126.798H65.2152V122.906ZM79.6561 124.992C81.6721 123.046 84.6261 120.75 84.6261 118.944C84.6261 117.698 83.8281 116.816 82.6941 116.816C81.8541 116.816 81.0001 117.432 80.6081 118.328L79.5581 117.866C80.1041 116.634 81.4061 115.766 82.6941 115.766C84.5141 115.766 85.7881 117.082 85.7881 118.944C85.7881 121.086 83.1981 123.228 81.2661 124.992H85.9561V126.028H79.7961L79.6561 124.992ZM89.0564 121.31L87.8944 121.142L88.2304 115.864H93.3964V116.9H89.3504L89.1544 119.812C89.6584 119.546 90.2324 119.392 90.7504 119.392C92.7804 119.392 94.2224 120.778 94.2224 122.738C94.2224 124.74 92.7804 126.154 90.7504 126.154C89.1684 126.154 87.7964 125.09 87.4464 123.578L88.5804 123.312C88.8044 124.334 89.7004 125.048 90.7504 125.048C92.1084 125.048 93.0604 124.096 93.0604 122.738C93.0604 121.422 92.1084 120.498 90.7504 120.498C90.1764 120.498 89.4764 120.834 89.0564 121.31ZM95.4796 121.226H106.638V122.192H101.766V124.53H100.548V122.192H95.4796V121.226ZM96.8796 123.438H98.0836V125.804H105.406V126.798H96.8796V123.438ZM96.9636 115.122H98.1676V116.648H103.964V115.122H105.182V120.078H96.9636V115.122ZM98.1676 117.586V119.098H103.964V117.586H98.1676ZM110.928 124.46H115.856V121.506H117.06V124.46H122.086V125.468H110.928V124.46ZM115.828 115.528H117.088V116.48C117.088 118.468 119.342 120.288 121.582 120.68L121.05 121.702C119.132 121.296 117.27 120.036 116.458 118.328C115.646 120.036 113.784 121.296 111.852 121.702L111.348 120.68C113.602 120.288 115.828 118.468 115.828 116.48V115.528ZM123.151 124.488H125.853V121.212C124.831 120.652 124.215 119.784 124.215 118.664C124.215 116.732 126.105 115.486 128.709 115.486C131.341 115.486 133.203 116.732 133.203 118.664C133.203 119.77 132.601 120.638 131.607 121.184V124.488H134.309V125.482H123.151V124.488ZM128.709 116.438C126.777 116.438 125.405 117.32 125.405 118.664C125.405 120.022 126.777 120.89 128.709 120.89C130.655 120.89 132.027 120.022 132.027 118.664C132.027 117.32 130.655 116.438 128.709 116.438ZM127.057 124.488H130.389V121.646C129.885 121.772 129.311 121.842 128.709 121.842C128.121 121.842 127.561 121.772 127.057 121.66V124.488Z" fill="#6B7785"/>
</g>
<rect x="12.5" y="12.5" width="161" height="160" rx="11.5" stroke="#3D5BF5" shape-rendering="crispEdges"/>
</g>
<defs>
<filter id="filter0_d_729_19311" x="0" y="0" width="186" height="185" filterUnits="userSpaceOnUse" color-interpolation-filters="sRGB">
<feFlood flood-opacity="0" result="BackgroundImageFix"/>
<feColorMatrix in="SourceAlpha" type="matrix" values="0 0 0 0 0 0 0 0 0 0 0 0 0 0 0 0 0 0 127 0" result="hardAlpha"/>
<feOffset/>
<feGaussianBlur stdDeviation="6"/>
<feComposite in2="hardAlpha" operator="out"/>
<feColorMatrix type="matrix" values="0 0 0 0 0 0 0 0 0 0 0 0 0 0 0 0 0 0 0.08 0"/>
<feBlend mode="normal" in2="BackgroundImageFix" result="effect1_dropShadow_729_19311"/>
<feBlend mode="normal" in="SourceGraphic" in2="effect1_dropShadow_729_19311" result="shape"/>
</filter>
<filter id="filter1_f_729_19311" x="6.48047" y="6.48096" width="173.039" height="173.038" filterUnits="userSpaceOnUse" color-interpolation-filters="sRGB">
<feFlood flood-opacity="0" result="BackgroundImageFix"/>
<feBlend mode="normal" in="SourceGraphic" in2="BackgroundImageFix" result="shape"/>
<feGaussianBlur stdDeviation="10" result="effect1_foregroundBlur_729_19311"/>
</filter>
<clipPath id="clip0_729_19311">
<rect x="12" y="12" width="162" height="161" rx="12" fill="white"/>
</clipPath>
</defs>
</svg>
