<svg width="186" height="185" viewBox="0 0 186 185" fill="none" xmlns="http://www.w3.org/2000/svg">
<g filter="url(#filter0_d_729_19226)">
<g clip-path="url(#clip0_729_19226)">
<rect x="12" y="12" width="162" height="161" rx="12" fill="#FDD853" fill-opacity="0.2" shape-rendering="crispEdges"/>
<g opacity="0.75" filter="url(#filter1_f_729_19226)">
<path d="M89.4728 28.5944C90.9801 25.7765 95.0199 25.7765 96.5272 28.5944L108.027 50.0938C108.926 51.7757 110.888 52.5885 112.714 52.0353L136.048 44.9643C139.106 44.0375 141.963 46.8941 141.036 49.9524L133.965 73.2862C133.412 75.1116 134.224 77.0737 135.906 77.9734L157.406 89.4728C160.224 90.9801 160.224 95.0199 157.406 96.5272L135.906 108.027C134.224 108.926 133.412 110.888 133.965 112.714L141.036 136.048C141.963 139.106 139.106 141.963 136.048 141.036L112.714 133.965C110.888 133.412 108.926 134.224 108.027 135.906L96.5272 157.406C95.0199 160.224 90.9801 160.224 89.4728 157.406L77.9734 135.906C77.0737 134.224 75.1116 133.412 73.2862 133.965L49.9524 141.036C46.8941 141.963 44.0375 139.106 44.9643 136.048L52.0353 112.714C52.5885 110.888 51.7757 108.926 50.0938 108.027L28.5944 96.5272C25.7765 95.0199 25.7765 90.9801 28.5944 89.4728L50.0938 77.9734C51.7757 77.0737 52.5885 75.1116 52.0353 73.2862L44.9643 49.9524C44.0375 46.8941 46.8941 44.0375 49.9524 44.9643L73.2862 52.0353C75.1116 52.5885 77.0737 51.7757 77.9734 50.0938L89.4728 28.5944Z" fill="#FDD853"/>
</g>
<path d="M49.752 48.024H52.392V56.16C55.104 56.112 58.008 55.872 61.08 55.272L61.392 57.408C57.864 58.128 54.576 58.32 51.528 58.32H49.752V48.024ZM62.904 46.584H65.544V52.68H68.496V54.912H65.544V61.968H62.904V46.584ZM52.008 60.504H54.648V65.4H66.264V67.512H52.008V60.504ZM84.7206 46.536H87.3846V67.968H84.7206V46.536ZM75.9606 48.096C79.1766 48.096 81.5046 51.024 81.5046 55.656C81.5046 60.312 79.1766 63.24 75.9606 63.24C72.7446 63.24 70.4166 60.312 70.4166 55.656C70.4166 51.024 72.7446 48.096 75.9606 48.096ZM75.9606 50.496C74.1846 50.496 72.9606 52.392 72.9606 55.656C72.9606 58.944 74.1846 60.864 75.9606 60.864C77.7366 60.864 78.9606 58.944 78.9606 55.656C78.9606 52.392 77.7366 50.496 75.9606 50.496ZM93.0491 48.12H107.737V50.232H95.6891V56.256H107.929V58.368H101.665V63.24H110.065V65.4H90.7211V63.24H99.0491V58.368H93.0491V48.12ZM131.173 46.584H133.813V55.08H137.053V57.264H133.813V67.944H131.173V46.584ZM117.061 49.824H122.029V46.896H124.693V49.824H129.589V51.936H117.061V49.824ZM123.373 53.376C126.469 53.376 128.725 55.44 128.725 58.392C128.725 61.344 126.469 63.408 123.373 63.408C120.325 63.408 118.045 61.344 118.045 58.392C118.045 55.44 120.325 53.376 123.373 53.376ZM123.373 55.512C121.741 55.512 120.589 56.64 120.589 58.392C120.589 60.144 121.741 61.248 123.373 61.248C125.005 61.248 126.181 60.144 126.181 58.392C126.181 56.64 125.005 55.512 123.373 55.512Z" fill="#121212"/>
<path d="M57.7007 100.74C59.7447 98.78 62.5307 96.792 62.5307 95.07C62.5307 93.922 61.8027 93.11 60.7667 93.11C59.9687 93.11 59.1707 93.684 58.8067 94.51L57.5047 93.936C58.0647 92.648 59.4227 91.752 60.7667 91.752C62.6847 91.752 64.0147 93.124 64.0147 95.07C64.0147 97.212 61.6907 99.116 59.8007 100.74H64.1827V102.042H57.8407L57.7007 100.74ZM65.3191 96.918H76.6031V98.136H71.8571V100.404H70.3171V98.136H65.3191V96.918ZM66.7331 91.22H75.1611V95.756H66.7331V91.22ZM73.6491 92.424H68.2451V94.524H73.6491V92.424ZM66.6771 99.284H68.2171V101.664H75.3571V102.896H66.6771V99.284ZM85.7594 90.674H87.2994V93.95H89.0354V95.21H87.2994V98.612H85.7594V90.674ZM83.3094 98.738C85.8574 98.738 87.4394 99.55 87.4394 100.922C87.4394 102.308 85.8574 103.12 83.3094 103.12C80.7614 103.12 79.1794 102.308 79.1794 100.922C79.1794 99.55 80.7614 98.738 83.3094 98.738ZM83.3094 99.9C81.6434 99.9 80.7054 100.25 80.7054 100.922C80.7054 101.608 81.6434 101.958 83.3094 101.958C84.9894 101.958 85.9274 101.608 85.9274 100.922C85.9274 100.25 84.9894 99.9 83.3094 99.9ZM77.5694 91.934H80.4674V90.576H82.0074V91.934H84.9054V93.152H77.5694V91.934ZM81.2374 93.642C83.0434 93.642 84.2754 94.524 84.2754 95.854C84.2754 97.198 83.0434 98.08 81.2374 98.08C79.4454 98.08 78.2134 97.198 78.2134 95.854C78.2134 94.524 79.4454 93.642 81.2374 93.642ZM81.2374 94.776C80.3134 94.776 79.6834 95.168 79.6834 95.854C79.6834 96.54 80.3134 96.946 81.2374 96.946C82.1614 96.946 82.7914 96.54 82.7914 95.854C82.7914 95.168 82.1614 94.776 81.2374 94.776ZM93.4243 91.486H99.2763V96.918H93.4243V91.486ZM97.7643 92.718H94.9363V95.7H97.7643V92.718ZM101.208 90.674H102.748V93.474H104.47V94.748H102.748V97.688H101.208V90.674ZM94.6563 98.332H102.93V99.55H99.6543C99.8923 100.6 101.292 101.622 103.434 101.93L102.888 103.106C100.956 102.826 99.5143 101.986 98.8003 100.866C98.1003 101.986 96.6443 102.812 94.6983 103.092L94.1383 101.916C96.3363 101.622 97.7223 100.628 97.9603 99.55H94.6563V98.332ZM105.213 98.15H116.483V99.41H111.611V103.148H110.057V99.41H105.213V98.15ZM106.249 92.13H110.057V90.688H111.611V92.13H115.433V93.362H111.625C111.779 94.594 113.375 95.882 115.825 96.19L115.279 97.394C113.221 97.142 111.639 96.232 110.841 95.028C110.043 96.246 108.447 97.128 106.375 97.394L105.843 96.19C108.307 95.882 109.889 94.622 110.043 93.362H106.249V92.13ZM126.199 90.66H127.739V103.12H126.199V90.66ZM124.057 91.962C124.057 95.7 122.643 98.836 118.303 100.936L117.505 99.718C120.739 98.164 122.209 96.05 122.475 93.208H118.121V91.962H124.057Z" fill="#272D34"/>
<path d="M59.6404 116.914H61.5724V114.744H62.7904V122.332H61.5724V120.12H59.6404V119.112H61.5724V117.88H59.6404V116.914ZM53.0044 115.64H59.4864V116.648H58.2964V120.47C58.8284 120.428 59.3464 120.372 59.8364 120.316L59.9064 121.226C57.5404 121.604 54.7824 121.632 52.7944 121.632L52.6684 120.624L54.1804 120.61V116.648H53.0044V115.64ZM58.7304 122.57C61.2924 122.57 62.8464 123.382 62.8464 124.796C62.8464 126.21 61.2924 127.036 58.7304 127.036C56.1544 127.036 54.6144 126.21 54.6144 124.796C54.6144 123.382 56.1544 122.57 58.7304 122.57ZM58.7304 123.522C56.8824 123.522 55.8044 123.998 55.8044 124.796C55.8044 125.622 56.8824 126.112 58.7304 126.112C60.5644 126.112 61.6424 125.622 61.6424 124.796C61.6424 123.998 60.5644 123.522 58.7304 123.522ZM55.3704 120.596L57.1204 120.54V116.648H55.3704V120.596ZM66.2627 115.388H74.6207V116.354C74.6207 117.334 74.6207 118.482 74.3267 120.008H76.0347V121.002H72.9967V123.928H71.8067V121.002H69.7767V123.928H68.5867V121.002H64.8767V120.008H73.1367C73.4307 118.468 73.4307 117.348 73.4307 116.368H66.2627V115.388ZM66.1927 122.906H67.4107V125.818H74.9427V126.798H66.1927V122.906ZM83.8116 115.892V126.014H82.6496V117.18L80.9976 118.244L80.4236 117.32L82.6496 115.892H83.8116ZM89.6034 125.076C91.0734 125.076 92.0954 123.382 92.0954 120.946C92.0954 118.51 91.0734 116.816 89.6034 116.816C88.1194 116.816 87.0834 118.51 87.0834 120.946C87.0834 123.382 88.1194 125.076 89.6034 125.076ZM89.6034 126.112C87.4334 126.112 85.9214 123.97 85.9214 120.946C85.9214 117.922 87.4334 115.794 89.6034 115.794C91.7454 115.794 93.2574 117.922 93.2574 120.946C93.2574 123.97 91.7454 126.112 89.6034 126.112ZM94.502 121.226H105.66V122.192H100.788V124.53H99.57V122.192H94.502V121.226ZM95.902 123.438H97.106V125.804H104.428V126.798H95.902V123.438ZM95.986 115.122H97.19V116.648H102.986V115.122H104.204V120.078H95.986V115.122ZM97.19 117.586V119.098H102.986V117.586H97.19ZM109.951 124.46H114.879V121.506H116.083V124.46H121.109V125.468H109.951V124.46ZM114.851 115.528H116.111V116.48C116.111 118.468 118.365 120.288 120.605 120.68L120.073 121.702C118.155 121.296 116.293 120.036 115.481 118.328C114.669 120.036 112.807 121.296 110.875 121.702L110.371 120.68C112.625 120.288 114.851 118.468 114.851 116.48V115.528ZM122.173 124.488H124.875V121.212C123.853 120.652 123.237 119.784 123.237 118.664C123.237 116.732 125.127 115.486 127.731 115.486C130.363 115.486 132.225 116.732 132.225 118.664C132.225 119.77 131.623 120.638 130.629 121.184V124.488H133.331V125.482H122.173V124.488ZM127.731 116.438C125.799 116.438 124.427 117.32 124.427 118.664C124.427 120.022 125.799 120.89 127.731 120.89C129.677 120.89 131.049 120.022 131.049 118.664C131.049 117.32 129.677 116.438 127.731 116.438ZM126.079 124.488H129.411V121.646C128.907 121.772 128.333 121.842 127.731 121.842C127.143 121.842 126.583 121.772 126.079 121.66V124.488Z" fill="#6B7785"/>
</g>
<rect x="12.5" y="12.5" width="161" height="160" rx="11.5" stroke="#FDD853" shape-rendering="crispEdges"/>
</g>
<defs>
<filter id="filter0_d_729_19226" x="0" y="0" width="186" height="185" filterUnits="userSpaceOnUse" color-interpolation-filters="sRGB">
<feFlood flood-opacity="0" result="BackgroundImageFix"/>
<feColorMatrix in="SourceAlpha" type="matrix" values="0 0 0 0 0 0 0 0 0 0 0 0 0 0 0 0 0 0 127 0" result="hardAlpha"/>
<feOffset/>
<feGaussianBlur stdDeviation="6"/>
<feComposite in2="hardAlpha" operator="out"/>
<feColorMatrix type="matrix" values="0 0 0 0 0 0 0 0 0 0 0 0 0 0 0 0 0 0 0.08 0"/>
<feBlend mode="normal" in2="BackgroundImageFix" result="effect1_dropShadow_729_19226"/>
<feBlend mode="normal" in="SourceGraphic" in2="effect1_dropShadow_729_19226" result="shape"/>
</filter>
<filter id="filter1_f_729_19226" x="6.48047" y="6.48096" width="173.039" height="173.038" filterUnits="userSpaceOnUse" color-interpolation-filters="sRGB">
<feFlood flood-opacity="0" result="BackgroundImageFix"/>
<feBlend mode="normal" in="SourceGraphic" in2="BackgroundImageFix" result="shape"/>
<feGaussianBlur stdDeviation="10" result="effect1_foregroundBlur_729_19226"/>
</filter>
<clipPath id="clip0_729_19226">
<rect x="12" y="12" width="162" height="161" rx="12" fill="white"/>
</clipPath>
</defs>
</svg>
