<svg width="186" height="185" viewBox="0 0 186 185" fill="none" xmlns="http://www.w3.org/2000/svg">
<g filter="url(#filter0_d_729_19295)">
<g clip-path="url(#clip0_729_19295)">
<rect x="12" y="12" width="162" height="161" rx="12" fill="white"/>
<g filter="url(#filter1_f_729_19295)">
<path d="M89.4728 28.5944C90.9801 25.7765 95.0199 25.7765 96.5272 28.5944L108.027 50.0938C108.926 51.7757 110.888 52.5885 112.714 52.0353L136.048 44.9643C139.106 44.0375 141.963 46.8941 141.036 49.9524L133.965 73.2862C133.412 75.1116 134.224 77.0737 135.906 77.9734L157.406 89.4728C160.224 90.9801 160.224 95.0199 157.406 96.5272L135.906 108.027C134.224 108.926 133.412 110.888 133.965 112.714L141.036 136.048C141.963 139.106 139.106 141.963 136.048 141.036L112.714 133.965C110.888 133.412 108.926 134.224 108.027 135.906L96.5272 157.406C95.0199 160.224 90.9801 160.224 89.4728 157.406L77.9734 135.906C77.0737 134.224 75.1116 133.412 73.2862 133.965L49.9524 141.036C46.8941 141.963 44.0375 139.106 44.9643 136.048L52.0353 112.714C52.5885 110.888 51.7757 108.926 50.0938 108.027L28.5944 96.5272C25.7765 95.0199 25.7765 90.9801 28.5944 89.4728L50.0938 77.9734C51.7757 77.0737 52.5885 75.1116 52.0353 73.2862L44.9643 49.9524C44.0375 46.8941 46.8941 44.0375 49.9524 44.9643L73.2862 52.0353C75.1116 52.5885 77.0737 51.7757 77.9734 50.0938L89.4728 28.5944Z" fill="#11EBC5" fill-opacity="0.55"/>
</g>
<path d="M49.752 48.024H52.392V56.16C55.104 56.112 58.008 55.872 61.08 55.272L61.392 57.408C57.864 58.128 54.576 58.32 51.528 58.32H49.752V48.024ZM62.904 46.584H65.544V52.68H68.496V54.912H65.544V61.968H62.904V46.584ZM52.008 60.504H54.648V65.4H66.264V67.512H52.008V60.504ZM84.7206 46.536H87.3846V67.968H84.7206V46.536ZM75.9606 48.096C79.1766 48.096 81.5046 51.024 81.5046 55.656C81.5046 60.312 79.1766 63.24 75.9606 63.24C72.7446 63.24 70.4166 60.312 70.4166 55.656C70.4166 51.024 72.7446 48.096 75.9606 48.096ZM75.9606 50.496C74.1846 50.496 72.9606 52.392 72.9606 55.656C72.9606 58.944 74.1846 60.864 75.9606 60.864C77.7366 60.864 78.9606 58.944 78.9606 55.656C78.9606 52.392 77.7366 50.496 75.9606 50.496ZM93.0491 48.12H107.737V50.232H95.6891V56.256H107.929V58.368H101.665V63.24H110.065V65.4H90.7211V63.24H99.0491V58.368H93.0491V48.12ZM117.181 56.4H136.477V58.512H128.125V60.36C131.917 60.6 134.173 61.92 134.173 64.128C134.173 66.552 131.389 67.92 126.805 67.92C122.197 67.92 119.413 66.552 119.413 64.128C119.413 61.92 121.669 60.6 125.485 60.36V58.512H117.181V56.4ZM126.805 62.304C123.733 62.304 122.077 62.904 122.077 64.128C122.077 65.328 123.733 65.928 126.805 65.928C129.853 65.928 131.509 65.328 131.509 64.128C131.509 62.904 129.853 62.304 126.805 62.304ZM118.933 47.52H134.749V49.608H128.701C129.133 51.384 131.605 52.968 135.565 53.328L134.629 55.392C130.789 54.984 127.957 53.448 126.829 51.288C125.701 53.448 122.869 54.984 119.005 55.392L118.093 53.328C122.029 52.968 124.525 51.36 124.957 49.608H118.933V47.52Z" fill="#121212"/>
<path d="M62.8062 96.778C63.7162 97.31 64.2902 98.304 64.2902 99.158C64.2902 100.894 62.8622 102.126 60.8322 102.126C58.8162 102.126 57.3882 100.866 57.3882 99.074H58.8722C58.8722 100.096 59.6842 100.81 60.8322 100.81C62.0082 100.81 62.8482 100.096 62.8482 99.074C62.8482 98.094 62.0222 97.394 60.8602 97.394H60.1322V96.148H60.8742C61.9382 96.148 62.6942 95.518 62.6942 94.622C62.6942 93.712 61.9662 93.082 60.9302 93.082C59.8942 93.082 59.1802 93.726 59.1802 94.636H57.6962C57.6962 92.942 59.0262 91.766 60.9302 91.766C62.8062 91.766 64.1362 92.914 64.1362 94.538C64.1362 95.322 63.6322 96.246 62.8062 96.778ZM65.4216 96.918H76.7056V98.136H71.9596V100.404H70.4196V98.136H65.4216V96.918ZM66.8356 91.22H75.2636V95.756H66.8356V91.22ZM73.7516 92.424H68.3476V94.524H73.7516V92.424ZM66.7796 99.284H68.3196V101.664H75.4596V102.896H66.7796V99.284ZM85.862 90.674H87.402V93.95H89.138V95.21H87.402V98.612H85.862V90.674ZM83.412 98.738C85.96 98.738 87.542 99.55 87.542 100.922C87.542 102.308 85.96 103.12 83.412 103.12C80.864 103.12 79.282 102.308 79.282 100.922C79.282 99.55 80.864 98.738 83.412 98.738ZM83.412 99.9C81.746 99.9 80.808 100.25 80.808 100.922C80.808 101.608 81.746 101.958 83.412 101.958C85.092 101.958 86.03 101.608 86.03 100.922C86.03 100.25 85.092 99.9 83.412 99.9ZM77.672 91.934H80.57V90.576H82.11V91.934H85.008V93.152H77.672V91.934ZM81.34 93.642C83.146 93.642 84.378 94.524 84.378 95.854C84.378 97.198 83.146 98.08 81.34 98.08C79.548 98.08 78.316 97.198 78.316 95.854C78.316 94.524 79.548 93.642 81.34 93.642ZM81.34 94.776C80.416 94.776 79.786 95.168 79.786 95.854C79.786 96.54 80.416 96.946 81.34 96.946C82.264 96.946 82.894 96.54 82.894 95.854C82.894 95.168 82.264 94.776 81.34 94.776ZM93.5269 91.486H99.3789V96.918H93.5269V91.486ZM97.8669 92.718H95.0389V95.7H97.8669V92.718ZM101.311 90.674H102.851V93.474H104.573V94.748H102.851V97.688H101.311V90.674ZM94.7589 98.332H103.033V99.55H99.7569C99.9949 100.6 101.395 101.622 103.537 101.93L102.991 103.106C101.059 102.826 99.6169 101.986 98.9029 100.866C98.2029 101.986 96.7469 102.812 94.8009 103.092L94.2409 101.916C96.4389 101.622 97.8249 100.628 98.0629 99.55H94.7589V98.332ZM105.315 98.15H116.585V99.41H111.713V103.148H110.159V99.41H105.315V98.15ZM106.351 92.13H110.159V90.688H111.713V92.13H115.535V93.362H111.727C111.881 94.594 113.477 95.882 115.927 96.19L115.381 97.394C113.323 97.142 111.741 96.232 110.943 95.028C110.145 96.246 108.549 97.128 106.477 97.394L105.945 96.19C108.409 95.882 109.991 94.622 110.145 93.362H106.351V92.13ZM126.302 90.66H127.842V103.12H126.302V90.66ZM124.16 91.962C124.16 95.7 122.746 98.836 118.406 100.936L117.608 99.718C120.842 98.164 122.312 96.05 122.578 93.208H118.224V91.962H124.16Z" fill="#272D34"/>
<path d="M59.9002 116.914H61.8322V114.744H63.0502V122.332H61.8322V120.12H59.9002V119.112H61.8322V117.88H59.9002V116.914ZM53.2642 115.64H59.7462V116.648H58.5562V120.47C59.0882 120.428 59.6062 120.372 60.0962 120.316L60.1662 121.226C57.8002 121.604 55.0422 121.632 53.0542 121.632L52.9282 120.624L54.4402 120.61V116.648H53.2642V115.64ZM58.9902 122.57C61.5522 122.57 63.1062 123.382 63.1062 124.796C63.1062 126.21 61.5522 127.036 58.9902 127.036C56.4142 127.036 54.8742 126.21 54.8742 124.796C54.8742 123.382 56.4142 122.57 58.9902 122.57ZM58.9902 123.522C57.1422 123.522 56.0642 123.998 56.0642 124.796C56.0642 125.622 57.1422 126.112 58.9902 126.112C60.8242 126.112 61.9022 125.622 61.9022 124.796C61.9022 123.998 60.8242 123.522 58.9902 123.522ZM55.6302 120.596L57.3802 120.54V116.648H55.6302V120.596ZM66.5225 115.388H74.8805V116.354C74.8805 117.334 74.8805 118.482 74.5865 120.008H76.2945V121.002H73.2565V123.928H72.0665V121.002H70.0365V123.928H68.8465V121.002H65.1365V120.008H73.3965C73.6905 118.468 73.6905 117.348 73.6905 116.368H66.5225V115.388ZM66.4525 122.906H67.6705V125.818H75.2025V126.798H66.4525V122.906ZM84.0714 115.892V126.014H82.9094V117.18L81.2574 118.244L80.6834 117.32L82.9094 115.892H84.0714ZM87.8191 121.31L86.6571 121.142L86.9931 115.864H92.1591V116.9H88.1131L87.9171 119.812C88.4211 119.546 88.9951 119.392 89.5131 119.392C91.5431 119.392 92.9851 120.778 92.9851 122.738C92.9851 124.74 91.5431 126.154 89.5131 126.154C87.9311 126.154 86.5591 125.09 86.2091 123.578L87.3431 123.312C87.5671 124.334 88.4631 125.048 89.5131 125.048C90.8711 125.048 91.8231 124.096 91.8231 122.738C91.8231 121.422 90.8711 120.498 89.5131 120.498C88.9391 120.498 88.2391 120.834 87.8191 121.31ZM94.2423 121.226H105.4V122.192H100.528V124.53H99.3103V122.192H94.2423V121.226ZM95.6423 123.438H96.8463V125.804H104.168V126.798H95.6423V123.438ZM95.7263 115.122H96.9303V116.648H102.726V115.122H103.944V120.078H95.7263V115.122ZM96.9303 117.586V119.098H102.726V117.586H96.9303ZM109.691 124.46H114.619V121.506H115.823V124.46H120.849V125.468H109.691V124.46ZM114.591 115.528H115.851V116.48C115.851 118.468 118.105 120.288 120.345 120.68L119.813 121.702C117.895 121.296 116.033 120.036 115.221 118.328C114.409 120.036 112.547 121.296 110.615 121.702L110.111 120.68C112.365 120.288 114.591 118.468 114.591 116.48V115.528ZM121.914 124.488H124.616V121.212C123.594 120.652 122.978 119.784 122.978 118.664C122.978 116.732 124.868 115.486 127.472 115.486C130.104 115.486 131.966 116.732 131.966 118.664C131.966 119.77 131.364 120.638 130.37 121.184V124.488H133.072V125.482H121.914V124.488ZM127.472 116.438C125.54 116.438 124.168 117.32 124.168 118.664C124.168 120.022 125.54 120.89 127.472 120.89C129.418 120.89 130.79 120.022 130.79 118.664C130.79 117.32 129.418 116.438 127.472 116.438ZM125.82 124.488H129.152V121.646C128.648 121.772 128.074 121.842 127.472 121.842C126.884 121.842 126.324 121.772 125.82 121.66V124.488Z" fill="#6B7785"/>
</g>
<rect x="12.5" y="12.5" width="161" height="160" rx="11.5" stroke="#DEE3EA"/>
</g>
<defs>
<filter id="filter0_d_729_19295" x="0" y="0" width="186" height="185" filterUnits="userSpaceOnUse" color-interpolation-filters="sRGB">
<feFlood flood-opacity="0" result="BackgroundImageFix"/>
<feColorMatrix in="SourceAlpha" type="matrix" values="0 0 0 0 0 0 0 0 0 0 0 0 0 0 0 0 0 0 127 0" result="hardAlpha"/>
<feOffset/>
<feGaussianBlur stdDeviation="6"/>
<feComposite in2="hardAlpha" operator="out"/>
<feColorMatrix type="matrix" values="0 0 0 0 0 0 0 0 0 0 0 0 0 0 0 0 0 0 0.08 0"/>
<feBlend mode="normal" in2="BackgroundImageFix" result="effect1_dropShadow_729_19295"/>
<feBlend mode="normal" in="SourceGraphic" in2="effect1_dropShadow_729_19295" result="shape"/>
</filter>
<filter id="filter1_f_729_19295" x="6.48047" y="6.48096" width="173.039" height="173.038" filterUnits="userSpaceOnUse" color-interpolation-filters="sRGB">
<feFlood flood-opacity="0" result="BackgroundImageFix"/>
<feBlend mode="normal" in="SourceGraphic" in2="BackgroundImageFix" result="shape"/>
<feGaussianBlur stdDeviation="10" result="effect1_foregroundBlur_729_19295"/>
</filter>
<clipPath id="clip0_729_19295">
<rect x="12" y="12" width="162" height="161" rx="12" fill="white"/>
</clipPath>
</defs>
</svg>
