<svg width="186" height="185" viewBox="0 0 186 185" fill="none" xmlns="http://www.w3.org/2000/svg">
<g filter="url(#filter0_d_729_19413)">
<g clip-path="url(#clip0_729_19413)">
<rect x="12" y="12" width="162" height="161" rx="12" fill="#FFCCE1" fill-opacity="0.55" shape-rendering="crispEdges"/>
<g filter="url(#filter1_f_729_19413)">
<path d="M89.4728 28.5944C90.9801 25.7765 95.0199 25.7765 96.5272 28.5944L108.027 50.0938C108.926 51.7757 110.888 52.5885 112.714 52.0353L136.048 44.9643C139.106 44.0375 141.963 46.8941 141.036 49.9524L133.965 73.2862C133.412 75.1116 134.224 77.0737 135.906 77.9734L157.406 89.4728C160.224 90.9801 160.224 95.0199 157.406 96.5272L135.906 108.027C134.224 108.926 133.412 110.888 133.965 112.714L141.036 136.048C141.963 139.106 139.106 141.963 136.048 141.036L112.714 133.965C110.888 133.412 108.926 134.224 108.027 135.906L96.5272 157.406C95.0199 160.224 90.9801 160.224 89.4728 157.406L77.9734 135.906C77.0737 134.224 75.1116 133.412 73.2862 133.965L49.9524 141.036C46.8941 141.963 44.0375 139.106 44.9643 136.048L52.0353 112.714C52.5885 110.888 51.7757 108.926 50.0938 108.027L28.5944 96.5272C25.7765 95.0199 25.7765 90.9801 28.5944 89.4728L50.0938 77.9734C51.7757 77.0737 52.5885 75.1116 52.0353 73.2862L44.9643 49.9524C44.0375 46.8941 46.8941 44.0375 49.9524 44.9643L73.2862 52.0353C75.1116 52.5885 77.0737 51.7757 77.9734 50.0938L89.4728 28.5944Z" fill="#FF80B4" fill-opacity="0.55"/>
</g>
<path d="M88.4514 46.56H90.9714V62.424H88.4514V54.888H86.3154V61.944H83.8434V46.944H86.3154V52.752H88.4514V46.56ZM76.7634 60.984H79.4034V65.4H91.5474V67.512H76.7634V60.984ZM73.7154 48.36H81.8034V54.792H76.2834V57.312C78.7554 57.288 80.6034 57.192 82.7634 56.784L82.9794 58.872C80.4594 59.352 78.3234 59.448 75.1794 59.448H73.7634V52.848H79.2354V50.424H73.7154V48.36ZM94.932 47.832H104.604V49.92H97.548V55.992C101.076 55.968 103.236 55.848 105.636 55.368L105.876 57.456C103.212 58.008 100.836 58.104 96.588 58.104H94.932V47.832ZM108.9 46.56H111.54V58.92H108.9V53.736H103.5V51.6H108.9V46.56ZM97.452 59.88H111.54V67.656H97.452V59.88ZM108.972 61.944H100.044V65.568H108.972V61.944Z" fill="#FF006A"/>
<path d="M60.5541 102.336C60.0361 102.336 59.6721 101.972 59.6721 101.454C59.6721 100.936 60.0361 100.586 60.5541 100.586C61.0721 100.586 61.4221 100.936 61.4221 101.454C61.4221 101.972 61.0721 102.336 60.5541 102.336ZM59.7841 99.284C59.7701 97.842 60.1901 96.96 61.2401 96.19C62.2621 95.434 62.5001 94.972 62.5281 94.384C62.5841 93.404 61.8561 92.718 60.7781 92.718C59.9801 92.718 59.2241 93.292 58.9021 94.104L57.5021 93.586C58.0201 92.2 59.3781 91.22 60.7781 91.22C62.7801 91.22 64.1241 92.55 64.0401 94.454C63.9841 95.434 63.4801 96.4 62.1361 97.408C61.4361 97.926 61.2821 98.234 61.2961 99.27L59.7841 99.284ZM65.2097 96.918H76.4937V98.136H71.7477V100.404H70.2077V98.136H65.2097V96.918ZM66.6237 91.22H75.0517V95.756H66.6237V91.22ZM73.5397 92.424H68.1357V94.524H73.5397V92.424ZM66.5677 99.284H68.1077V101.664H75.2477V102.896H66.5677V99.284ZM85.6501 90.674H87.1901V93.95H88.9261V95.21H87.1901V98.612H85.6501V90.674ZM83.2001 98.738C85.7481 98.738 87.3301 99.55 87.3301 100.922C87.3301 102.308 85.7481 103.12 83.2001 103.12C80.6521 103.12 79.0701 102.308 79.0701 100.922C79.0701 99.55 80.6521 98.738 83.2001 98.738ZM83.2001 99.9C81.5341 99.9 80.5961 100.25 80.5961 100.922C80.5961 101.608 81.5341 101.958 83.2001 101.958C84.8801 101.958 85.8181 101.608 85.8181 100.922C85.8181 100.25 84.8801 99.9 83.2001 99.9ZM77.4601 91.934H80.3581V90.576H81.8981V91.934H84.7961V93.152H77.4601V91.934ZM81.1281 93.642C82.9341 93.642 84.1661 94.524 84.1661 95.854C84.1661 97.198 82.9341 98.08 81.1281 98.08C79.3361 98.08 78.1041 97.198 78.1041 95.854C78.1041 94.524 79.3361 93.642 81.1281 93.642ZM81.1281 94.776C80.2041 94.776 79.5741 95.168 79.5741 95.854C79.5741 96.54 80.2041 96.946 81.1281 96.946C82.0521 96.946 82.6821 96.54 82.6821 95.854C82.6821 95.168 82.0521 94.776 81.1281 94.776ZM93.3149 91.486H99.1669V96.918H93.3149V91.486ZM97.6549 92.718H94.8269V95.7H97.6549V92.718ZM101.099 90.674H102.639V93.474H104.361V94.748H102.639V97.688H101.099V90.674ZM94.5469 98.332H102.821V99.55H99.5449C99.7829 100.6 101.183 101.622 103.325 101.93L102.779 103.106C100.847 102.826 99.4049 101.986 98.6909 100.866C97.9909 101.986 96.5349 102.812 94.5889 103.092L94.0289 101.916C96.2269 101.622 97.6129 100.628 97.8509 99.55H94.5469V98.332ZM105.103 98.15H116.373V99.41H111.501V103.148H109.947V99.41H105.103V98.15ZM106.139 92.13H109.947V90.688H111.501V92.13H115.323V93.362H111.515C111.669 94.594 113.265 95.882 115.715 96.19L115.169 97.394C113.111 97.142 111.529 96.232 110.731 95.028C109.933 96.246 108.337 97.128 106.265 97.394L105.733 96.19C108.197 95.882 109.779 94.622 109.933 93.362H106.139V92.13ZM126.09 90.66H127.63V103.12H126.09V90.66ZM123.948 91.962C123.948 95.7 122.534 98.836 118.194 100.936L117.396 99.718C120.63 98.164 122.1 96.05 122.366 93.208H118.012V91.962H123.948Z" fill="#272D34"/>
<path d="M62.9147 116.914H64.8467V114.744H66.0647V122.332H64.8467V120.12H62.9147V119.112H64.8467V117.88H62.9147V116.914ZM56.2787 115.64H62.7607V116.648H61.5707V120.47C62.1027 120.428 62.6207 120.372 63.1107 120.316L63.1807 121.226C60.8147 121.604 58.0567 121.632 56.0687 121.632L55.9427 120.624L57.4547 120.61V116.648H56.2787V115.64ZM62.0047 122.57C64.5667 122.57 66.1207 123.382 66.1207 124.796C66.1207 126.21 64.5667 127.036 62.0047 127.036C59.4287 127.036 57.8887 126.21 57.8887 124.796C57.8887 123.382 59.4287 122.57 62.0047 122.57ZM62.0047 123.522C60.1567 123.522 59.0787 123.998 59.0787 124.796C59.0787 125.622 60.1567 126.112 62.0047 126.112C63.8387 126.112 64.9167 125.622 64.9167 124.796C64.9167 123.998 63.8387 123.522 62.0047 123.522ZM58.6447 120.596L60.3947 120.54V116.648H58.6447V120.596ZM69.537 115.388H77.895V116.354C77.895 117.334 77.895 118.482 77.601 120.008H79.309V121.002H76.271V123.928H75.081V121.002H73.051V123.928H71.861V121.002H68.151V120.008H76.411C76.705 118.468 76.705 117.348 76.705 116.368H69.537V115.388ZM69.467 122.906H70.685V125.818H78.217V126.798H69.467V122.906ZM86.6239 126.238C86.1759 126.238 85.8539 125.916 85.8539 125.468C85.8539 125.02 86.1759 124.712 86.6239 124.712C87.0719 124.712 87.3799 125.02 87.3799 125.468C87.3799 125.916 87.0719 126.238 86.6239 126.238ZM86.0219 123.48C86.0079 122.094 86.3999 121.254 87.4219 120.512C88.4719 119.728 88.7379 119.21 88.7659 118.594C88.8219 117.516 88.0379 116.76 86.8619 116.76C86.0079 116.76 85.1819 117.376 84.8459 118.258L83.7259 117.838C84.2299 116.508 85.5179 115.57 86.8619 115.57C88.7659 115.57 90.0539 116.844 89.9699 118.65C89.9139 119.588 89.4379 120.498 88.1219 121.478C87.3939 122.024 87.2119 122.402 87.2259 123.466L86.0219 123.48ZM91.2278 121.226H102.386V122.192H97.5138V124.53H96.2958V122.192H91.2278V121.226ZM92.6278 123.438H93.8318V125.804H101.154V126.798H92.6278V123.438ZM92.7118 115.122H93.9158V116.648H99.7118V115.122H100.93V120.078H92.7118V115.122ZM93.9158 117.586V119.098H99.7118V117.586H93.9158ZM106.677 124.46H111.605V121.506H112.809V124.46H117.835V125.468H106.677V124.46ZM111.577 115.528H112.837V116.48C112.837 118.468 115.091 120.288 117.331 120.68L116.799 121.702C114.881 121.296 113.019 120.036 112.207 118.328C111.395 120.036 109.533 121.296 107.601 121.702L107.097 120.68C109.351 120.288 111.577 118.468 111.577 116.48V115.528ZM118.899 124.488H121.601V121.212C120.579 120.652 119.963 119.784 119.963 118.664C119.963 116.732 121.853 115.486 124.457 115.486C127.089 115.486 128.951 116.732 128.951 118.664C128.951 119.77 128.349 120.638 127.355 121.184V124.488H130.057V125.482H118.899V124.488ZM124.457 116.438C122.525 116.438 121.153 117.32 121.153 118.664C121.153 120.022 122.525 120.89 124.457 120.89C126.403 120.89 127.775 120.022 127.775 118.664C127.775 117.32 126.403 116.438 124.457 116.438ZM122.805 124.488H126.137V121.646C125.633 121.772 125.059 121.842 124.457 121.842C123.869 121.842 123.309 121.772 122.805 121.66V124.488Z" fill="#6B7785"/>
</g>
<rect x="12.5" y="12.5" width="161" height="160" rx="11.5" stroke="#FF006A" shape-rendering="crispEdges"/>
</g>
<defs>
<filter id="filter0_d_729_19413" x="0" y="0" width="186" height="185" filterUnits="userSpaceOnUse" color-interpolation-filters="sRGB">
<feFlood flood-opacity="0" result="BackgroundImageFix"/>
<feColorMatrix in="SourceAlpha" type="matrix" values="0 0 0 0 0 0 0 0 0 0 0 0 0 0 0 0 0 0 127 0" result="hardAlpha"/>
<feOffset/>
<feGaussianBlur stdDeviation="6"/>
<feComposite in2="hardAlpha" operator="out"/>
<feColorMatrix type="matrix" values="0 0 0 0 0 0 0 0 0 0 0 0 0 0 0 0 0 0 0.08 0"/>
<feBlend mode="normal" in2="BackgroundImageFix" result="effect1_dropShadow_729_19413"/>
<feBlend mode="normal" in="SourceGraphic" in2="effect1_dropShadow_729_19413" result="shape"/>
</filter>
<filter id="filter1_f_729_19413" x="6.48047" y="6.48096" width="173.039" height="173.038" filterUnits="userSpaceOnUse" color-interpolation-filters="sRGB">
<feFlood flood-opacity="0" result="BackgroundImageFix"/>
<feBlend mode="normal" in="SourceGraphic" in2="BackgroundImageFix" result="shape"/>
<feGaussianBlur stdDeviation="10" result="effect1_foregroundBlur_729_19413"/>
</filter>
<clipPath id="clip0_729_19413">
<rect x="12" y="12" width="162" height="161" rx="12" fill="white"/>
</clipPath>
</defs>
</svg>
