<svg width="375" height="397" viewBox="0 0 375 397" fill="none" xmlns="http://www.w3.org/2000/svg">
<g clip-path="url(#clip0_966_27196)">
<rect width="375" height="397" fill="#FF006A"/>
<path d="M331.633 147.64C332.467 142.047 340.533 142.047 341.367 147.64L342.519 155.37C342.986 158.502 346.246 160.384 349.191 159.222L356.462 156.355C361.723 154.281 365.755 161.266 361.329 164.785L355.21 169.648C352.732 171.618 352.732 175.382 355.21 177.352L361.329 182.215C365.755 185.734 361.723 192.719 356.462 190.645L349.191 187.778C346.246 186.616 342.986 188.498 342.519 191.63L341.367 199.36C340.533 204.953 332.467 204.953 331.633 199.36L330.481 191.63C330.014 188.498 326.754 186.616 323.809 187.778L316.538 190.645C311.277 192.719 307.245 185.734 311.671 182.215L317.79 177.352C320.268 175.382 320.268 171.618 317.79 169.648L311.671 164.785C307.245 161.266 311.277 154.281 316.538 156.355L323.809 159.222C326.754 160.384 330.014 158.502 330.481 155.37L331.633 147.64Z" fill="#FF80B4"/>
<path opacity="0.5" d="M248.184 51.1545C248.614 48.531 252.386 48.531 252.816 51.1545C253.111 52.9626 255.273 53.7493 256.662 52.5543C258.677 50.8205 261.567 53.2457 260.209 55.5312C259.274 57.1065 260.424 59.0984 262.256 59.0758C264.914 59.0429 265.569 62.7585 263.06 63.6367C261.331 64.242 260.931 66.5071 262.349 67.6674C264.407 69.3508 262.52 72.6182 260.034 71.6782C258.32 71.0303 256.558 72.5087 256.898 74.309C257.392 76.921 253.847 78.2115 252.546 75.893C251.65 74.2951 249.35 74.2951 248.454 75.893C247.153 78.2115 243.608 76.921 244.102 74.309C244.442 72.5087 242.68 71.0303 240.966 71.6782C238.48 72.6182 236.593 69.3508 238.651 67.6674C240.069 66.5071 239.669 64.242 237.94 63.6367C235.431 62.7585 236.086 59.0429 238.744 59.0758C240.576 59.0984 241.726 57.1065 240.791 55.5312C239.433 53.2457 242.323 50.8205 244.338 52.5543C245.727 53.7493 247.889 52.9626 248.184 51.1545Z" fill="white"/>
<path opacity="0.7" d="M151.382 177.96C152.019 175.867 154.981 175.867 155.618 177.96L156.773 181.753C156.988 182.46 157.54 183.012 158.247 183.227L162.04 184.382C164.133 185.019 164.133 187.981 162.04 188.618L158.247 189.773C157.54 189.988 156.988 190.54 156.773 191.247L155.618 195.04C154.981 197.133 152.019 197.133 151.382 195.04L150.227 191.247C150.012 190.54 149.46 189.988 148.753 189.773L144.96 188.618C142.867 187.981 142.867 185.019 144.96 184.382L148.753 183.227C149.46 183.012 150.012 182.46 150.227 181.753L151.382 177.96Z" fill="white"/>
</g>
<defs>
<clipPath id="clip0_966_27196">
<rect width="375" height="397" fill="white"/>
</clipPath>
</defs>
</svg>
