<svg width="132" height="68" viewBox="0 0 132 68" fill="none" xmlns="http://www.w3.org/2000/svg">
<path d="M87.057 31.2327C87.057 26.2529 82.9754 22.2159 77.9404 22.2159H41.1166C36.0816 22.2159 32 26.2529 32 31.2327C32 36.2125 36.0816 40.2495 41.1166 40.2495H77.9404C82.9754 40.2495 87.057 36.2125 87.057 31.2327Z" fill="#3D5BF5"/>
<path d="M45.943 10.0168C45.943 5.03695 50.0246 1 55.0596 1H91.8834C96.9184 1 101 5.03695 101 10.0168C101 14.9966 96.9184 19.0335 91.8834 19.0335H55.0596C50.0246 19.0335 45.943 14.9966 45.943 10.0168Z" fill="#FF80B4"/>
<path d="M45.943 52.4486C45.943 47.4688 50.0246 43.4319 55.0596 43.4319H91.8834C96.9184 43.4319 101 47.4688 101 52.4486C101 57.4285 96.9184 61.4654 91.8834 61.4654H55.0596C50.0246 61.4654 45.943 57.4285 45.943 52.4486Z" fill="#FF80B4"/>
<path d="M44.6553 45.2997C44.4385 45.9455 43.5149 45.9455 43.2981 45.2997L40.7283 37.6435C40.5746 37.1857 40.9192 36.7135 41.4069 36.7135H46.5465C47.0342 36.7135 47.3788 37.1857 47.2251 37.6435L44.6553 45.2997Z" fill="#3D5BF5"/>
<path d="M88.3447 24.0838C88.5615 24.7296 89.4851 24.7296 89.7019 24.0838L92.2717 16.4276C92.4254 15.9698 92.0808 15.4976 91.5931 15.4976H86.4535C85.9658 15.4976 85.6212 15.9698 85.7749 16.4276L88.3447 24.0838Z" fill="#FF80B4"/>
<path d="M88.3447 66.5156C88.5615 67.1615 89.4851 67.1615 89.7019 66.5156L92.2717 58.8594C92.4254 58.4017 92.0808 57.9294 91.5931 57.9294H86.4535C85.9658 57.9294 85.6212 58.4017 85.7749 58.8594L88.3447 66.5156Z" fill="#FF80B4"/>
</svg>
