<svg width="132" height="68" viewBox="0 0 132 68" fill="none" xmlns="http://www.w3.org/2000/svg">
<path d="M33.3529 14.1423C33.3529 6.33173 39.7059 0 47.5428 0H90.8102C98.647 0 105 6.33173 105 14.1423C105 21.9529 98.647 28.2846 90.8102 28.2846H47.5428C39.7059 28.2846 33.3529 21.9529 33.3529 14.1423Z" fill="#11EBC5"/>
<path d="M89.6471 46.6001C89.6471 38.7895 83.2941 32.4578 75.4572 32.4578H32.1898C24.353 32.4578 18 38.7895 18 46.6001C18 54.4106 24.353 60.7424 32.1898 60.7424H75.4572C83.2941 60.7424 89.6471 54.4106 89.6471 46.6001Z" fill="#3D5BF5"/>
<path d="M88.5313 34.9071C88.8134 35.754 90.0154 35.754 90.2975 34.9071L93.6417 24.8673C93.8416 24.267 93.3932 23.6478 92.7586 23.6478H86.0703C85.4356 23.6478 84.9872 24.267 85.1872 24.8673L88.5313 34.9071Z" fill="#11EBC5"/>
<path d="M34.4687 67.3648C34.1866 68.2117 32.9846 68.2117 32.7025 67.3648L29.3583 57.3251C29.1584 56.7248 29.6068 56.1055 30.2414 56.1055H36.9297C37.5643 56.1055 38.0128 56.7248 37.8128 57.3251L34.4687 67.3648Z" fill="#3D5BF5"/>
</svg>
