<svg width="162" height="132" viewBox="0 0 162 132" fill="none" xmlns="http://www.w3.org/2000/svg">
<g filter="url(#filter0_d_966_26097)">
<g clip-path="url(#clip0_966_26097)">
<rect width="162" height="132" rx="12" fill="white"/>
<g opacity="0.2" filter="url(#filter1_f_966_26097)">
<circle cx="81.5" cy="116.5" r="82.5" fill="#FDD853"/>
</g>
<path d="M54.974 103.302C58.286 103.302 60.338 104.454 60.338 106.38C60.338 108.324 58.286 109.458 54.974 109.458C51.68 109.458 49.61 108.324 49.61 106.38C49.61 104.454 51.68 103.302 54.974 103.302ZM54.974 104.886C52.796 104.886 51.572 105.408 51.572 106.38C51.572 107.388 52.796 107.91 54.974 107.91C57.134 107.91 58.376 107.388 58.376 106.38C58.376 105.408 57.134 104.886 54.974 104.886ZM58.178 93.438H60.158V97.272H62.372V98.91H60.158V102.942H58.178V93.438ZM48.17 94.446H50.132V96.588H53.804V94.446H55.748V101.916H48.17V94.446ZM50.132 98.136V100.368H53.804V98.136H50.132ZM68.0149 94.788H75.5389V102.42H68.0149V94.788ZM73.5949 96.354H69.9589V100.818H73.5949V96.354ZM78.0229 93.42H80.0029V98.136H82.2169V99.774H80.0029V105.12H78.0229V93.42ZM69.8149 103.986H71.7949V107.55H80.6329V109.134H69.8149V103.986ZM83.1893 99.828H97.6613V101.412H83.1893V99.828ZM85.0253 93.816H95.7893V95.4H86.9873V97.254H95.9513V98.802H85.0253V93.816ZM84.8453 102.492H95.8433V106.542H86.8253V107.766H96.2933V109.296H84.8993V105.138H93.8993V104.004H84.8453V102.492ZM110.154 93.42H112.134V109.44H110.154V93.42ZM107.4 95.094C107.4 99.9 105.582 103.932 100.002 106.632L98.9757 105.066C103.134 103.068 105.024 100.35 105.366 96.696H99.7677V95.094H107.4Z" fill="#272D34"/>
<path d="M114.19 30.5322C114.19 28.2541 112.586 26.5017 110.342 26.5017C107.987 26.5017 107.987 26.079 105.628 26.079C103.273 26.079 103.273 26.1581 100.914 26.1581C98.5553 26.1581 98.5587 26.8006 96.2034 26.8006C93.8481 26.8006 93.8481 26.1959 91.4894 26.1959C89.1307 26.1959 89.1307 26.5841 86.7754 26.5841C84.4201 26.5841 84.4201 26 82.0615 26C79.7028 26 79.7028 26.079 77.3441 26.079C74.9854 26.079 74.9854 26.8762 72.6267 26.8762C71.9499 26.8762 71.043 26.134 70.4474 26.4604C67.4627 28.1063 67.6251 28.4121 64.6404 30.058C64.0448 30.3879 63.456 30.8724 62.7792 30.8724C60.0347 30.8724 60.0347 31.1061 57.2902 31.1061C54.5458 31.1061 54.5458 30.7899 51.8013 30.7899C49.5577 30.7899 48.2413 32.5492 48.2413 34.8239C48.2413 37.4182 47.3851 37.4182 47.3851 40.009C47.3851 42.5998 48.1736 42.6033 48.1736 45.1976C48.1736 47.7918 47.2734 47.7918 47.2734 50.3861C47.2734 52.9803 47.7438 52.9803 47.7438 55.5746C47.7438 58.1689 47.9706 58.1689 47.9706 60.7631C47.9706 63.0413 49.5611 64.536 51.8013 64.536C54.2378 64.536 54.2378 65.2782 56.6743 65.2782C59.1108 65.2782 59.1108 64.883 61.5474 64.883C63.9839 64.883 63.9839 65.0823 66.4204 65.0823C68.8569 65.0823 68.8569 64.7525 71.29 64.7525C73.7232 64.7525 73.7265 65.3813 76.1631 65.3813C78.5996 65.3813 78.5996 65.261 81.0327 65.261C83.4658 65.261 83.4692 65.2988 85.9057 65.2988C88.3423 65.2988 88.3423 64.7903 90.7788 64.7903C92.0207 64.7903 92.904 65.7008 93.6755 66.6939C95.3405 68.8346 95.442 68.7555 97.1069 70.8962C98.7719 73.0369 98.6738 73.116 100.339 75.2601C101.581 76.8579 103.905 75.6621 103.75 73.6314C103.587 71.501 103.831 71.4838 103.665 69.3534C103.482 66.9584 105.598 64.9655 107.966 64.9655C109.158 64.9655 109.158 64.5807 110.345 64.5807C112.589 64.5807 114.555 63.0447 114.555 60.7666C114.555 58.2479 114.112 58.2479 114.112 55.7258C114.112 53.2071 114.789 53.2071 114.789 50.6885C114.789 48.1698 114.396 48.1698 114.396 45.6477C114.396 43.129 114.67 43.129 114.67 40.6103C114.67 38.0882 114.904 38.0745 114.833 35.5558C114.762 33.0372 114.193 33.0475 114.193 30.5254L114.19 30.5322Z" fill="#FDD853"/>
<g filter="url(#filter2_f_966_26097)">
<path d="M114.19 30.5322C114.19 28.2541 112.586 26.5017 110.342 26.5017C107.987 26.5017 107.987 26.079 105.628 26.079C103.273 26.079 103.273 26.1581 100.914 26.1581C98.5553 26.1581 98.5587 26.8006 96.2034 26.8006C93.8481 26.8006 93.8481 26.1959 91.4894 26.1959C89.1307 26.1959 89.1307 26.5841 86.7754 26.5841C84.4201 26.5841 84.4201 26 82.0615 26C79.7028 26 79.7028 26.079 77.3441 26.079C74.9854 26.079 74.9854 26.8762 72.6267 26.8762C71.9499 26.8762 71.043 26.134 70.4474 26.4604C67.4627 28.1063 67.6251 28.4121 64.6404 30.058C64.0448 30.3879 63.456 30.8724 62.7792 30.8724C60.0347 30.8724 60.0347 31.1061 57.2902 31.1061C54.5458 31.1061 54.5458 30.7899 51.8013 30.7899C49.5577 30.7899 48.2413 32.5492 48.2413 34.8239C48.2413 37.4182 47.3851 37.4182 47.3851 40.009C47.3851 42.5998 48.1736 42.6033 48.1736 45.1976C48.1736 47.7918 47.2734 47.7918 47.2734 50.3861C47.2734 52.9803 47.7438 52.9803 47.7438 55.5746C47.7438 58.1689 47.9706 58.1689 47.9706 60.7631C47.9706 63.0413 49.5611 64.536 51.8013 64.536C54.2378 64.536 54.2378 65.2782 56.6743 65.2782C59.1108 65.2782 59.1108 64.883 61.5474 64.883C63.9839 64.883 63.9839 65.0823 66.4204 65.0823C68.8569 65.0823 68.8569 64.7525 71.29 64.7525C73.7232 64.7525 73.7265 65.3813 76.1631 65.3813C78.5996 65.3813 78.5996 65.261 81.0327 65.261C83.4658 65.261 83.4692 65.2988 85.9057 65.2988C88.3423 65.2988 88.3423 64.7903 90.7788 64.7903C92.0207 64.7903 92.904 65.7008 93.6755 66.6939C95.3405 68.8346 95.442 68.7555 97.1069 70.8962C98.7719 73.0369 98.6738 73.116 100.339 75.2601C101.581 76.8579 103.905 75.6621 103.75 73.6314C103.587 71.501 103.831 71.4838 103.665 69.3534C103.482 66.9584 105.598 64.9655 107.966 64.9655C109.158 64.9655 109.158 64.5807 110.345 64.5807C112.589 64.5807 114.555 63.0447 114.555 60.7666C114.555 58.2479 114.112 58.2479 114.112 55.7258C114.112 53.2071 114.789 53.2071 114.789 50.6885C114.789 48.1698 114.396 48.1698 114.396 45.6477C114.396 43.129 114.67 43.129 114.67 40.6103C114.67 38.0882 114.904 38.0745 114.833 35.5558C114.762 33.0372 114.193 33.0475 114.193 30.5254L114.19 30.5322Z" fill="#FDD853" fill-opacity="0.75"/>
</g>
<path d="M64.1523 41.806C64.1523 41.806 64.7189 43.3523 65.5268 43.3523C66.3347 43.3523 66.9012 41.806 66.9012 41.806" stroke="#272D34" stroke-width="0.687222" stroke-linecap="round" stroke-linejoin="round"/>
<circle cx="58.999" cy="41.806" r="2.40528" fill="#FF80B4" fill-opacity="0.55"/>
<circle cx="72.0537" cy="41.806" r="2.40528" fill="#FF80B4" fill-opacity="0.55"/>
<path d="M59.3398 38.0263L63.8068 39.0571L59.3398 40.947" stroke="#272D34" stroke-width="0.687222" stroke-linecap="round" stroke-linejoin="round"/>
<path d="M71.707 38.0263L67.2401 39.0571L71.707 40.947" stroke="#272D34" stroke-width="0.687222" stroke-linecap="round" stroke-linejoin="round"/>
</g>
<rect x="0.5" y="0.5" width="161" height="131" rx="11.5" stroke="#DEE3EA"/>
</g>
<defs>
<filter id="filter0_d_966_26097" x="-12" y="-12" width="186" height="156" filterUnits="userSpaceOnUse" color-interpolation-filters="sRGB">
<feFlood flood-opacity="0" result="BackgroundImageFix"/>
<feColorMatrix in="SourceAlpha" type="matrix" values="0 0 0 0 0 0 0 0 0 0 0 0 0 0 0 0 0 0 127 0" result="hardAlpha"/>
<feOffset/>
<feGaussianBlur stdDeviation="6"/>
<feComposite in2="hardAlpha" operator="out"/>
<feColorMatrix type="matrix" values="0 0 0 0 0 0 0 0 0 0 0 0 0 0 0 0 0 0 0.08 0"/>
<feBlend mode="normal" in2="BackgroundImageFix" result="effect1_dropShadow_966_26097"/>
<feBlend mode="normal" in="SourceGraphic" in2="effect1_dropShadow_966_26097" result="shape"/>
</filter>
<filter id="filter1_f_966_26097" x="-11" y="24" width="185" height="185" filterUnits="userSpaceOnUse" color-interpolation-filters="sRGB">
<feFlood flood-opacity="0" result="BackgroundImageFix"/>
<feBlend mode="normal" in="SourceGraphic" in2="BackgroundImageFix" result="shape"/>
<feGaussianBlur stdDeviation="5" result="effect1_foregroundBlur_966_26097"/>
</filter>
<filter id="filter2_f_966_26097" x="43.8373" y="22.5639" width="74.4464" height="56.8722" filterUnits="userSpaceOnUse" color-interpolation-filters="sRGB">
<feFlood flood-opacity="0" result="BackgroundImageFix"/>
<feBlend mode="normal" in="SourceGraphic" in2="BackgroundImageFix" result="shape"/>
<feGaussianBlur stdDeviation="1.71806" result="effect1_foregroundBlur_966_26097"/>
</filter>
<clipPath id="clip0_966_26097">
<rect width="162" height="132" rx="12" fill="white"/>
</clipPath>
</defs>
</svg>
