<svg width="162" height="132" viewBox="0 0 162 132" fill="none" xmlns="http://www.w3.org/2000/svg">
<g filter="url(#filter0_d_966_26108)">
<g clip-path="url(#clip0_966_26108)">
<rect width="162" height="132" rx="12" fill="white"/>
<g opacity="0.2" filter="url(#filter1_f_966_26108)">
<circle cx="81.5" cy="116.5" r="82.5" fill="#11EBC5"/>
</g>
<path d="M61.844 93.438H63.824V102.024H61.844V93.438ZM53.312 102.78H55.274V104.436H61.88V102.78H63.824V109.26H53.312V102.78ZM55.274 105.966V107.676H61.88V105.966H55.274ZM55.166 94.14C57.632 94.14 59.45 95.67 59.45 97.866C59.45 100.08 57.632 101.61 55.166 101.61C52.7 101.61 50.882 100.08 50.882 97.866C50.882 95.67 52.7 94.14 55.166 94.14ZM55.166 95.76C53.798 95.76 52.808 96.588 52.808 97.866C52.808 99.162 53.798 99.972 55.166 99.972C56.534 99.972 57.524 99.162 57.524 97.866C57.524 96.588 56.534 95.76 55.166 95.76ZM66.7044 94.536H75.3264V96.138H72.0324V96.3C72.0324 98.244 73.2744 100.098 75.7764 100.89L74.8224 102.42C73.0404 101.862 71.7804 100.728 71.0964 99.288C70.3944 100.98 69.0624 102.312 67.1544 102.96L66.1644 101.394C68.7204 100.53 70.0524 98.442 70.0524 96.3V96.138H66.7044V94.536ZM76.8744 93.438H78.8544V97.272H81.0864V98.892H78.8544V102.996H76.8744V93.438ZM73.6884 103.338C76.9824 103.338 79.0344 104.454 79.0344 106.38C79.0344 108.306 76.9824 109.44 73.6884 109.44C70.3944 109.44 68.3244 108.306 68.3244 106.38C68.3244 104.454 70.3944 103.338 73.6884 103.338ZM73.6884 104.886C71.5104 104.886 70.2684 105.39 70.2684 106.38C70.2684 107.37 71.5104 107.91 73.6884 107.91C75.8484 107.91 77.0904 107.37 77.0904 106.38C77.0904 105.39 75.8484 104.886 73.6884 104.886ZM92.5348 93.438H94.5148V99.81H96.9448V101.448H94.5148V109.458H92.5348V93.438ZM81.9508 95.868H85.6768V93.672H87.6748V95.868H91.3468V97.452H81.9508V95.868ZM86.6848 98.532C89.0068 98.532 90.6988 100.08 90.6988 102.294C90.6988 104.508 89.0068 106.056 86.6848 106.056C84.3988 106.056 82.6888 104.508 82.6888 102.294C82.6888 100.08 84.3988 98.532 86.6848 98.532ZM86.6848 100.134C85.4608 100.134 84.5968 100.98 84.5968 102.294C84.5968 103.608 85.4608 104.436 86.6848 104.436C87.9088 104.436 88.7908 103.608 88.7908 102.294C88.7908 100.98 87.9088 100.134 86.6848 100.134ZM109.023 93.42H111.003V109.44H109.023V93.42ZM106.269 95.094C106.269 99.9 104.451 103.932 98.8713 106.632L97.8453 105.066C102.003 103.068 103.893 100.35 104.235 96.696H98.6373V95.094H106.269Z" fill="#272D34"/>
<path d="M113.938 31.8935C113.938 29.8316 111.816 28.5223 109.782 28.5223C107.315 28.5223 107.315 27.5842 104.848 27.5842C102.38 27.5842 102.38 28.3161 99.9133 28.3161C99.0604 28.3161 98.1805 27.9244 97.5239 27.3746C95.2361 25.4639 94.9755 25.7869 92.6877 23.8763C90.3998 21.9656 90.965 21.2715 88.6772 19.3608C88.0206 18.811 86.9444 19.6014 86.0916 19.6014C83.7124 19.6014 83.7124 18.8522 81.3332 18.8522C78.9539 18.8522 78.9539 18.4639 76.5747 18.4639C74.1955 18.4639 74.1955 19.3196 71.8163 19.3196C69.4371 19.3196 69.4371 18.11 67.0579 18.11C64.6787 18.11 64.6787 18.4536 62.2995 18.4536C59.9203 18.4536 59.9203 19.6357 57.5377 19.6357C55.1551 19.6357 55.1585 18 52.7759 18C50.7453 18 48.4575 20.488 48.4575 22.5498C48.4575 24.9347 49.2731 24.9347 49.2731 27.3161C49.2731 29.6976 49.2224 29.701 49.2224 32.0825C49.2224 34.4639 49.4999 34.4673 49.4999 36.8488C49.4999 39.2302 48.9245 39.2302 48.9245 41.6151C48.9245 44 49.0836 44 49.0836 46.3814C49.0836 48.7629 48.6301 48.7663 48.6301 51.1512C48.6301 53.5361 49.5269 53.5361 49.5269 55.9175C49.5269 58.299 49.1073 58.3024 49.1073 60.6873C49.1073 63.0722 48.2578 63.0722 48.2578 65.457C48.2578 66.835 49.8045 68.1924 51.0093 68.8316C52.5661 69.6563 54.3192 69.8832 55.7812 70.5773C57.3685 71.3333 58.8644 72.0378 60.3738 72.6289C62.0017 73.2646 63.2776 74.8007 64.8513 75.2337C66.5097 75.6873 68.3101 75.4055 69.9583 75.6185C71.62 75.835 73.2648 75.1306 74.9672 75.0825C76.6695 75.0344 78.3346 75.9553 80.0505 75.6529C81.6344 75.3746 83.1336 74.4227 84.8258 73.9106C86.3589 73.4502 88.2982 73.8832 89.9497 73.2234C91.4388 72.6289 92.9584 71.7904 94.5592 71.0275C95.7471 70.4605 96.4409 70.7285 97.507 71.4158C97.947 71.701 99.3109 69.3986 99.5952 69.8419C101.274 72.0481 100.692 72.5051 102.391 74.6941C104.086 76.8866 104.699 76.3917 106.408 78.5704C107.078 79.3711 107.772 79.5017 107.958 78.4708C107.809 76.4536 108.043 76.4399 107.87 74.4227C108.019 73.6014 108.262 72.2337 108.479 70.8419C108.73 69.2234 108.52 66.8144 109.477 66.8144C109.63 66.8144 109.63 67.7457 109.785 67.7457C111.816 67.7457 113.985 65.9931 113.985 63.9313C113.985 61.2612 114.243 61.2612 114.243 58.5876C114.243 55.9175 113.644 55.9175 113.644 53.2474C113.644 50.5773 113.762 50.5773 113.762 47.9038C113.762 45.2337 113.332 45.2337 113.332 42.5601C113.332 39.8866 112.523 39.8351 112.682 37.1684C112.842 34.5017 113.941 34.543 113.941 31.8728L113.938 31.8935Z" fill="#11EBC5"/>
<g filter="url(#filter2_f_966_26108)">
<path d="M113.938 31.8935C113.938 29.8316 111.816 28.5223 109.782 28.5223C107.315 28.5223 107.315 27.5842 104.848 27.5842C102.38 27.5842 102.38 28.3161 99.9133 28.3161C99.0604 28.3161 98.1805 27.9244 97.5239 27.3746C95.2361 25.4639 94.9755 25.7869 92.6877 23.8763C90.3998 21.9656 90.965 21.2715 88.6772 19.3608C88.0206 18.811 86.9444 19.6014 86.0916 19.6014C83.7124 19.6014 83.7124 18.8522 81.3332 18.8522C78.9539 18.8522 78.9539 18.4639 76.5747 18.4639C74.1955 18.4639 74.1955 19.3196 71.8163 19.3196C69.4371 19.3196 69.4371 18.11 67.0579 18.11C64.6787 18.11 64.6787 18.4536 62.2995 18.4536C59.9203 18.4536 59.9203 19.6357 57.5377 19.6357C55.1551 19.6357 55.1585 18 52.7759 18C50.7453 18 48.4575 20.488 48.4575 22.5498C48.4575 24.9347 49.2731 24.9347 49.2731 27.3161C49.2731 29.6976 49.2224 29.701 49.2224 32.0825C49.2224 34.4639 49.4999 34.4673 49.4999 36.8488C49.4999 39.2302 48.9245 39.2302 48.9245 41.6151C48.9245 44 49.0836 44 49.0836 46.3814C49.0836 48.7629 48.6301 48.7663 48.6301 51.1512C48.6301 53.5361 49.5269 53.5361 49.5269 55.9175C49.5269 58.299 49.1073 58.3024 49.1073 60.6873C49.1073 63.0722 48.2578 63.0722 48.2578 65.457C48.2578 66.835 49.8045 68.1924 51.0093 68.8316C52.5661 69.6563 54.3192 69.8832 55.7812 70.5773C57.3685 71.3333 58.8644 72.0378 60.3738 72.6289C62.0017 73.2646 63.2776 74.8007 64.8513 75.2337C66.5097 75.6873 68.3101 75.4055 69.9583 75.6185C71.62 75.835 73.2648 75.1306 74.9672 75.0825C76.6695 75.0344 78.3346 75.9553 80.0505 75.6529C81.6344 75.3746 83.1336 74.4227 84.8258 73.9106C86.3589 73.4502 88.2982 73.8832 89.9497 73.2234C91.4388 72.6289 92.9584 71.7904 94.5592 71.0275C95.7471 70.4605 96.4409 70.7285 97.507 71.4158C97.947 71.701 99.3109 69.3986 99.5952 69.8419C101.274 72.0481 100.692 72.5051 102.391 74.6941C104.086 76.8866 104.699 76.3917 106.408 78.5704C107.078 79.3711 107.772 79.5017 107.958 78.4708C107.809 76.4536 108.043 76.4399 107.87 74.4227C108.019 73.6014 108.262 72.2337 108.479 70.8419C108.73 69.2234 108.52 66.8144 109.477 66.8144C109.63 66.8144 109.63 67.7457 109.785 67.7457C111.816 67.7457 113.985 65.9931 113.985 63.9313C113.985 61.2612 114.243 61.2612 114.243 58.5876C114.243 55.9175 113.644 55.9175 113.644 53.2474C113.644 50.5773 113.762 50.5773 113.762 47.9038C113.762 45.2337 113.332 45.2337 113.332 42.5601C113.332 39.8866 112.523 39.8351 112.682 37.1684C112.842 34.5017 113.941 34.543 113.941 31.8728L113.938 31.8935Z" fill="#11EBC5"/>
</g>
<path d="M63.0938 59.7526C64.4683 61.299 66.3584 59.846 67.9047 59.9244C69.4511 60.0028 71.1694 61.299 72.5439 59.9244" stroke="#1A1E22" stroke-width="0.649797" stroke-linecap="round" stroke-linejoin="round"/>
<ellipse cx="65.4958" cy="56.3162" rx="1.03093" ry="2.23368" fill="#272D34"/>
<ellipse cx="69.9645" cy="56.3162" rx="1.03093" ry="2.23368" fill="#272D34"/>
</g>
<rect x="0.5" y="0.5" width="161" height="131" rx="11.5" stroke="#DEE3EA"/>
</g>
<defs>
<filter id="filter0_d_966_26108" x="-12" y="-12" width="186" height="156" filterUnits="userSpaceOnUse" color-interpolation-filters="sRGB">
<feFlood flood-opacity="0" result="BackgroundImageFix"/>
<feColorMatrix in="SourceAlpha" type="matrix" values="0 0 0 0 0 0 0 0 0 0 0 0 0 0 0 0 0 0 127 0" result="hardAlpha"/>
<feOffset/>
<feGaussianBlur stdDeviation="6"/>
<feComposite in2="hardAlpha" operator="out"/>
<feColorMatrix type="matrix" values="0 0 0 0 0 0 0 0 0 0 0 0 0 0 0 0 0 0 0.08 0"/>
<feBlend mode="normal" in2="BackgroundImageFix" result="effect1_dropShadow_966_26108"/>
<feBlend mode="normal" in="SourceGraphic" in2="effect1_dropShadow_966_26108" result="shape"/>
</filter>
<filter id="filter1_f_966_26108" x="-11" y="24" width="185" height="185" filterUnits="userSpaceOnUse" color-interpolation-filters="sRGB">
<feFlood flood-opacity="0" result="BackgroundImageFix"/>
<feBlend mode="normal" in="SourceGraphic" in2="BackgroundImageFix" result="shape"/>
<feGaussianBlur stdDeviation="5" result="effect1_foregroundBlur_966_26108"/>
</filter>
<filter id="filter2_f_966_26108" x="44.8214" y="14.5636" width="72.8572" height="68.0804" filterUnits="userSpaceOnUse" color-interpolation-filters="sRGB">
<feFlood flood-opacity="0" result="BackgroundImageFix"/>
<feBlend mode="normal" in="SourceGraphic" in2="BackgroundImageFix" result="shape"/>
<feGaussianBlur stdDeviation="1.71821" result="effect1_foregroundBlur_966_26108"/>
</filter>
<clipPath id="clip0_966_26108">
<rect width="162" height="132" rx="12" fill="white"/>
</clipPath>
</defs>
</svg>
