<svg width="127" height="28" viewBox="0 0 127 28" fill="none" xmlns="http://www.w3.org/2000/svg">
<path d="M117.796 1.86749V12.1606L121.29 8.15624H126.799L121.424 14.23L126.288 21.54H121.397L118.495 17.1862L117.796 18.0194V21.54H113.711V1.86749H117.796Z" fill="white"/>
<path d="M103.852 21.54V8.18311H107.883V10.0644C108.797 8.74748 110.328 8.12936 111.323 8.20998V11.8112C109.012 11.65 107.883 13.7462 107.883 15.1706V21.54H103.852Z" fill="white"/>
<path d="M93.2613 21.5669C89.5525 21.5669 87.1875 18.7987 87.1875 14.875C87.1875 10.9513 89.5525 8.18312 93.2613 8.18312C94.3631 8.18312 95.8413 8.58625 96.755 9.8225V8.15625H100.84V21.54H96.755V19.9544C95.8413 21.1638 94.3631 21.5669 93.2613 21.5669ZM93.9063 18.2612C95.4919 18.2612 96.7281 16.8369 96.755 14.875C96.7281 12.9131 95.4919 11.4888 93.9063 11.4888C92.24 11.4888 91.2725 12.725 91.2725 14.875C91.2725 17.025 92.24 18.2612 93.9063 18.2612Z" fill="white"/>
<path d="M79.4753 18.1806C81.1147 18.1806 82.0822 16.9444 82.0822 14.7944C82.0822 12.6444 81.1147 11.4081 79.4753 11.4081C77.8091 11.4081 76.5459 12.8325 76.5459 14.7944C76.5459 16.7563 77.8091 18.1806 79.4753 18.1806ZM80.0666 8.10251C83.7753 8.10251 86.1672 10.8706 86.1672 14.7944C86.1672 18.745 83.7753 21.5131 80.0666 21.5131C79.7172 21.5131 77.7822 21.4594 76.5459 19.7394V27.1031H72.4609V8.12938H76.5459V9.87626C77.7822 8.29063 79.7172 8.10251 80.0666 8.10251Z" fill="white"/>
<path d="M58.3759 15.1169C59.8003 17.7506 61.2516 18.2612 62.3803 18.2612C64.8259 18.2612 65.7666 17.1862 65.7666 15.7081C65.7666 12.1606 55.9841 13.7462 55.9841 6.62437C55.9841 3.10374 58.7522 0.899994 62.8103 0.899994C65.0947 0.899994 68.1316 2.29749 69.5022 5.87187L65.9278 7.18875C64.9872 4.82374 63.6972 4.36687 62.8103 4.36687C60.9559 4.36687 60.0422 5.38812 60.0422 6.62437C60.0422 10.145 69.8247 9.09687 69.8247 15.7081C69.8247 19.2556 67.0297 21.7281 62.3803 21.7281C59.3434 21.7281 56.8172 19.9006 55.0703 16.9981L58.3759 15.1169Z" fill="white"/>
<path d="M43.335 1.86749V12.1606L46.8288 8.15624H52.3381L46.9631 14.23L51.8275 21.54H46.9362L44.0337 17.1862L43.335 18.0194V21.54H39.25V1.86749H43.335Z" fill="white"/>
<path d="M31.6328 1.86749H35.7178V21.4862H31.6328V1.86749Z" fill="white"/>
<path d="M20.8745 21.5669C17.1658 21.5669 14.8008 18.7987 14.8008 14.875C14.8008 10.9513 17.1658 8.18312 20.8745 8.18312C21.9764 8.18312 23.4545 8.58625 24.3683 9.8225V8.15625H28.4533V21.54H24.3683V19.9544C23.4545 21.1638 21.9764 21.5669 20.8745 21.5669ZM21.5195 18.2612C23.1052 18.2612 24.3414 16.8369 24.3683 14.875C24.3414 12.9131 23.1052 11.4888 21.5195 11.4888C19.8533 11.4888 18.8858 12.725 18.8858 14.875C18.8858 17.025 19.8533 18.2612 21.5195 18.2612Z" fill="white"/>
<path d="M14.835 1.11499V4.60874H9.51375V21.4862H5.42875V4.60874H0V1.11499H14.835Z" fill="white"/>
</svg>
